<?xml version="1.0" encoding="utf-8"?>
<!-- Generator: Adobe Illustrator 24.1.0, SVG Export Plug-In . SVG Version: 6.00 Build 0)  -->
<svg version="1.1" id="图层_1" xmlns="http://www.w3.org/2000/svg" xmlns:xlink="http://www.w3.org/1999/xlink" x="0px" y="0px"
	 viewBox="0 0 100 100" style="enable-background:new 0 0 100 100;" xml:space="preserve">
<style type="text/css">
	.st0{fill:url(#SVGID_1_);}
	.st1{fill:url(#SVGID_2_);}
	.st2{fill:url(#SVGID_3_);}
</style>
<g>
	<linearGradient id="SVGID_1_" gradientUnits="userSpaceOnUse" x1="13.3934" y1="50.079" x2="89.8701" y2="50.079">
		<stop  offset="0.3718" style="stop-color:#44C8F9"/>
		<stop  offset="1" style="stop-color:#230FD2"/>
	</linearGradient>
	<path class="st0" d="M85.28,50.13c1.15-1.88,2.08-3.96,2.8-6.25c1.19-3.8,1.79-8.05,1.79-12.75c0-4.7-0.6-8.94-1.79-12.75
		c-1.19-3.8-2.98-7.06-5.37-9.78s-5.4-4.81-9.06-6.26c-3.65-1.45-7.94-2.18-12.86-2.18H13.39V6.4c0,9.77,7.92,17.68,17.68,17.68
		h28.72c2.61,0,4.6,0.54,5.98,1.62c1.38,1.08,2.07,2.89,2.07,5.42s-0.69,4.34-2.07,5.42c-1.32,1.03-3.2,1.57-5.64,1.62h-4.19v0h-2.6
		c-6.58,0-11.91,5.33-11.91,11.91l0,0c0,6.58,5.33,11.91,11.91,11.91h2.6v0.11h3.84c2.61,0,4.6,0.54,5.98,1.62
		c1.38,1.08,2.07,2.89,2.07,5.42c0,2.53-0.69,4.34-2.07,5.42c-1.38,1.08-3.37,1.62-5.98,1.62H31.08c-9.77,0-17.68,7.92-17.68,17.68
		V100H60.8c4.92,0,9.21-0.73,12.86-2.18c3.65-1.45,6.67-3.52,9.06-6.21s4.17-5.93,5.37-9.73c1.19-3.8,1.79-8.05,1.79-12.75
		c0-4.7-0.6-8.94-1.79-12.75C87.36,54.11,86.43,52.02,85.28,50.13z"/>
	<linearGradient id="SVGID_2_" gradientUnits="userSpaceOnUse" x1="29.3699" y1="-1.3615" x2="97.6492" y2="46.4481">
		<stop  offset="0" style="stop-color:#3FCCFF"/>
		<stop  offset="0.9987" style="stop-color:#694FF9"/>
		<stop  offset="1" style="stop-color:#6653F9"/>
	</linearGradient>
	<path class="st1" d="M85.28,50.13c-0.02,0.03,1.71-25.01-25.49-26.04H31.08c-9.77,0-17.68-7.92-17.68-17.68V0.16H60.8
		c4.92,0,9.21,0.73,12.86,2.18c3.65,1.45,6.67,3.54,9.06,6.26s4.17,5.98,5.37,9.78c0.45,1.43,1.26,4.11,1.62,8.37
		C90.28,33.62,89.7,43.01,85.28,50.13z"/>
	<linearGradient id="SVGID_3_" gradientUnits="userSpaceOnUse" x1="29.9125" y1="101.1395" x2="92.5864" y2="57.2548">
		<stop  offset="0" style="stop-color:#3FCCFF"/>
		<stop  offset="1" style="stop-color:#6653F9"/>
		<stop  offset="1" style="stop-color:#6653F9"/>
	</linearGradient>
	<path class="st2" d="M89.7,73.4c-0.36,4.26-1.17,6.95-1.62,8.37c-1.19,3.8-2.98,7.06-5.37,9.78s-5.4,4.81-9.06,6.26
		C70.01,99.27,65.72,100,60.8,100H13.39v-6.24c0-9.77,7.92-17.68,17.68-17.68h28.72c27.2-1.03,25.47-26.07,25.49-26.04
		C89.7,57.15,90.28,66.53,89.7,73.4z"/>
</g>
</svg>
