<?xml version="1.0" encoding="UTF-8"?>
<svg width="21px" height="21px" viewBox="0 0 21 21" version="1.1" xmlns="http://www.w3.org/2000/svg" xmlns:xlink="http://www.w3.org/1999/xlink">
    <title>闹钟</title>
    <g id="defi" stroke="none" stroke-width="1" fill="none" fill-rule="evenodd">
        <g id="DeFi商城3双币挖矿" transform="translate(-40.000000, -685.000000)" fill-rule="nonzero">
            <g id="编组-6" transform="translate(40.000000, 684.000000)">
                <g id="闹钟" transform="translate(0.000000, 1.000000)">
                    <rect id="矩形" fill="#000000" opacity="0" x="0" y="0" width="21" height="21"></rect>
                    <path d="M10.4984047,20 C6.00412253,20 2.34919801,16.2925856 2.34919801,11.7337591 C2.34919801,7.17493263 6.00412253,3.46392574 10.4984047,3.46392574 C14.9926869,3.46392574 18.6476114,7.17134017 18.6476114,11.7301666 C18.6476114,16.2889931 14.9926869,20 10.4984047,20 Z M10.4984047,4.90090808 C6.78681469,4.90090808 3.76583543,7.96527292 3.76583543,11.7301666 C3.76583543,15.4950604 6.78681471,18.5594252 10.4984047,18.5594252 C14.2099947,18.5594252 17.230974,15.4950604 17.230974,11.7301666 C17.230974,7.9652729 14.2099947,4.90090808 10.4984047,4.90090808 L10.4984047,4.90090808 Z M12.7756494,14.7621997 C12.5950281,14.7621997 12.4144068,14.6903503 12.2762847,14.5502445 L9.79008602,12.0283405 L9.79008602,8.64783952 C9.79008602,8.25266938 10.1088294,7.92934836 10.4984047,7.92934836 C10.88798,7.92934836 11.2067234,8.25266938 11.2067234,8.64783952 L11.2067234,11.4319928 L13.2785557,13.5335795 C13.4814097,13.7396493 13.5418974,14.0493872 13.4318086,14.3183385 C13.3217198,14.5872898 13.0627391,14.7624781 12.7756494,14.7621997 L12.7756494,14.7621997 Z M18.2899105,5.59425207 C18.1092892,5.59425207 17.928668,5.52240296 17.7905458,5.38229716 L15.6655897,3.22682365 C15.3893454,2.94661209 15.3893454,2.49037019 15.6655897,2.21015866 C15.941834,1.92994712 16.3916164,1.9299471 16.6678607,2.21015866 L18.7928168,4.36563217 C19.0690611,4.64584372 19.0690611,5.10208562 18.7928168,5.38229716 C18.651153,5.52240293 18.4705318,5.59425207 18.2899105,5.59425207 Z M2.70689897,5.77387485 C2.42045348,5.77270521 2.16278028,5.59698578 2.05359851,5.32835866 C1.94441674,5.05973154 2.00513171,4.75086165 2.20753428,4.54525495 L4.3324904,2.38978144 C4.60873469,2.10956989 5.05851708,2.10956989 5.33476135,2.38978144 C5.61100563,2.669993 5.61100565,3.1262349 5.33476135,3.40644646 L3.20980523,5.56191996 C3.06814149,5.70202574 2.88752022,5.77387485 2.70689897,5.77387485 L2.70689897,5.77387485 Z" id="形状" fill="#9D9BA1"></path>
                </g>
            </g>
        </g>
    </g>
</svg>