<?xml version="1.0" encoding="UTF-8"?>
<svg width="20px" height="20px" viewBox="0 0 20 20" version="1.1" xmlns="http://www.w3.org/2000/svg" xmlns:xlink="http://www.w3.org/1999/xlink">
    <title>全部应用-选中</title>
    <g id="defi" stroke="none" stroke-width="1" fill="none" fill-rule="evenodd">
        <g id="DeFi商城3双币挖矿" transform="translate(-45.000000, -756.000000)" fill="#999" fill-rule="nonzero">
            <g id="编组-9" transform="translate(45.000000, 749.000000)">
                <g id="编组-7" transform="translate(0.000000, 3.000000)">
                    <g id="全部应用-选中" transform="translate(0.000000, 4.000000)">
                        <path
                            d="M0,1.46250001 C0,0.674999994 0.674999994,0 1.46250001,0 L7.42500001,0 C8.32500001,0 9,0.674999994 9,1.46250001 L9,7.42500001 C9,8.32500001 8.32500001,9 7.53750001,9 L1.46250001,9 C0.674999994,9 0,8.32500001 0,7.53750001 L0,1.46250001 Z M0,12.4625 C0,11.675 0.674999994,11 1.46250001,11 L7.42500001,11 C8.32500001,11 9,11.675 9,12.4625 L9,18.425 C9,19.325 8.32500001,20 7.53750001,20 L1.46250001,20 C0.674999994,20 0,19.325 0,18.5375 L0,12.4625 Z M11,1.46250001 C11,0.674999994 11.675,0 12.4625,0 L18.425,0 C19.325,0 20,0.674999994 20,1.46250001 L20,7.42500001 C20,8.32500001 19.325,9 18.5375,9 L12.575,9 C11.675,9 11,8.32500001 11,7.53750001 L11,1.46250001 Z M11,12.4810127 C11,11.6835443 11.6835443,11 12.4810127,11 L18.5189873,11 C19.3164557,11 20,11.6835443 20,12.4810127 L20,18.5189873 C20,19.3164557 19.3164557,20 18.5189873,20 L12.4810127,20 C11.6835443,20 11,19.3164557 11,18.5189873 L11,12.4810127 Z"
                            id="形状"></path>
                    </g>
                </g>
            </g>
        </g>
    </g>
</svg>