<?xml version="1.0" encoding="UTF-8"?>
<svg width="64px" height="64px" viewBox="0 0 64 64" version="1.1" xmlns="http://www.w3.org/2000/svg" xmlns:xlink="http://www.w3.org/1999/xlink">
    <title>borrow_least@2x</title>
    <g id="defi" stroke="none" stroke-width="1" fill="none" fill-rule="evenodd">
        <g id="资产3-借贷4当前还款" transform="translate(-30.000000, -958.000000)">
            <g id="borrow_least" transform="translate(30.000000, 958.000000)">
                <circle id="椭圆形" fill-opacity="0.248441256" fill="#40A8CD" cx="32" cy="32" r="32"></circle>
                <g id="image-text" transform="translate(12.000000, 12.000000)" fill-rule="nonzero">
                    <rect id="矩形" fill="#000000" opacity="0" x="0" y="0" width="40" height="40"></rect>
                    <path d="M31.46875,7 C32.8667208,7 34,8.13327923 34,9.53125 L34,31.46875 C34,32.8667208 32.8667208,34 31.46875,34 L9.53125,34 C8.13327923,34 7,32.8667208 7,31.46875 L7,9.53125 C7,8.13327923 8.13327923,7 9.53125,7 L31.46875,7 Z M31.46875,9.53125 L9.53125,9.53125 L9.53125,31.46875 L31.46875,31.46875 L31.46875,9.53125 L31.46875,9.53125 Z M29.78125,24.71875 L29.78125,27.25 L11.21875,27.25 L11.21875,24.71875 L29.78125,24.71875 L29.78125,24.71875 Z M18.8125,12.90625 C19.4838292,12.90625 20.1276626,13.1729345 20.602364,13.647636 C21.0770655,14.1223374 21.34375,14.7661708 21.34375,15.4375 L21.34375,19.65625 C21.34375,21.0542208 20.2104708,22.1875 18.8125,22.1875 L13.75,22.1875 C12.3520292,22.1875 11.21875,21.0542208 11.21875,19.65625 L11.21875,15.4375 C11.21875,14.0395292 12.3520292,12.90625 13.75,12.90625 L18.8125,12.90625 L18.8125,12.90625 Z M29.78125,19.65625 L29.78125,22.1875 L23.03125,22.1875 L23.03125,19.65625 L29.78125,19.65625 Z M18.8125,15.4375 L13.75,15.4375 L13.75,19.65625 L18.8125,19.65625 L18.8125,15.4375 Z" id="形状" fill="#40A8CD"></path>
                </g>
            </g>
        </g>
    </g>
</svg>