<?xml version="1.0" encoding="UTF-8"?>
<svg width="64px" height="64px" viewBox="0 0 64 64" version="1.1" xmlns="http://www.w3.org/2000/svg" xmlns:xlink="http://www.w3.org/1999/xlink">
    <title>borrow_ing@2x</title>
    <g id="defi" stroke="none" stroke-width="1" fill="none" fill-rule="evenodd">
        <g id="资产3-借贷4当前还款" transform="translate(-30.000000, -724.000000)">
            <g id="编组-13" transform="translate(30.000000, 723.000000)">
                <g id="borrow_ing" transform="translate(0.000000, 1.000000)">
                    <circle id="椭圆形" fill-opacity="0.253650158" fill="#8981D0" cx="32" cy="32" r="32"></circle>
                    <g id="inquiry-template" transform="translate(12.000000, 12.000000)" fill-rule="nonzero">
                        <rect id="矩形" fill="#000000" opacity="0" x="0" y="0" width="40" height="40"></rect>
                        <path d="M11.2747674,11.7616023 L11.2747674,30.7004475 L28.3190114,30.7004475 L28.3190114,33.1707317 L12.5219072,33.1707317 C10.5241084,33.1707317 8.87876348,31.6162549 8.78464495,29.6398722 L8.7804878,29.4653055 L8.7804878,11.7616023 L11.2747674,11.7616023 Z M29.7008423,6.82926829 C31.0783949,6.82926829 32.195122,7.93525218 32.195122,9.29955245 L32.195122,26.7167027 C32.195122,28.0810029 31.0783949,29.1869868 29.7008423,29.1869868 L12.9293062,29.1869868 L12.9293062,9.29955245 C12.9293062,7.93525218 14.0460333,6.82926829 15.4235859,6.82926829 L29.7008423,6.82926829 L29.7008423,6.82926829 Z M29.7008423,9.29955245 L15.4235859,9.29955245 L15.4235859,26.7167027 L29.7008423,26.7167027 L29.7008423,9.29955245 L29.7008423,9.29955245 Z M23.3279579,12.1733163 L23.3279579,13.3030597 C23.6971113,13.3936368 24.0163791,13.5352664 24.2840984,13.7304188 C24.6249833,13.9782707 24.9384311,14.3446962 25.228599,14.8255781 L25.454747,15.2010613 L23.5773859,16.1702361 L23.3778435,15.8326306 C23.1067985,15.3764515 22.7908564,15.1738882 22.3950974,15.1738882 C22.1473323,15.1738882 21.957767,15.2356453 21.8114359,15.3575126 C21.6890081,15.4483896 21.6184106,15.5922129 21.6218707,15.7437004 C21.6218707,15.8845066 21.6667677,15.9882585 21.7640446,16.0788356 C21.8812758,16.1867047 22.1523208,16.3382154 22.5663712,16.5185462 L22.9654559,16.6898192 C23.349575,16.8577986 23.6721685,17.0167202 23.9398879,17.1682309 C24.2799413,17.36256 24.5410092,17.5527718 24.7205974,17.7405134 C25.2377447,18.2559794 25.5004755,18.890019 25.5004755,19.6203997 C25.5004755,20.3285478 25.2676761,20.9609406 24.8078972,21.5011093 C24.4181199,21.9586744 23.9065239,22.2987396 23.3312836,22.4826356 L23.3312836,23.7013091 L21.4788653,23.7013091 L21.4788653,22.5485098 C20.8054098,22.4027631 20.2666454,22.1483238 19.8667293,21.7786046 C19.4011304,21.3479518 19.0685598,20.7065013 18.8607032,19.8624875 L18.7576062,19.4425392 L20.8311841,19.0431766 L20.9434266,19.3923101 C21.098072,19.8764858 21.2801544,20.2075039 21.4589111,20.3730129 C21.6418249,20.5286408 21.8979043,20.6093368 22.2446091,20.6093368 C22.5721912,20.6093368 22.8299334,20.5179362 23.0394529,20.3326649 C23.2340067,20.159745 23.3271265,19.9456537 23.3271265,19.6632179 C23.3271265,19.4194832 23.2547924,19.2449165 23.1126184,19.1156383 C22.9681076,18.9997019 22.8127585,18.8976836 22.6486824,18.8109699 C22.43576,18.6943528 22.2174069,18.5877378 21.9943498,18.4914798 L21.5778051,18.3127959 C20.887721,18.0105979 20.4196279,17.7265152 20.1652114,17.4457262 C19.720435,16.9938293 19.4751865,16.3854216 19.4834416,15.754405 C19.4834416,15.444796 19.5383158,15.1533025 19.6488955,14.8766307 C19.7586438,14.6081931 19.9132892,14.3661053 20.1169886,14.1446031 C20.316531,13.9321587 20.560139,13.7485342 20.8469811,13.5920829 C20.9750208,13.5237384 21.1105434,13.4619813 21.2543801,13.4068116 L21.4747082,13.3302328 L21.4747082,12.1733163 L23.3279579,12.1733163 L23.3279579,12.1733163 Z" id="形状" fill="#8F83D2"></path>
                    </g>
                </g>
            </g>
        </g>
    </g>
</svg>