<?xml version="1.0" encoding="UTF-8"?>
<svg width="64px" height="64px" viewBox="0 0 64 64" version="1.1" xmlns="http://www.w3.org/2000/svg" xmlns:xlink="http://www.w3.org/1999/xlink">
    <title>borrow_dollar@2x</title>
    <g id="defi" stroke="none" stroke-width="1" fill="none" fill-rule="evenodd">
        <g id="资产3-借贷4当前还款" transform="translate(-30.000000, -841.000000)">
            <g id="编组-13备份" transform="translate(30.000000, 840.000000)">
                <g id="borrow_dollar" transform="translate(0.000000, 1.000000)">
                    <circle id="椭圆形" fill-opacity="0.252360311" fill="#C97015" cx="32" cy="32" r="32"></circle>
                    <g transform="translate(12.000000, 12.000000)" fill-rule="nonzero">
                        <rect id="矩形" fill="#000000" opacity="0" x="0" y="0" width="40" height="40"></rect>
                        <path d="M21.5993044,7 L21.5993044,9.57853967 L21.7781243,9.60495238 C22.8863037,9.76755557 23.7846006,10.0993651 24.4830895,10.6036825 C25.0993044,11.0493968 25.6920125,11.7072381 26.2612137,12.5730794 L26.3871432,12.7629206 L23.935716,14.0191746 L23.8316143,13.8656508 C22.9702566,12.5945397 21.8645958,11.9573333 20.5247062,11.9573333 C19.6238906,11.9573333 18.8699928,12.2066032 18.2747661,12.6985397 C17.666107,13.2020317 17.358839,13.8351111 17.358839,14.5870476 C17.358839,15.272127 17.6115375,15.8515556 18.1076997,16.3071746 C18.510674,16.6769524 19.253658,17.0970794 20.364356,17.5815873 L21.2122811,17.9414603 C22.2306308,18.3772699 23.0718397,18.7825397 23.7443032,19.1613968 C24.4898057,19.584 25.0480931,19.987619 25.4149676,20.3689524 C26.4744543,21.4172063 27,22.6718095 27,24.1525714 C27,25.6102222 26.523147,26.8937143 25.5694411,28.008 C24.62497,29.1181587 23.3581194,29.8651429 21.7663708,30.2547301 L21.6068602,30.2935238 L21.6068602,33 L19.4895658,33 L19.4895658,30.356254 L19.3115855,30.3290159 C17.4612617,30.0500317 16.0508515,29.4689524 15.0887503,28.5857778 C14.1988486,27.7686349 13.5230271,26.5338412 13.0604462,24.8855238 L13,24.6709206 L15.7872391,24.1360635 L15.8468458,24.3052699 C16.2724874,25.5103492 16.7837611,26.3852699 17.3756296,26.928381 C18.0808347,27.5210159 19.0009594,27.8156825 20.1494363,27.8156825 C21.2651715,27.8156825 22.2012473,27.4830476 22.9551451,26.820254 C23.7048453,26.1574603 24.0834732,25.2982222 24.0834732,24.2582222 C24.0834732,23.3230476 23.7644519,22.5645079 23.1364836,21.9966349 C22.8258575,21.7275555 22.3792276,21.4328889 21.7680499,21.0928254 C21.1428194,20.753154 20.5006072,20.4446161 19.8438474,20.168381 L19.2225953,19.9059048 C17.5418566,19.1911111 16.4219237,18.535746 15.8905013,17.9530159 C14.98213,17.0170159 14.532142,15.9101587 14.532142,14.6142857 C14.532142,14.0026667 14.6379228,13.4331429 14.8511634,12.9032381 C15.069775,12.3756721 15.3828366,11.8909216 15.7754857,11.472 C16.1759415,11.0493968 16.6763013,10.6738413 17.2706884,10.3511111 C17.8608779,10.0374603 18.5450947,9.78736505 19.3208203,9.60082538 L19.480331,9.56203176 L19.480331,7 L21.5993044,7 L21.5993044,7 Z" id="路径" fill="#C97015"></path>
                    </g>
                </g>
            </g>
        </g>
    </g>
</svg>