<?xml version="1.0" encoding="UTF-8"?>
<svg width="64px" height="64px" viewBox="0 0 64 64" version="1.1" xmlns="http://www.w3.org/2000/svg" xmlns:xlink="http://www.w3.org/1999/xlink">
    <title>borrow_hot@2x</title>
    <g id="defi" stroke="none" stroke-width="1" fill="none" fill-rule="evenodd">
        <g id="资产3-借贷4当前还款" transform="translate(-30.000000, -1067.000000)">
            <g id="borrow_hot" transform="translate(30.000000, 1067.000000)">
                <circle id="椭圆形" fill-opacity="0.249549279" fill="#C26088" cx="32" cy="32" r="32"></circle>
                <g id="hot" transform="translate(12.000000, 12.000000)" fill-rule="nonzero">
                    <rect id="矩形" fill="#000000" opacity="0" x="0" y="0" width="40" height="40"></rect>
                    <path d="M17.2038303,4 C20.1288853,6.27751632 22.1744039,8.48732021 23.3403863,10.6312417 C24.4448562,12.6626143 24.8882967,14.7406534 24.6707079,16.8653593 L24.6284754,17.2194769 L24.8451462,17.0428756 C25.6226897,16.376931 26.2220953,15.5289297 26.5895292,14.5750325 L26.6850113,14.3124182 L26.9576859,13.496209 C29.8744779,15.4708495 31.333333,18.8152939 31.333333,23.5286272 C31.333333,30.5981695 25.1178208,35.1111107 20.0095327,35.1111107 C14.9003266,35.1111107 9.08418627,32.0869277 8.14313755,25.7576467 C7.20300691,19.4292808 11.102162,16.4746403 13.7582147,12.3524182 C15.5301407,9.60457509 16.6777611,6.8201307 17.2038303,4 Z M18.3982737,9.4792156 C17.7502448,10.9948123 16.9731428,12.4522972 16.0754899,13.8356861 L15.7816991,14.2840522 C15.4833178,14.727843 15.1665746,15.1688887 14.7598579,15.7151632 L13.3074295,17.6458821 C11.0516668,20.7249671 10.4383784,22.4671892 10.8680475,25.3559474 C11.501534,29.6264049 15.4172149,32.3660127 20.0095327,32.3660127 C24.2942884,32.3660127 28.579044,28.4341173 28.579044,23.5286272 C28.579044,21.3316337 28.2301674,19.5820913 27.5471037,18.2223527 C27.2551491,18.5554246 26.9365696,18.8701959 26.5913654,19.1648364 L20.9524177,23.7738559 L21.898975,16.8488887 C22.1257448,15.1908495 21.8108378,13.580392 20.9193662,11.9397385 C20.4511371,11.0786927 19.7855172,10.1764705 18.9206705,9.24039208 L18.6250434,8.92745091 L18.3982737,9.4792156 L18.3982737,9.4792156 Z" id="形状" fill="#C26088"></path>
                </g>
            </g>
        </g>
    </g>
</svg>