<?xml version="1.0" encoding="UTF-8"?>
<svg width="60px" height="60px" viewBox="0 0 60 60" version="1.1" xmlns="http://www.w3.org/2000/svg" xmlns:xlink="http://www.w3.org/1999/xlink">
    <title>编组 6</title>
    <g id="defi" stroke="none" stroke-width="1" fill="none" fill-rule="evenodd">
        <g id="资产修改" transform="translate(-34.000000, -686.000000)">
            <g id="编组-5备份" transform="translate(28.000000, 680.000000)">
                <g id="编组-8" transform="translate(6.000000, 0.000000)">
                    <g id="编组-6" transform="translate(0.000000, 6.000000)">
                        <circle id="椭圆形" fill="#F5A601" cx="30" cy="30" r="30"></circle>
                        <g id="比特币" transform="translate(10.000000, 11.000000)" fill-rule="nonzero">
                            <rect id="矩形" fill="#000000" opacity="0" x="0" y="0" width="39" height="39"></rect>
                            <path d="M10.8885165,24.2821252 C10.8448954,24.461285 10.819969,24.5663097 10.5707051,24.5045305 L7.72909685,23.8002471 L7,26.7038715 L12.2407731,28.0012356 L11.1814016,32.2207578 L13.9793886,32.9126853 L15.0387601,28.6931631 L16.7773757,29.1256178 L15.7180042,33.3389621 L18.3788961,34 L19.4444992,29.7804778 L21.4448419,30.2808896 C22.7784036,30.6083196 27.8322288,30.6700988 28.9227583,26.2899506 C29.6423526,23.8784733 28.5915639,21.2933242 26.3864983,20.0502471 C26.3864983,20.0502471 29.5022968,19.1050247 29.9385086,16.2755354 C30.3747204,13.4460461 28.3868409,12.1301483 27.2339955,11.4073311 C26.3271521,10.8880433 25.3632771,10.473478 24.3612293,10.1717463 L25.4704535,5.7607084 L22.9092672,5.14291598 L21.8125061,9.52924217 L19.7560791,9.02265239 L20.8777665,4.61779242 L18.2854222,4 L17.1761979,8.40485997 L11.7547085,7.06425041 L11.0941592,9.65897858 L14.066631,10.3941516 C14.3657477,10.4682867 14.3283581,10.6165568 14.3034317,10.7154036 L10.8885165,24.2821252 Z M19.0892982,11.6359143 L22.2487179,12.4205107 C22.7908668,12.556425 25.3146636,13.6560956 24.7413567,15.8739703 C24.4521568,17.1395169 23.2738109,18.0058202 21.968296,17.9126853 C21.710692,17.9121629 21.4538321,17.8852489 21.2018096,17.8323723 L17.7183468,16.9674629 L19.0892982,11.6359143 Z M17.0889556,19.7475288 L22.0243804,20.9831137 C22.7433797,21.1752226 23.3510024,21.6521019 23.704605,22.3018009 C24.0582077,22.9515 24.1266481,23.7167992 23.8938595,24.4180395 C23.4514161,26.1849259 21.7003373,26.5741351 20.8341453,26.5741351 C20.7063566,26.5780053 20.5785971,26.565547 20.4540179,26.5370675 L15.6868462,25.3632619 L17.0889556,19.7475288 Z" id="形状" fill="#100F15"></path>
                        </g>
                    </g>
                </g>
            </g>
        </g>
    </g>
</svg>