<?xml version="1.0" encoding="UTF-8"?>
<svg width="257px" height="182px" viewBox="0 0 257 182" version="1.1" xmlns="http://www.w3.org/2000/svg" xmlns:xlink="http://www.w3.org/1999/xlink">
    <title>certification@2x</title>
    <defs>
        <linearGradient x1="99.9617978%" y1="50.0001429%" x2="-0.0379774427%" y2="50.0000714%" id="linearGradient-1">
            <stop stop-color="#FFEBD8" stop-opacity="0.0757459094" offset="0%"></stop>
            <stop stop-color="#FFF9F3" stop-opacity="0.226175802" offset="100%"></stop>
        </linearGradient>
        <linearGradient x1="99.9617978%" y1="50.0001429%" x2="-0.0379774427%" y2="50.0000714%" id="linearGradient-2">
            <stop stop-color="#524E4E" offset="0%"></stop>
            <stop stop-color="#4C4949" offset="100%"></stop>
        </linearGradient>
        <linearGradient x1="99.962069%" y1="50%" x2="-0.0379310345%" y2="50%" id="linearGradient-3">
            <stop stop-color="#FFEBD8" offset="0%"></stop>
            <stop stop-color="#FFF9F3" offset="100%"></stop>
        </linearGradient>
        <linearGradient x1="50%" y1="-100%" x2="50%" y2="250%" id="linearGradient-4">
            <stop stop-color="#FEF7F2" stop-opacity="0.55" offset="0%"></stop>
            <stop stop-color="#FDECDC" offset="100%"></stop>
        </linearGradient>
        <linearGradient x1="49.8666726%" y1="-6.76105572e-05%" x2="49.8666726%" y2="95.9835326%" id="linearGradient-5">
            <stop stop-color="#FFC959" offset="0%"></stop>
            <stop stop-color="#F6A702" offset="100%"></stop>
        </linearGradient>
        <linearGradient x1="49.8666726%" y1="-6.76105572e-05%" x2="49.8666726%" y2="95.9835326%" id="linearGradient-6">
            <stop stop-color="#FFC959" offset="0%"></stop>
            <stop stop-color="#F6A702" offset="100%"></stop>
        </linearGradient>
        <linearGradient x1="49.8666726%" y1="-6.76105572e-05%" x2="49.8666726%" y2="95.9835326%" id="linearGradient-7">
            <stop stop-color="#FFC959" offset="0%"></stop>
            <stop stop-color="#F6A702" offset="100%"></stop>
        </linearGradient>
    </defs>
    <g id="新增" stroke="none" stroke-width="1" fill="none" fill-rule="evenodd">
        <g id="24DeFi商城5认购2（立即购买）" transform="translate(-233.000000, -592.000000)">
            <g id="certification" transform="translate(233.000000, 592.000000)">
                <path d="M39.1031128,86.9674287 C49.9790992,89.0005641 79.8880616,92.389123 98.9210376,94.4222583 C154.660603,91.9373603 264.236166,94.2867159 256.622975,123.563865 C247.106487,160.160708 163.497342,179.136637 98.9210376,181.847484 C34.3448688,184.558332 4.43590642,150.672743 0.357408834,116.786747 C-3.72108332,82.901158 28.2271265,84.9342934 39.1031128,86.9674287 Z" id="路径" fill-opacity="0.0497995657" fill="#EBEBEB" fill-rule="nonzero"></path>
                <path d="M49,9.5 C49,4.25329929 53.2608219,0 58.5168325,0 L160.483167,0 C165.739178,0 170,4.25329929 170,9.5 L170,19 L58.5168325,19 C53.2608219,19 49,14.7467143 49,9.5 L49,9.5 Z" id="路径" fill="url(#linearGradient-1)" fill-rule="nonzero"></path>
                <path d="M49,15.7857143 L49,9 C49.0655025,9.35033286 49.1240741,9.68621214 49.1804715,10.0091036 C49.6097708,12.4667536 49.9076574,14.1726143 52.0536102,15.7857143 L201.20514,15.7857143 C204.957262,15.7857143 208,18.8238143 208,22.5714286 L208,116.214286 C208,119.9619 204.957262,123 201.20514,123 L55.7948602,123 C52.0421948,123 49,119.9619 49,116.214286 L49,16.4642857 L49,15.7857143 Z" id="路径" fill="url(#linearGradient-2)"></path>
                <path d="M169,56.7391304 C169,53.0172435 172.011069,50 175.724138,50 L208,50 L208,81 L175.724138,81 C172.011069,81 169,77.9827565 169,74.2608696 L169,56.7391304 Z" id="路径" fill="url(#linearGradient-3)" fill-rule="nonzero" opacity="0.0759393601"></path>
                <circle id="椭圆形" fill="#FFFFFF" fill-rule="nonzero" opacity="0.172328404" cx="186" cy="66" r="6"></circle>
                <line x1="49" y1="103.5" x2="208" y2="103.5" id="路径" stroke="url(#linearGradient-4)" stroke-width="2" stroke-dasharray="4"></line>
                <path d="M85.2545624,71.8192209 C85.950665,72.5159942 85.2545624,73.2127675 85.2545624,73.9095408 L85.2545624,76 L90.1272812,76 C89.1990979,74.8386183 87.8997526,72.3767789 90.1272812,71.8192209 C95,70.4258137 95,61.3679002 95,59.9742143 L95,59.9740749 C95,58.5805284 81.7740489,53.006342 81.0779462,62.0643948 C80.3818435,71.1224476 84.5584597,71.1224476 85.2545624,71.8192209 Z" id="路径" fill="#FFE6D5" fill-rule="nonzero"></path>
                <path d="M85.9091358,53.1335497 C81.0904726,53.8382962 79.0253313,60.8857607 79.0253313,61.5905071 C78.7783404,62.6522781 80.4020922,63 81.0904726,63 C82.4672335,63 84.5323749,60.8857607 85.9091358,61.1500406 C87.2858967,61.4143205 90.727799,63 92.1045599,63 C93.4813208,63 97.6116035,63 96.923223,58.7715213 C96.2348426,54.5430426 90.727799,52.4288033 85.9091358,53.1335497 Z" id="路径" fill="#8D8D8D" fill-rule="nonzero"></path>
                <path d="M61,146.281854 C61,143.489919 62.9047143,140.929714 63.8571429,140 L66,140.697984 L66,143.489919 C66,144.187903 65.8571429,145.723467 65.2857143,146.281854 C64.5714286,146.979838 61,149.771773 61,146.281854 Z" id="路径" fill="#78858E" fill-rule="nonzero"></path>
                <path d="M53.3837085,126.641291 C56.0832116,119.730709 62.1570935,121.112826 66.2063481,121.112826 C72.28023,121.803884 81.7284908,128.714466 85.7777454,130.096582 C89.0171491,131.202275 95.6758784,131.017901 98.600385,130.78764 C99.0502572,131.478699 101.569838,133.27545 108.048646,134.933989 C116.147155,137.006611 109.398397,140.461902 108.723522,141.15296 C108.048646,141.844018 79.0289877,143.917193 70.9304785,142.535077 C62.8319692,141.15296 50.6842054,133.551873 53.3837085,126.641291 Z" id="路径" fill="#87BFF6" fill-rule="nonzero"></path>
                <path d="M84.3541673,136.311766 C89.8275568,134.975649 106.931899,128.292392 108.98442,128.292392 C111.036941,127.624067 119.247026,127.624067 119.931199,133.638998 C120.615373,139.653395 116.075196,142.246498 111.721115,143.663349 C107.616073,145 66.5656513,145 65.197304,145 C63.8289566,145 63.1447829,140.990046 65.8814777,140.990046 C68.6181724,140.990046 78.8807778,137.648417 84.3541673,136.311766 Z" id="路径" fill="#9FCFFE" fill-rule="nonzero"></path>
                <path d="M68.6257283,127.36579 C67.4925245,125.180429 68.1534656,106.878029 68.6257283,98 C70.7504855,98.4553746 75,99.5024358 75,100.048776 C75,100.731701 69.3339807,125.999939 71.458738,125.999939 C73.5834952,125.999939 73.5834952,127.36579 73.5834952,128.048715 C73.5834952,128.731641 70.0422331,130.097491 68.6257283,127.36579 Z" id="路径" fill="#FFE6D5" fill-rule="nonzero"></path>
                <path d="M85.064446,73.2989076 C85.6086108,72.7575812 88.9190372,73.0733098 90.5060938,73.2989076 C108.871791,86.1554106 107.100943,123.382294 106.831037,126.754894 C106.150831,135.252501 87.1050639,131.192552 83.704034,129.839236 C80.3030041,128.48592 72.8207383,123.371603 69.4197085,122.694945 C66.0186786,122.018287 84.38424,73.9755657 85.064446,73.2989076 Z" id="路径" fill="url(#linearGradient-5)" fill-rule="nonzero"></path>
                <rect id="矩形" fill="#C4C4C4" fill-rule="nonzero" x="86" y="93" width="5" height="10" rx="0.5"></rect>
                <path d="M109.014206,110 C111.148857,110 109.347746,101.478261 108.013589,98 L107.34651,98 L102.343422,98.8695652 C102.565826,99.1014957 103.0105,99.8434783 103.0105,100.956522 C106.012353,106.347826 102.343422,104.434783 100.342187,103.73913 C98.3409512,103.043478 92.3372452,100.26087 91.0030883,98.8695652 C89.6689314,97.4782609 88.3347746,98.173913 87.0006177,98.173913 C85.6664608,98.173913 85.6664608,100.26087 87.0006177,100.26087 C88.0679432,100.26087 88.779449,100.72473 89.001853,100.956522 C97.6738728,110 106.345893,110 109.014206,110 Z" id="路径" fill="#FFE6D5" fill-rule="nonzero"></path>
                <path d="M68,98.3473816 C68.5333333,89.5785577 79.3333333,77.7954506 84.6666667,73 C86,73 86,75.0551931 86,76.4253218 C86,77.7954506 78,100.402575 76,101.772703 C74.4,102.868806 68.6666667,99.7175104 68,98.3473816 Z" id="路径" fill="url(#linearGradient-6)" fill-rule="nonzero"></path>
                <path d="M109,97.3880083 C108.45498,88.7167164 96.0557769,77.7421127 90.6055777,73 C89.2430279,73 90.6055777,74.3548893 90.6055777,75.7097787 C90.6055777,77.064668 98.7808765,99.4203423 100.824701,100.775232 C102.459761,101.859143 108.318725,98.7428976 109,97.3880083 Z" id="路径" fill="url(#linearGradient-7)" fill-rule="nonzero"></path>
            </g>
        </g>
    </g>
</svg>