<?xml version="1.0" encoding="UTF-8"?>
<svg width="64px" height="64px" viewBox="0 0 64 64" version="1.1" xmlns="http://www.w3.org/2000/svg" xmlns:xlink="http://www.w3.org/1999/xlink">
    <title>defi_wallet@2x</title>
    <g id="defi" stroke="none" stroke-width="1" fill="none" fill-rule="evenodd">
        <g id="资产3-Defi" transform="translate(-32.000000, -567.000000)">
            <g id="defi_wallet" transform="translate(32.000000, 567.000000)">
                <circle id="椭圆形" fill-opacity="0.252696644" fill="#4D16EF" cx="32" cy="32" r="32"></circle>
                <g transform="translate(15.000000, 15.000000)" fill-rule="nonzero">
                    <rect id="矩形" fill="#000000" opacity="0" x="0" y="0" width="35" height="35"></rect>
                    <path d="M30.8191288,11.2419209 L30.8191288,27.4152546 C30.8191288,27.562895 30.6955492,27.6836916 30.5445076,27.6836916 L4.45549242,27.6836916 C4.30445076,27.6836916 4.18087121,27.562895 4.18087121,27.4152546 L4.18087121,11.2419209 C4.18087121,11.0942805 4.30445076,10.9734838 4.45549242,10.9734838 L30.5445076,10.9734838 C30.6955492,10.9734838 30.8191288,11.0942805 30.8191288,11.2419209 Z M30.5445076,8.9602058 L4.45549242,8.9602058 C3.16477273,8.9602058 2.12121212,9.98026668 2.12121212,11.2419209 L2.12121212,27.4152546 C2.12121212,28.6769088 3.16477273,29.6969697 4.45549242,29.6969697 L30.5445076,29.6969697 C31.8352273,29.6969697 32.8787879,28.6769088 32.8787879,27.4152546 L32.8787879,11.2419209 C32.8787879,9.98026668 31.8352273,8.9602058 30.5445076,8.9602058 Z M6.89275568,8.9602058 L7.43169981,6.47045195 C7.4625947,6.32952249 7.58960701,6.25570229 7.69945549,6.25570229 C7.72005208,6.25570229 7.73721591,6.25905775 7.7578125,6.26241322 L20.8091856,8.9602058 L30.5445076,8.9602058 C30.6612216,8.9602058 30.7745028,8.97027219 30.8843513,8.98369405 L8.18347538,4.29275619 C8.02213542,4.25920156 7.85736269,4.24242424 7.69945549,4.24242424 C6.61813447,4.24242424 5.6500947,4.98062619 5.41666667,6.05437449 L4.78847064,8.9602058 L6.89275568,8.9602058 Z M30.7950994,21.0633623 L23.8609138,21.0633623 C22.7006392,21.0633623 21.7566288,20.1406099 21.7566288,19.0064633 C21.7566288,17.8723166 22.7006392,16.9495642 23.8609138,16.9495642 L30.7950994,16.9495642 L30.7950994,21.0633623 Z M23.8609138,14.9396416 C21.5609612,14.9396416 19.6969697,16.7616582 19.6969697,19.0098187 C19.6969697,21.2579792 21.5609612,23.0799958 23.8609138,23.0799958 L32.8547585,23.0799958 L32.8547585,14.9396416 L23.8609138,14.9396416 Z M24.3243371,17.8488284 C23.668679,17.8488284 23.1366004,18.3689252 23.1366004,19.0098187 C23.1366004,19.6507122 23.668679,20.1708091 24.3243371,20.1708091 C24.9799953,20.1708091 25.5120739,19.6507122 25.5120739,19.0098187 C25.5120739,18.3689252 24.9799953,17.8488284 24.3243371,17.8488284 Z" id="形状" fill="#7F72CA"></path>
                </g>
            </g>
        </g>
    </g>
</svg>