<?xml version="1.0" encoding="UTF-8"?>
<svg width="64px" height="64px" viewBox="0 0 64 64" version="1.1" xmlns="http://www.w3.org/2000/svg" xmlns:xlink="http://www.w3.org/1999/xlink">
    <title>defi_deg@2x</title>
    <g id="defi" stroke="none" stroke-width="1" fill="none" fill-rule="evenodd">
        <g id="资产3-Defi" transform="translate(-32.000000, -809.000000)">
            <g id="defi_deg" transform="translate(32.000000, 809.000000)">
                <circle id="椭圆形" fill-opacity="0.252696644" fill="#16E4EF" cx="32" cy="32" r="32"></circle>
                <path d="M43.9302579,38.1798782 L43.9237195,38.0425495 C43.8758627,37.4547108 43.8024185,36.8692369 43.7035961,36.2877938 C43.68834,36.2093202 43.6818016,36.1286668 43.6665456,36.0480134 C43.5681057,35.521433 43.4474017,34.9992609 43.3047584,34.4829021 C43.2720668,34.3586523 43.248093,34.2322227 43.2110425,34.1101527 C43.073512,33.6481853 42.9186623,33.1915535 42.7468216,32.7412252 C42.6857973,32.5777386 42.6334907,32.4077126 42.5681075,32.244226 C42.4046495,31.8409592 42.2128587,31.4485914 42.0210679,31.0540438 C41.9273519,30.8600398 41.8445332,30.661676 41.744279,30.467672 C41.5503088,30.1014621 41.3280058,29.7483311 41.1100618,29.3930203 C40.9880131,29.1924768 40.879041,28.9853938 40.7482746,28.7892099 C40.5041772,28.423 40.2317472,28.0720488 39.963676,27.7210977 C39.8743189,27.6055672 39.7980385,27.485677 39.706502,27.3723263 L41.3367236,25.7418203 L38.2549945,22.6595536 L36.6225935,24.2900596 C33.5463322,21.8201015 29.7909021,20.3458 25.8561569,20.0633869 C25.1522261,20.0073981 24.445838,19.9884802 23.7399201,20.0067116 C27.5641145,24.5250473 30.3218334,27.4903303 32.0130766,28.9025606 L20,40.9177333 L23.081729,44 L35.0948057,31.9848273 C36.5068952,33.6768412 39.4680285,36.3790925 43.9782056,40.0915812 C43.9825644,39.9324542 43.9673084,39.7733273 43.9673084,39.6120206 L44,39.6120206 C44,39.13246 43.9651289,38.6550792 43.9302579,38.1798782 Z" id="路径" fill="#3EACCF" fill-rule="nonzero"></path>
            </g>
        </g>
    </g>
</svg>