<?xml version="1.0" encoding="UTF-8"?>
<svg width="64px" height="64px" viewBox="0 0 64 64" version="1.1" xmlns="http://www.w3.org/2000/svg" xmlns:xlink="http://www.w3.org/1999/xlink">
    <title>defi_pool@2x</title>
    <g id="defi" stroke="none" stroke-width="1" fill="none" fill-rule="evenodd">
        <g id="资产3-Defi" transform="translate(-32.000000, -930.000000)">
            <g id="defi_pool" transform="translate(32.000000, 930.000000)">
                <circle id="椭圆形" fill-opacity="0.252696644" fill="#EF166B" cx="32" cy="32" r="32"></circle>
                <g id="游泳池" transform="translate(16.000000, 16.000000)" fill="#F7697A" fill-rule="nonzero">
                    <rect id="矩形" opacity="0" x="0" y="0" width="32" height="32"></rect>
                    <path d="M2.62493652,25.9703798 C3.85694048,25.9703798 4.53852084,25.3567388 5.13986638,24.8153061 C5.70310837,24.3082108 6.14798006,23.9076611 7.05332284,23.9076611 C7.88664608,23.9076611 8.21519326,24.2485941 8.66994244,24.7204205 C9.20658867,25.2773034 9.87448756,25.9703798 11.3606537,25.9703798 C12.8044328,25.9703798 13.5429767,25.3062445 14.1363307,24.7726814 C14.673808,24.2893878 15.0983174,23.9076611 16.0354344,23.9076611 C16.9609158,23.9076611 17.329005,24.2647831 17.8384801,24.7591264 C18.3946256,25.2987924 19.0868187,25.9703798 20.5340821,25.9703798 C21.9587775,25.9703798 22.7289678,25.3402929 23.4084703,24.7844056 C24.0072266,24.2945593 24.4801965,23.9076932 25.3985814,23.9076932 C26.343658,23.9076932 26.7179167,24.313832 27.1917815,24.8280903 C27.6608196,25.3370165 28.2445198,25.9703798 29.3749357,25.9703798 C29.7200732,25.9703798 29.9999361,25.6891919 29.9999361,25.3423486 C29.9999361,24.9955053 29.7201052,24.7143175 29.3749357,24.7143175 C28.8165845,24.7143175 28.5568922,24.4606574 28.1089518,23.9746014 C27.594426,23.4163051 26.8897023,22.6516309 25.3985814,22.6516309 C24.0356764,22.6516309 23.2831634,23.2671991 22.6192922,23.8103664 C22.0019317,24.3154381 21.5143214,24.7143175 20.5340821,24.7143175 C19.5918185,24.7143175 19.2011933,24.3353531 18.7067422,23.8555607 C18.1538892,23.319171 17.4658837,22.6516309 16.0354344,22.6516309 C14.6207124,22.6516309 13.8899363,23.3087316 13.3027837,23.8367378 C12.7575066,24.3270017 12.3268279,24.7143175 11.3606537,24.7143175 C10.4040373,24.7143175 10.0533377,24.3503858 9.56793304,23.8466632 C9.05481383,23.3142565 8.41622783,22.6516309 7.0533548,22.6516309 C5.66992759,22.6516309 4.91354666,23.3326618 4.30577593,23.8798442 C3.78792576,24.3460815 3.37892,24.7143175 2.62500043,24.7143175 C2.27983092,24.7143175 2,24.9955053 2,25.3423486 C2,25.689192 2.27976697,25.9703798 2.62493652,25.9703798 Z M29.3749357,28.7439377 C28.8165845,28.7439377 28.5568922,28.4902776 28.1089518,28.0042216 C27.594426,27.445861 26.8897023,26.6811869 25.3985814,26.6811869 C24.0356764,26.6811869 23.2831634,27.2968193 22.6192922,27.8399866 C22.0019317,28.3450583 21.5143214,28.7439377 20.5340821,28.7439377 C19.5918185,28.7439377 19.2012572,28.3649733 18.7067422,27.8851809 C18.1538892,27.3487912 17.4658837,26.6811869 16.0354344,26.6811869 C14.6207124,26.6811869 13.8899363,27.3382876 13.3027837,27.8662937 C12.7575066,28.3566218 12.3268279,28.7439377 11.3606537,28.7439377 C10.4040373,28.7439377 10.0533377,28.380006 9.56793304,27.8762834 C9.05481383,27.3438124 8.41622783,26.6811869 7.0533548,26.6811869 C5.66992759,26.6811869 4.91354666,27.3622178 4.30577593,27.9094002 C3.78792576,28.3756375 3.37888801,28.7439377 2.62500043,28.7439377 C2.27983092,28.7439377 2,29.0251255 2,29.3719688 C2,29.7188121 2.27983089,30 2.62500043,30 C3.85700439,30 4.53858476,29.3863269 5.13993029,28.8448942 C5.70317228,28.3377989 6.14804398,27.9372492 7.05338676,27.9372492 C7.88671,27.9372492 8.21525717,28.2781822 8.6699744,28.7500728 C9.20665261,29.3069558 9.87448756,30 11.3607176,30 C12.8044967,30 13.5430406,29.3358969 14.1364585,28.8023338 C14.673872,28.3189759 15.0984452,27.9372492 16.0354983,27.9372492 C16.9609797,27.9372492 17.3290689,28.2943712 17.838544,28.7887145 C18.3946895,29.3283805 19.0868826,30 20.534146,30 C21.9588734,30 22.7290317,29.3699452 23.4085342,28.8140259 C24.0072905,28.3241796 24.4802604,27.9372492 25.3986453,27.9372492 C26.3437219,27.9372492 26.7179806,28.3434522 27.1918455,28.8576463 C27.6608515,29.3665725 28.2445837,30 29.3749996,30 C29.7201371,30 30,29.7188122 30,29.3719689 C30,29.0251255 29.7200732,28.7439377 29.3749357,28.7439377 Z M10.5341712,22.5116473 C10.8793087,22.5116473 11.1575094,22.2304595 11.1575094,21.8836162 L11.1575094,18.8539891 L22.0259701,18.8539891 L22.0259701,21.8836162 C22.0259701,22.2304273 22.3041708,22.5116473 22.6493083,22.5116473 C22.9944459,22.5116473 23.2726465,22.2304595 23.2726465,21.8836162 L23.2726465,9.98195712 C23.2726465,8.05051724 23.857146,6.3270613 24.9104277,5.1290418 C25.9876839,3.90371937 27.5068071,3.25606229 29.2952123,3.25606229 C29.6403818,3.25606229 29.9198291,2.97487447 29.9198291,2.62803114 C29.9198291,2.28118785 29.639263,2 29.2940935,2 C27.1369917,2 25.2968334,2.79445039 23.9754204,4.29742734 C22.7201771,5.72517673 22.0259382,7.74398592 22.0259382,9.98195715 L22.0259382,10.0206952 L11.1574774,10.0206952 L11.1574774,9.98195715 C11.1574774,8.05051728 11.7373737,6.32706133 12.7906554,5.12904183 C13.8679117,3.9037194 15.3824317,3.25606232 17.1708369,3.25606232 C17.5160064,3.25606232 17.796093,2.9748745 17.796093,2.62803118 C17.796093,2.28118789 17.5167416,2 17.1716041,2 C15.0145023,2 13.1768054,2.79445042 11.8553924,4.29742737 C10.6001491,5.72517676 9.91083293,7.74398595 9.91083293,9.98195719 L9.91083293,21.8836162 C9.91083293,22.2304594 10.1890336,22.5116473 10.5341712,22.5116473 Z M22.0259702,11.2734168 L22.0259702,17.6012674 L11.1575094,17.6012674 L11.1575094,11.2734168 L22.0259702,11.2734168 Z" id="形状"></path>
                </g>
            </g>
        </g>
    </g>
</svg>