<?xml version="1.0" encoding="UTF-8"?>
<svg width="32px" height="32px" viewBox="0 0 32 32" version="1.1" xmlns="http://www.w3.org/2000/svg" xmlns:xlink="http://www.w3.org/1999/xlink">
    <title>recharge</title>
    <g id="新增" stroke="none" stroke-width="1" fill="none" fill-rule="evenodd">
        <g id="12资产2-财务（充提记录）" transform="translate(-33.000000, -708.000000)" fill="#FF6464">
            <g id="编组-5" transform="translate(33.000000, 636.000000)">
                <g id="编组-13" transform="translate(0.000000, 65.000000)">
                    <g id="编组-8" transform="translate(0.000000, 0.000000)">
                        <g id="recharge" transform="translate(0.000000, 7.000000)">
                            <path d="M16,0 C24.836556,0 32,7.163444 32,16 C32,24.836556 24.836556,32 16,32 C7.163444,32 0,24.836556 0,16 C0,7.163444 7.163444,0 16,0 Z M16.61377,9.73804757 C14.4634095,8.09801418 11.6996234,7.48046168 9.05263158,8.04855365 C13.1313339,8.92600312 16.1151001,12.4175007 16.3354869,16.5706931 L16.3354869,16.5706931 L13.430127,16.5706931 L18.2940108,23.3578946 L23.1578946,16.5706931 L20.2265939,16.5706931 C20.0847084,13.8755847 18.7641304,11.378081 16.61377,9.73804757 Z" id="形状结合"></path>
                        </g>
                    </g>
                </g>
            </g>
        </g>
    </g>
</svg>