<?xml version="1.0" encoding="UTF-8"?>
<svg width="200px" height="200px" viewBox="0 0 200 200" version="1.1" xmlns="http://www.w3.org/2000/svg" xmlns:xlink="http://www.w3.org/1999/xlink">
    <title>empety@2x</title>
    <g id="defi" stroke="none" stroke-width="1" fill="none" fill-rule="evenodd">
        <g id="个人中心6消息中心2系统通知" transform="translate(-275.000000, -458.000000)" fill-rule="nonzero">
            <g id="empety" transform="translate(275.000000, 458.000000)">
                <rect id="矩形" fill="#000000" opacity="0" x="0" y="0" width="200" height="200"></rect>
                <path d="M20.1005025,174.874372 C20.1005025,180.424972 55.872726,184.924623 100,184.924623 C144.127274,184.924623 179.899497,180.424972 179.899497,174.874372 C179.899497,169.323771 144.127274,164.824121 100,164.824121 C55.872726,164.824121 20.1005025,169.323771 20.1005025,174.874372 Z" id="路径" fill="#F5A600" opacity="0.1"></path>
                <path d="M23.1155779,73.6015649 C23.1155779,75.2986409 24.4122001,76.5964048 26.1077829,76.5964048 C27.8033658,76.5964048 29.0999879,75.2986409 29.0999879,73.6015649 C29.0999879,71.9044889 27.8033658,70.6067249 26.1077829,70.6067249 C24.5119402,70.6067249 23.1155779,72.0043169 23.1155779,73.6015649 Z M180.904523,162.348656 C177.114396,163.346936 176.316475,164.14556 175.418813,167.839196 C174.421412,164.045732 173.62349,163.247108 169.933104,162.348656 C173.62349,161.350376 174.521152,160.551752 175.418813,156.858116 C176.316475,160.551752 177.114396,161.450204 180.904523,162.348656 Z M39.7721858,63.119625 C34.8849176,64.417389 33.887516,65.4156689 32.5908938,70.3072409 C31.2942716,65.4156689 30.2968699,64.417389 25.4096017,63.119625 C30.2968699,61.821861 31.2942716,60.723753 32.5908938,55.932009 C33.7877758,60.823581 34.8849176,61.821861 39.7721858,63.119625 Z M159.460387,45.9492091 C156.468182,46.7478331 155.869741,47.3468011 155.071819,50.3416411 C154.273898,47.3468011 153.675457,46.7478331 150.683252,45.9492091 C153.675457,45.1505851 154.273898,44.5516171 155.071819,41.5567772 C155.77,44.5516171 156.468182,45.1505851 159.460387,45.9492091 Z M172.326868,30.5756973 C164.547135,32.5722573 162.951292,34.2693332 160.856749,42.0559172 C158.861946,34.2693332 157.166363,32.6720853 149.38663,30.5756973 C157.166363,28.5791373 158.762205,26.8820613 160.856749,19.0954774 C162.851552,26.7822333 164.547135,28.4793093 172.326868,30.5756973 Z" id="形状" fill="#F5A600" opacity="0.5"></path>
                <polygon id="路径" fill="#F5A600" opacity="0.2" points="82.4120603 139.730913 82.4120603 140.508997 89.0452261 146.441887 114.472362 134.478846 91.4572864 148.776139 91.4572864 155.778894 95.1758794 152.277517 95.1758794 152.180256 95.1758794 152.277517 98.8944724 155.778894 118.592965 132.436375 118.592965 131.658291"></polygon>
                <path d="M167.739432,107.803725 L167.739432,107.604197 C167.739432,107.40467 167.639669,107.304907 167.639669,107.10538 L167.639669,107.005616 L146.190511,51.0382796 C143.097842,41.5607449 134.318652,35.1758794 124.3423,35.1758794 L75.5579367,35.1758794 C65.5815844,35.1758794 56.8023943,41.5607449 53.7097251,51.0382796 L32.2605675,107.005616 L32.2605675,107.10538 C32.160804,107.304907 32.160804,107.40467 32.160804,107.604197 L32.160804,147.908661 C32.160804,160.578628 42.4364469,170.854271 55.1064144,170.854271 L144.893586,170.854271 C157.563553,170.854271 167.839196,160.578628 167.839196,147.908661 L167.839196,108.003252 C167.739432,107.903488 167.739432,107.903488 167.739432,107.803725 L167.739432,107.803725 Z M59.2964824,53.1333136 C59.2964824,53.1333136 59.2964824,53.0335501 59.3962459,53.0335501 C61.5910435,45.8505764 68.175436,41.1616908 75.5579367,41.1616908 L124.242536,41.1616908 C131.625037,41.1616908 138.20943,45.8505764 140.503991,52.9337866 C140.503991,52.9337866 140.503991,53.0335501 140.603754,53.0335501 L160.456695,104.910582 L114.864765,104.910582 C113.168785,104.910582 111.871859,106.207508 111.871859,107.903488 C111.871859,114.487881 106.484629,119.875111 99.9002365,119.875111 C93.3158439,119.875111 87.9286137,114.487881 87.9286137,107.903488 C87.9286137,106.207508 86.6316879,104.910582 84.935708,104.910582 L39.4435412,104.910582 L59.2964824,53.1333136 Z M161.753621,147.908661 C161.753621,157.286432 154.171593,164.86846 144.793822,164.86846 L55.0066509,164.86846 C45.6288797,164.86846 38.0468519,157.286432 38.0468519,147.908661 L38.0468519,110.996157 L82.2420928,110.996157 C83.6387821,119.476057 91.0212829,125.960686 99.9002365,125.960686 C108.77919,125.960686 116.161691,119.476057 117.55838,110.996157 L161.753621,110.996157 L161.753621,147.908661 Z" id="形状" fill="#F5A600" opacity="0.5"></path>
                <path d="M100,113.567839 C97.1859296,113.567839 94.9748744,111.356784 94.9748744,108.542714 L94.9748744,98.4924623 L49.2462312,98.4924623 L65.7286432,55.4773869 L65.8291457,55.2763819 C67.2361809,51.0552764 71.0552764,48.241206 75.4773869,48.241206 L124.522613,48.241206 C128.944724,48.241206 132.763819,51.0552764 134.170854,55.2763819 L134.271357,55.4773869 L150.753769,98.4924623 L105.025126,98.4924623 L105.025126,108.542714 C105.025126,111.356784 102.81407,113.567839 100,113.567839 L100,113.567839 Z" id="路径" fill="#F5A600" opacity="0.2"></path>
            </g>
        </g>
    </g>
</svg>