<?xml version="1.0" encoding="UTF-8"?>
<svg width="71px" height="70px" viewBox="0 0 71 70" version="1.1" xmlns="http://www.w3.org/2000/svg" xmlns:xlink="http://www.w3.org/1999/xlink">
    <title>home_icon_lend@2x</title>
    <defs>
        <rect id="path-1" x="0" y="0" width="70" height="70"></rect>
        <linearGradient x1="8.79397481%" y1="-11.9652157%" x2="75.1059798%" y2="76.2489789%" id="linearGradient-3">
            <stop stop-color="#F5AE2E" offset="0%"></stop>
            <stop stop-color="#F3B022" offset="100%"></stop>
        </linearGradient>
        <linearGradient x1="100%" y1="50%" x2="0%" y2="50%" id="linearGradient-4">
            <stop stop-color="#56534F" offset="0%"></stop>
            <stop stop-color="#2E2C34" offset="100%"></stop>
        </linearGradient>
        <rect id="path-5" x="-6.09537763" y="6.09537763" width="52.8266061" height="40.6358509" rx="4"></rect>
        <filter x="-78.9%" y="-78.9%" width="257.9%" height="257.9%" filterUnits="objectBoundingBox" id="filter-7">
            <feGaussianBlur stdDeviation="10" in="SourceGraphic"></feGaussianBlur>
        </filter>
        <linearGradient x1="50%" y1="100%" x2="50%" y2="3.061617e-15%" id="linearGradient-8">
            <stop stop-color="#FFFFFF" offset="0%"></stop>
            <stop stop-color="#A79D8B" offset="100%"></stop>
        </linearGradient>
        <path d="M34.512303,35.3118872 L34.512303,37.3118872 L32.512303,37.3118872 L32.512303,35.3118872 L34.512303,35.3118872 Z M34.512303,29.9785539 L34.512303,31.9785539 L32.512303,31.9785539 L32.512303,29.9785539 L34.512303,29.9785539 Z M34.512303,24.6452206 L34.512303,26.6452206 L32.512303,26.6452206 L32.512303,24.6452206 L34.512303,24.6452206 Z" id="path-9"></path>
    </defs>
    <g id="defi" stroke="none" stroke-width="1" fill="none" fill-rule="evenodd">
        <g id="首页" transform="translate(-254.000000, -722.000000)">
            <g id="编组-12" transform="translate(64.000000, 568.000000)">
                <g id="home_icon_lend" transform="translate(190.677107, 154.000000)">
                    <mask id="mask-2" fill="white">
                        <use xlink:href="#path-1"></use>
                    </mask>
                    <g id="矩形"></g>
                    <g id="编组-37" mask="url(#mask-2)">
                        <g transform="translate(7.000000, 5.000000)">
                            <g id="编组-36" stroke-width="1" fill="none" fill-rule="evenodd">
                                <circle id="椭圆形" fill="url(#linearGradient-3)" cx="41" cy="45" r="16"></circle>
                                <g id="编组-35">
                                    <mask id="mask-6" fill="white">
                                        <use xlink:href="#path-5"></use>
                                    </mask>
                                    <use id="矩形" fill="url(#linearGradient-4)" transform="translate(20.317925, 26.413303) rotate(90.000000) translate(-20.317925, -26.413303) " xlink:href="#path-5"></use>
                                    <circle id="椭圆形" fill="#FFC564" opacity="0.580516997" filter="url(#filter-7)" mask="url(#mask-6)" cx="39.5722658" cy="50.4450956" r="19"></circle>
                                </g>
                            </g>
                            <path d="M4.39804522,25.6325253 L9.17929522,16.9958065 L7.30429522,16.9958065 L4.01718585,23.5524471 L3.5367171,16.9958065 L2.49981104,16.9958065 L-2.36562665,17.4674862 L1.72406609,17.912741 L2.6929671,25.6325253 L4.39804522,25.6325253 Z M10.0699202,25.6325253 L11.9039046,16.9958065 L10.1109358,16.9958065 L8.27695147,25.6325253 L10.0699202,25.6325253 Z M14.9039046,25.8551815 C16.0054671,25.8551815 16.9136702,25.5944393 17.628514,25.0729549 C18.3433577,24.5514706 18.784764,23.8961971 18.9527327,23.1071346 C19.1167952,22.3376034 18.9839827,21.7497128 18.5542952,21.3434628 C18.2769515,21.081744 17.8296858,20.8727596 17.2124983,20.7165096 L15.800389,20.3590878 C15.253514,20.222369 14.9039046,20.1032284 14.7515608,20.0016659 C14.5093733,19.8493221 14.4214827,19.6188534 14.487889,19.3102596 C14.5582015,18.9743221 14.7525374,18.7126034 15.0708968,18.5251034 C15.3892562,18.3376034 15.7808577,18.2438534 16.2457015,18.2438534 C16.6636702,18.2438534 16.9976546,18.316119 17.2476546,18.4606503 C17.6226546,18.6794003 17.769139,19.0485409 17.6871077,19.5680721 L19.4214827,19.5680721 C19.5855452,18.6501034 19.3980452,17.9499081 18.8589827,17.4674862 C18.3199202,16.9850643 17.5953108,16.7438534 16.6851546,16.7438534 C15.5953108,16.7438534 14.7144515,16.9997128 14.0425765,17.5114315 C13.3707015,18.0231503 12.9527327,18.6657284 12.7886702,19.4391659 C12.6089827,20.2868221 12.7671858,20.909869 13.2632796,21.3083065 C13.5562483,21.5465878 14.1304671,21.7672909 14.9859358,21.9704159 L15.8589827,22.175494 C16.3707015,22.2926815 16.7339827,22.4274471 16.9488265,22.5797909 C17.1675765,22.7360409 17.2457015,22.956744 17.1832015,23.2419003 C17.081639,23.7301815 16.7593733,24.0641659 16.2164046,24.2438534 C15.9312483,24.3376034 15.5757796,24.3844784 15.1499983,24.3844784 C14.4390608,24.3844784 13.9742171,24.206744 13.7554671,23.8512753 C13.6382796,23.6559628 13.5933577,23.3610409 13.6207015,22.9665096 L11.8980452,22.9665096 C11.706639,23.8649471 11.878514,24.5710018 12.4136702,25.0846737 C12.9488265,25.5983456 13.7789046,25.8551815 14.9039046,25.8551815 Z M21.0328108,25.6325253 L22.0054671,23.8571346 L25.1871077,23.8571346 L25.3687483,25.6325253 L27.3257796,25.6325253 L26.1011702,16.9958065 L24.0621077,16.9958065 L19.1460921,25.6325253 L21.0328108,25.6325253 Z M24.9996077,22.3688534 L22.8082015,22.3688534 L24.6421858,18.9704159 L24.9996077,22.3688534 Z" id="VISA" fill="#FFFFFF" fill-rule="nonzero" transform="translate(12.480076, 21.299517) rotate(-90.000000) translate(-12.480076, -21.299517) "></path>
                            <text id="VISA备份" fill="none" fill-rule="nonzero" transform="translate(9.012303, 42.645221) rotate(-90.000000) translate(-9.012303, -42.645221) " font-family="Helvetica-BoldOblique, Helvetica" font-size="2" font-style="italic" font-weight="bold" letter-spacing="1">
                                <tspan x="4.51230303" y="43.6452206" fill="#FFFFFF">VISA</tspan>
                            </text>
                            <g id="形状结合" fill="none" fill-rule="evenodd">
                                <use fill="#D8D8D8" xlink:href="#path-9"></use>
                                <use fill="url(#linearGradient-8)" xlink:href="#path-9"></use>
                            </g>
                        </g>
                    </g>
                </g>
            </g>
        </g>
    </g>
</svg>