<?xml version="1.0" encoding="UTF-8"?>
<svg width="67px" height="67px" viewBox="0 0 67 67" version="1.1" xmlns="http://www.w3.org/2000/svg" xmlns:xlink="http://www.w3.org/1999/xlink">
    <title>home_vip</title>
    <defs>
        <linearGradient x1="49.867034%" y1="120.222967%" x2="50%" y2="-33.9319811%" id="linearGradient-1">
            <stop stop-color="#FFD735" offset="0%"></stop>
            <stop stop-color="#FAB014" offset="100%"></stop>
        </linearGradient>
        <linearGradient x1="50%" y1="0%" x2="50%" y2="100%" id="linearGradient-2">
            <stop stop-color="#FBD200" offset="0%"></stop>
            <stop stop-color="#F5A600" offset="100%"></stop>
        </linearGradient>
    </defs>
    <g id="图标0326" stroke="none" stroke-width="1" fill="none" fill-rule="evenodd">
        <g id="首页备份" transform="translate(-430.000000, -710.000000)">
            <g id="编组-12" transform="translate(65.500000, 561.000000)">
                <g id="编组-38备份-3" transform="translate(364.500000, 149.000000)">
                    <g id="home_vip" transform="translate(0.000000, 0.000000)">
                        <path d="M33.5,0 C52.0015391,-3.3986776e-15 67,14.9984609 67,33.5 C67,52.0015391 52.0015391,67 33.5,67 C14.9984609,67 2.26578507e-15,52.0015391 0,33.5 C-2.26578507e-15,14.9984609 14.9984609,3.3986776e-15 33.5,0 Z" id="矩形" fill-opacity="0.2" fill="url(#linearGradient-1)"></path>
                        <path d="M35.2486349,19.6941382 C35.3901289,19.8103311 35.5206125,19.9389676 35.6384737,20.0784588 L41.4050518,26.9003988 L47.7660076,22.2695853 C48.7969202,21.5188992 50.1948364,21.4868429 51.2600394,22.189462 C52.3252423,22.8920811 52.8285326,24.1781932 52.5179919,25.4040441 L46.4678946,49.2608696 L20.1411118,49.2608696 L14.0910145,25.4050424 C13.7798757,24.1790283 14.2829331,22.8924222 15.348285,22.189481 C16.413637,21.4865399 17.8119372,21.5185911 18.8429988,22.2695853 L25.2039546,26.9003988 L30.9705326,20.0784588 C31.4861892,19.4679401 32.226789,19.0844377 33.0293286,19.0123592 C33.8318682,18.9402806 34.6305718,19.1855334 35.2496474,19.6941382 L35.2486349,19.6941382 Z M33.3045032,21.9950705 L25.7041635,30.9871742 L17.0386016,24.678327 L22.5125473,46.2661637 L44.0964591,46.2661637 L49.5704048,24.678327 L40.9048429,30.9871742 L33.3045032,21.9950705 Z M40.3924832,40.7419295 L40.3924832,43.9362825 L26.2165232,43.9362825 L26.2165232,40.7419295 L40.3924832,40.7419295 Z" id="形状" fill="url(#linearGradient-2)" fill-rule="nonzero"></path>
                    </g>
                </g>
            </g>
        </g>
    </g>
</svg>