<?xml version="1.0" encoding="UTF-8"?>
<svg width="67px" height="67px" viewBox="0 0 67 67" version="1.1" xmlns="http://www.w3.org/2000/svg" xmlns:xlink="http://www.w3.org/1999/xlink">
    <title>home_recharge</title>
    <defs>
        <linearGradient x1="49.867034%" y1="120.222967%" x2="50%" y2="-33.9319811%" id="linearGradient-1">
            <stop stop-color="#FFD735" offset="0%"></stop>
            <stop stop-color="#FAB014" offset="100%"></stop>
        </linearGradient>
        <linearGradient x1="50%" y1="0%" x2="50%" y2="100%" id="linearGradient-2">
            <stop stop-color="#FBD200" offset="0%"></stop>
            <stop stop-color="#F5A600" offset="100%"></stop>
        </linearGradient>
    </defs>
    <g id="图标0326" stroke="none" stroke-width="1" fill="none" fill-rule="evenodd">
        <g id="首页备份" transform="translate(-83.000000, -561.000000)">
            <g id="编组-12" transform="translate(65.500000, 561.000000)">
                <g id="编组" transform="translate(17.500000, 0.000000)">
                    <path d="M33.5,0 C52.0015391,-3.3986776e-15 67,14.9984609 67,33.5 C67,52.0015391 52.0015391,67 33.5,67 C14.9984609,67 2.26578507e-15,52.0015391 0,33.5 C-2.26578507e-15,14.9984609 14.9984609,3.3986776e-15 33.5,0 Z" id="矩形" fill-opacity="0.2" fill="url(#linearGradient-1)"></path>
                    <g id="wallet" transform="translate(17.000000, 18.000000)" fill="url(#linearGradient-2)" fill-rule="nonzero">
                        <path d="M34,28.3341081 C34,30.1220308 32.5398256,31.5714286 30.7386091,31.5714286 L3.26139089,31.5714286 C1.46017444,31.5714286 0,30.1220308 0,28.3341081 L0,5.39553416 C0,2.41566293 2.43362406,0 5.43565148,0 L24.1582094,0 C25.9594259,0 27.4196003,1.44939776 27.4196003,3.23732049 L27.4185132,5.44301486 L30.7386091,5.44301486 C32.5398256,5.44301486 34,6.89241261 34,8.68033535 L34,28.3341081 L34,28.3341081 Z M30.7386091,8.68033535 L3.26139089,8.68033535 L3.26139089,28.3341081 L30.7386091,28.3341081 L30.737522,22.8619573 L18.6453717,22.8619573 L18.6453717,14.1535652 L30.737522,14.1524861 L30.737522,8.68141446 L30.7386091,8.68033535 Z M30.7386091,17.3898066 L21.9056755,17.3898066 L21.9056755,19.6246368 L30.737522,19.6246368 L30.737522,17.3908857 L30.7386091,17.3898066 Z M24.1582094,3.23732049 L5.43565148,3.23732049 C4.23484051,3.23732049 3.26139089,4.20358566 3.26139089,5.39553416 L3.26030376,5.44301486 L24.1571223,5.44301486 L24.1571223,3.23732049 L24.1582094,3.23732049 Z" id="形状"></path>
                    </g>
                </g>
            </g>
        </g>
    </g>
</svg>