<?xml version="1.0" encoding="UTF-8"?>
<svg width="67px" height="67px" viewBox="0 0 67 67" version="1.1" xmlns="http://www.w3.org/2000/svg" xmlns:xlink="http://www.w3.org/1999/xlink">
    <title>home_invation</title>
    <defs>
        <linearGradient x1="49.867034%" y1="120.222967%" x2="50%" y2="-33.9319811%" id="linearGradient-1">
            <stop stop-color="#FFD735" offset="0%"></stop>
            <stop stop-color="#FAB014" offset="100%"></stop>
        </linearGradient>
        <linearGradient x1="50%" y1="0%" x2="50%" y2="100%" id="linearGradient-2">
            <stop stop-color="#FBD200" offset="0%"></stop>
            <stop stop-color="#F5A600" offset="100%"></stop>
        </linearGradient>
    </defs>
    <g id="图标0326" stroke="none" stroke-width="1" fill="none" fill-rule="evenodd">
        <g id="首页备份" transform="translate(-597.000000, -710.000000)">
            <g id="编组-12" transform="translate(65.500000, 561.000000)">
                <g id="编组-38备份-3" transform="translate(364.500000, 149.000000)">
                    <g id="home_invation" transform="translate(167.000000, 0.000000)">
                        <path d="M33.5,0 C52.0015391,-3.3986776e-15 67,14.9984609 67,33.5 C67,52.0015391 52.0015391,67 33.5,67 C14.9984609,67 2.26578507e-15,52.0015391 0,33.5 C-2.26578507e-15,14.9984609 14.9984609,3.3986776e-15 33.5,0 Z" id="矩形" fill-opacity="0.2" fill="url(#linearGradient-1)"></path>
                        <g id="office-supplies" transform="translate(19.795918, 16.857143)" fill="url(#linearGradient-2)" fill-rule="nonzero">
                            <path d="M26.4765711,21.4807662 C28.0731025,21.4807662 29.367347,22.7876376 29.367347,24.3997452 L29.367347,33.1566821 L23.5857951,30.9674479 L17.8042433,33.1566821 L17.8042433,24.3997452 C17.8042433,22.7876376 19.0984877,21.4807662 20.6950192,21.4807662 L26.4765711,21.4807662 Z M0.695667739,28.2625274 L7.31747182,20.4620426 C8.16061481,20.9942697 9.07120923,21.4282246 10.032874,21.7483393 L2.89073025,30.1627827 L15.8770594,30.1627827 L15.8770594,33.0817617 L2.89073025,33.0817617 C1.76189823,33.0817617 0.736350055,32.4182078 0.264591154,31.3826757 C-0.207167748,30.3471436 -0.0388256348,29.1290571 0.695667739,28.2635004 L7.31747182,20.4620426 L0.695667739,28.2625274 Z M26.4765711,24.4007182 L20.6950192,24.4007182 L20.6950192,28.9445954 L23.5857951,27.8509514 L26.4765711,28.9455685 L26.4765711,24.4007182 Z M13.9498754,0 C19.2717939,0 23.5857951,4.3560896 23.5857951,9.72992992 C23.5857951,15.1037702 19.2717939,19.4598598 13.9498754,19.4598598 C8.62795689,19.4598598 4.31395563,15.1037702 4.31395563,9.72992992 C4.31395563,4.35608964 8.62795689,0 13.9498754,0 Z M13.9498754,2.91897897 C10.2246353,2.91897897 7.20473154,5.96834557 7.20473154,9.7299299 C7.20473154,13.4915142 10.2246353,16.5408808 13.9498754,16.5408808 C17.6751155,16.5408808 20.6950192,13.4915142 20.6950192,9.7299299 C20.6950192,5.96834557 17.6751155,2.91897897 13.9498754,2.91897897 Z" id="形状"></path>
                        </g>
                    </g>
                </g>
            </g>
        </g>
    </g>
</svg>