<?xml version="1.0" encoding="UTF-8"?>
<svg width="49px" height="48px" viewBox="0 0 49 48" version="1.1" xmlns="http://www.w3.org/2000/svg" xmlns:xlink="http://www.w3.org/1999/xlink">
    <title>home_ser@2x</title>
    <g id="defi" stroke="none" stroke-width="1" fill="none" fill-rule="evenodd">
        <g id="首页" transform="translate(-591.000000, -91.000000)" fill-rule="nonzero">
            <g id="编组-4" transform="translate(33.000000, 85.000000)">
                <g id="home_ser" transform="translate(558.500000, 6.000000)">
                    <rect id="矩形" fill="#000000" opacity="0" x="0" y="0" width="48" height="48"></rect>
                    <path d="M43,40.7324104 C43,41.8941059 42.0703518,42.8181818 40.9016511,42.8181818 L34.4737976,42.8181818 C33.3316583,42.8181818 32.3754487,41.8941059 32.3754487,40.7324104 L32.3754487,28.0857714 C32.3754487,26.9504781 33.3050969,26 34.4737976,26 L40.288,26 L40.2887931,24.969443 C40.2887931,16.0570754 33.2183908,8.78000457 24.5,8.78000457 C15.7816092,8.78000457 8.7112069,16.0570754 8.7112069,24.969443 L8.711,26 L14.5262024,26 C15.6683417,26 16.6245513,26.9240759 16.6245513,28.0857714 L16.6245513,40.7324104 C16.6245513,41.8941059 15.6949031,42.8181818 14.5262024,42.8181818 L8.09834889,42.8181818 C6.95620962,42.8181818 6,41.8941059 6,40.7324104 L6,24.969443 C6,14.5035434 14.2931034,6 24.5,6 C34.7068966,6 43,14.5035434 43,24.969443 L43,40.7324104 Z M13.9152907,28.7458256 L8.73582197,28.7458256 L8.73582197,40.1251606 L13.9152907,40.1251606 L13.9152907,28.7458256 Z M40.288,28.745 L35.1112706,28.7458256 L35.1112706,40.1251606 L40.2907394,40.1251606 L40.29,38.515 L40.2887931,38.5151515 L40.288,28.745 Z" id="形状结合" fill="#FFFFFF"></path>
                </g>
            </g>
        </g>
    </g>
</svg>