<?xml version="1.0" encoding="UTF-8"?>
<svg width="67px" height="67px" viewBox="0 0 67 67" version="1.1" xmlns="http://www.w3.org/2000/svg" xmlns:xlink="http://www.w3.org/1999/xlink">
    <title>home_shop</title>
    <defs>
        <linearGradient x1="49.867034%" y1="120.222967%" x2="50%" y2="-33.9319811%" id="linearGradient-1">
            <stop stop-color="#FFD735" offset="0%"></stop>
            <stop stop-color="#FAB014" offset="100%"></stop>
        </linearGradient>
        <linearGradient x1="50%" y1="0%" x2="50%" y2="100%" id="linearGradient-2">
            <stop stop-color="#FBD200" offset="0%"></stop>
            <stop stop-color="#F5A600" offset="100%"></stop>
        </linearGradient>
        <path d="M27.9116716,20.3444248 C29.9042836,20.343884 31.744306,21.4127217 32.7328082,23.144941 C33.7213103,24.8771604 33.7066104,27.0069593 32.6942922,28.7253357 L36,32.0350263 L34.0373909,34 L30.7316831,30.6903094 C28.7162211,31.879055 26.1727202,31.6751976 24.3718083,30.1805757 C22.5708965,28.6859539 21.8991166,26.2213694 22.6920622,24.0180267 C23.4850077,21.8146839 25.572483,20.3455026 27.9116716,20.3444248 L27.9116716,20.3444248 Z M10.9618657,28.2837128 C11.8471848,28.2837128 12.6652534,28.7565939 13.1079129,29.5242265 C13.5505725,30.291859 13.5505725,31.2376214 13.1079129,32.0052539 C12.6652534,32.7728865 11.8471848,33.2457676 10.9618657,33.2457676 C9.59328103,33.2457676 8.48382393,32.1349738 8.48382393,30.7647402 C8.48382393,29.3945066 9.59328103,28.2837128 10.9618657,28.2837128 L10.9618657,28.2837128 Z M27.9116716,23.3216579 C26.9908573,23.3215341 26.139937,23.8133034 25.6794942,24.6116921 C25.2190514,25.4100808 25.2190514,26.393772 25.6794942,27.1921607 C26.139937,27.9905494 26.9908573,28.4823187 27.9116716,28.482195 C29.3348645,28.4820036 30.488489,27.3268341 30.488489,25.9019264 C30.488489,24.4770187 29.3348645,23.3218492 27.9116716,23.3216579 L27.9116716,23.3216579 Z M0.000991247693,0 L2.54445333,0 C4.57479046,0 6.349106,1.37240075 6.86120215,3.3394629 L6.90878055,3.54389958 L7.52234369,6.45067131 L7.53225584,6.45166375 L9.54046094,16.0790426 L11.0342245,23.3216579 L20.8314106,23.3206655 C20.4847803,24.2737162 20.3340731,25.2870672 20.3883367,26.2998832 L11.0342245,26.2988908 C9.6238118,26.2989143 8.40740331,25.3069563 8.12202982,23.9240513 L5.30697432,10.2744308 L5.28814122,10.2784005 L3.99955946,4.15820195 C3.86491634,3.5208643 3.33200735,3.04521176 2.68421489,2.98417979 L2.54544453,2.97723292 L0,2.97723292 L0,0 L2.54346213,0 L0.000991247693,0 Z M32.5872408,6.45067131 C33.4814384,6.45067131 34.3281719,6.85351948 34.8928925,7.54766563 C35.457613,8.24181178 35.6803615,9.15354005 35.4994355,10.0302977 L33.310829,20.6421483 C32.5580385,19.8668239 31.6477368,19.2623836 30.6414824,18.8697023 L32.5872408,9.42790423 L10.1778133,9.42691184 L9.55632039,6.45067131 L32.5872408,6.45067131 Z M27.3169416,14.3899591 L27.3169416,17.367192 L13.4399075,17.367192 L13.4399075,14.3899591 L27.3169416,14.3899591 Z" id="path-3"></path>
    </defs>
    <g id="图标0326" stroke="none" stroke-width="1" fill="none" fill-rule="evenodd">
        <g id="首页备份" transform="translate(-430.000000, -561.000000)">
            <g id="编组-12" transform="translate(65.500000, 561.000000)">
                <g id="编组-38备份" transform="translate(364.500000, 0.000000)">
                    <g id="home_shop" transform="translate(0.000000, 0.000000)">
                        <path d="M33.5,0 C52.0015391,-3.3986776e-15 67,14.9984609 67,33.5 C67,52.0015391 52.0015391,67 33.5,67 C14.9984609,67 2.26578507e-15,52.0015391 0,33.5 C-2.26578507e-15,14.9984609 14.9984609,3.3986776e-15 33.5,0 Z" id="矩形" fill-opacity="0.2" fill="url(#linearGradient-1)"></path>
                        <g id="search-cart" transform="translate(15.000000, 19.000000)" fill-rule="nonzero">
                            <g id="形状">
                                <use fill="#000000" xlink:href="#path-3"></use>
                                <use fill="url(#linearGradient-2)" xlink:href="#path-3"></use>
                            </g>
                        </g>
                    </g>
                </g>
            </g>
        </g>
    </g>
</svg>