<?xml version="1.0" encoding="UTF-8"?>
<svg width="67px" height="67px" viewBox="0 0 67 67" version="1.1" xmlns="http://www.w3.org/2000/svg" xmlns:xlink="http://www.w3.org/1999/xlink">
    <title>home_walfare</title>
    <defs>
        <linearGradient x1="49.867034%" y1="120.222967%" x2="50%" y2="-33.9319811%" id="linearGradient-1">
            <stop stop-color="#FFD735" offset="0%"></stop>
            <stop stop-color="#FAB014" offset="100%"></stop>
        </linearGradient>
        <linearGradient x1="50%" y1="0%" x2="50%" y2="100%" id="linearGradient-2">
            <stop stop-color="#FBD200" offset="0%"></stop>
            <stop stop-color="#F5A600" offset="100%"></stop>
        </linearGradient>
        <path d="M38.3635066,17.0000057 L38.6721475,17.0048688 C40.3644605,17.0761556 41.9087187,17.990802 42.7856809,19.4412674 C43.662643,20.8917328 43.7558209,22.6853495 43.0338843,24.2190321 L49.0882932,24.2190321 C50.6963845,24.2190321 52,25.5238629 52,27.1334531 L52,30.585099 C52,32.1946893 50.6963845,33.49952 49.0882932,33.49952 L48.908738,33.49952 L48.908738,47.085579 C48.908738,48.6951693 47.6051224,50.0000057 45.9970312,50.0000057 L24.0039394,50.0000057 C22.3958481,50.0000057 21.0922326,48.6951693 21.0922326,47.085579 L21.091262,33.49952 L20.9117068,33.49952 C19.3036155,33.49952 18,32.1946893 18,30.585099 L18,27.1334531 C18,25.5238629 19.3036155,24.2190321 20.9117068,24.2190321 L26.4808313,24.2190321 C25.7584625,22.6852591 25.8514166,20.8913186 26.72843,19.4405731 C27.6054434,17.9898276 29.149983,17.0750449 30.842568,17.0038973 L31.1512089,17.0000057 C32.4999596,16.9984617 33.7951549,17.5281896 34.7568725,18.4747084 C35.7187122,17.527775 37.0143791,16.9979969 38.3635066,17.0000057 Z M33.454369,33.49952 L24.0029688,33.49952 L24.0029688,47.085579 L33.454369,47.0846076 L33.454369,33.49952 Z M45.9970312,33.49952 L36.545631,33.49952 L36.545631,47.0846076 L45.9970312,47.0846076 L45.9970312,33.5004915 L45.9970312,33.49952 Z M33.454369,27.1324817 L20.9117068,27.1324817 L20.9117068,30.585099 L21.0902914,30.585099 L21.0902914,30.4966949 L33.4533984,30.4957234 L33.4533984,27.1324817 L33.454369,27.1324817 Z M49.0882932,27.1324817 L36.545631,27.1324817 L36.545631,30.4957234 L48.908738,30.4966949 L48.908738,30.585099 L49.0882932,30.585099 L49.0882932,27.1334531 L49.0882932,27.1324817 Z M31.1512089,19.9144324 L31.0560932,19.9144324 C29.8714659,19.9144324 28.9111358,20.8756577 28.9111358,22.0613892 C28.9111358,23.2471207 29.8714659,24.208346 31.0560932,24.208346 L33.2107562,24.208346 L33.2107562,22.1565936 C33.2107562,21.9040104 33.2301676,21.6562847 33.2641375,21.4143877 C32.9496962,20.5163127 32.1029215,19.9149161 31.1521795,19.9144324 L31.1512089,19.9144324 Z M38.4576518,19.9144324 L38.362536,19.9144324 C37.4110149,19.9148207 36.5634754,20.5165971 36.2486369,21.4153592 C36.2845479,21.6562847 36.3020182,21.9040104 36.3020182,22.1565936 L36.3020182,24.2083461 L38.4566812,24.2083461 C39.5820498,24.2086799 40.5163295,23.3384173 40.5967857,22.214882 L40.6026091,22.0613892 C40.6026091,20.8761913 39.6417459,19.9144324 38.4576518,19.9144324 L38.4576518,19.9144324 Z" id="path-3"></path>
    </defs>
    <g id="图标0326" stroke="none" stroke-width="1" fill="none" fill-rule="evenodd">
        <g id="首页备份" transform="translate(-597.000000, -561.000000)">
            <g id="编组-12" transform="translate(65.500000, 561.000000)">
                <g id="编组-38备份" transform="translate(364.500000, 0.000000)">
                    <g id="home_walfare" transform="translate(167.000000, 0.000000)">
                        <path d="M33.5,0 C52.0015391,-3.3986776e-15 67,14.9984609 67,33.5 C67,52.0015391 52.0015391,67 33.5,67 C14.9984609,67 2.26578507e-15,52.0015391 0,33.5 C-2.26578507e-15,14.9984609 14.9984609,3.3986776e-15 33.5,0 Z" id="矩形" fill-opacity="0.2" fill="url(#linearGradient-1)"></path>
                        <g id="形状" fill-rule="nonzero">
                            <use fill="#000000" xlink:href="#path-3"></use>
                            <use fill="url(#linearGradient-2)" xlink:href="#path-3"></use>
                        </g>
                    </g>
                </g>
            </g>
        </g>
    </g>
</svg>