<?xml version="1.0" encoding="UTF-8"?>
<svg width="67px" height="67px" viewBox="0 0 67 67" version="1.1" xmlns="http://www.w3.org/2000/svg" xmlns:xlink="http://www.w3.org/1999/xlink">
    <title>home_withdraw</title>
    <defs>
        <linearGradient x1="49.867034%" y1="120.222967%" x2="50%" y2="-33.9319811%" id="linearGradient-1">
            <stop stop-color="#FFD735" offset="0%"></stop>
            <stop stop-color="#FAB014" offset="100%"></stop>
        </linearGradient>
        <linearGradient x1="50%" y1="0%" x2="50%" y2="100%" id="linearGradient-2">
            <stop stop-color="#FBD200" offset="0%"></stop>
            <stop stop-color="#F5A600" offset="100%"></stop>
        </linearGradient>
    </defs>
    <g id="图标0326" stroke="none" stroke-width="1" fill="none" fill-rule="evenodd">
        <g id="首页备份" transform="translate(-250.000000, -561.000000)">
            <g id="编组-12" transform="translate(65.500000, 561.000000)">
                <g id="编组-38" transform="translate(17.500000, 0.000000)">
                    <g id="home_withdraw" transform="translate(167.000000, 0.000000)">
                        <path d="M33.5,0 C52.0015391,-3.3986776e-15 67,14.9984609 67,33.5 C67,52.0015391 52.0015391,67 33.5,67 C14.9984609,67 2.26578507e-15,52.0015391 0,33.5 C-2.26578507e-15,14.9984609 14.9984609,3.3986776e-15 33.5,0 Z" id="矩形" fill-opacity="0.2" fill="url(#linearGradient-1)"></path>
                        <g id="packing-labeling" transform="translate(18.000000, 17.000000)" fill="url(#linearGradient-2)" fill-rule="nonzero">
                            <path d="M25.8430172,18.5917729 L33,25.7958865 L25.8430172,33 L23.6959223,30.8387659 L27.2073786,27.3041857 L17.8086632,27.3031934 L17.8086632,24.2469028 L27.1669604,24.2469028 L23.6969081,20.753007 L25.8430172,18.5917729 L25.8430172,18.5917729 Z M26.0076475,0 C27.1276609,0 28.1515572,0.636937091 28.6525765,1.64523692 L31.2334279,6.83993863 C31.4389052,7.25338254 31.5459298,7.70931529 31.5459298,8.17160813 L31.5459298,16.6061763 L28.5884989,16.6061763 L28.5884989,9.9230214 L2.95743092,9.9230214 L2.95743092,28.7767621 L15.7729649,28.7767621 L15.7729649,31.7536685 L2.95743092,31.7536685 C1.32408692,31.7536685 0,30.4208621 0,28.7767621 L0,8.41372984 C0,7.96523966 0.100850802,7.52256621 0.294757251,7.11877555 L2.90419716,1.6809598 C3.39802986,0.652988598 4.43249248,0 5.56687079,0 L26.0076475,0 Z M13.8013443,12.8999278 L13.8013443,15.8768342 L5.91486184,15.8768342 L5.91486184,12.8999278 L13.8013443,12.8999278 Z M5.56687079,2.97690642 L3.66129948,6.94611497 L27.9802539,6.94611497 L26.0076475,2.97690642 L5.56687079,2.97690642 L5.56687079,2.97690642 Z" id="形状"></path>
                        </g>
                    </g>
                </g>
            </g>
        </g>
    </g>
</svg>