<?xml version="1.0" encoding="UTF-8"?>
<svg width="48px" height="48px" viewBox="0 0 48 48" version="1.1" xmlns="http://www.w3.org/2000/svg" xmlns:xlink="http://www.w3.org/1999/xlink">
    <title>home_mail@2x</title>
    <g id="defi" stroke="none" stroke-width="1" fill="none" fill-rule="evenodd">
        <g id="首页" transform="translate(-670.000000, -94.000000)" fill-rule="nonzero">
            <g id="编组-4" transform="translate(33.000000, 85.000000)">
                <g id="编组-3" transform="translate(558.500000, 6.000000)">
                    <g id="home_mail" transform="translate(78.500000, 3.000000)">
                        <rect id="矩形" fill="#000000" opacity="0" x="0" y="0" width="48" height="48"></rect>
                        <path d="M40.3083839,36.7262089 L8.21014492,36.7357843 L8.21014492,17.2913377 L23.3989456,26.901848 C23.9255364,27.2341799 24.5978077,27.2341799 25.1243985,26.901848 L40.3115941,17.2913377 L40.3083839,36.7262089 Z M8.21014492,11.1806363 L8.21496013,11.1918076 L40.3115941,11.1806363 L40.3115941,13.5074586 L24.2608695,23.6621708 L8.21014492,13.5074586 L8.21014492,11.1806363 Z M40.3083839,8.00000369 L8.21496013,8.00000369 C6.44454574,7.99735616 5.00619445,9.42034787 5,11.1806363 L5,36.7357843 C5,38.4896785 6.44296014,39.9180107 8.21496013,39.9180107 L40.3083839,39.9180107 C42.0787966,39.9197772 43.5164287,38.4960727 43.521739,36.7357843 L43.521739,11.1806363 C43.5155456,9.4209716 42.0781721,7.99823694 40.3083839,8.00000369 Z" id="形状" fill="#FFFFFF"></path>
                    </g>
                </g>
            </g>
        </g>
    </g>
</svg>