<?xml version="1.0" encoding="UTF-8"?>
<svg width="67px" height="67px" viewBox="0 0 67 67" version="1.1" xmlns="http://www.w3.org/2000/svg" xmlns:xlink="http://www.w3.org/1999/xlink">
    <title>home_borrow</title>
    <defs>
        <linearGradient x1="49.867034%" y1="120.222967%" x2="50%" y2="-33.9319811%" id="linearGradient-1">
            <stop stop-color="#FFD735" offset="0%"></stop>
            <stop stop-color="#FAB014" offset="100%"></stop>
        </linearGradient>
        <linearGradient x1="50%" y1="0%" x2="50%" y2="100%" id="linearGradient-2">
            <stop stop-color="#FBD200" offset="0%"></stop>
            <stop stop-color="#F5A600" offset="100%"></stop>
        </linearGradient>
        <path d="M35.0562485,16 L35.0562485,19.3719365 L35.2861598,19.4064762 C36.7109619,19.6191111 37.8659151,20.0530159 38.7639722,20.7125079 C39.5562485,21.2953651 40.3183018,22.155619 41.0501319,23.287873 L41.2120413,23.536127 L38.0602063,25.1789207 L37.9263612,24.9781587 C36.8189014,23.3159365 35.3973375,22.4826667 33.6746222,22.4826667 C32.5164308,22.4826667 31.5471336,22.8086349 30.7818422,23.4519365 C29.9992804,24.1103492 29.6042216,24.9382222 29.6042216,25.9215238 C29.6042216,26.8173968 29.9291197,27.5751111 30.5670425,28.1709207 C31.0851523,28.6544762 32.0404174,29.203873 33.4684577,29.8374603 L34.5586471,30.3080635 C35.8679539,30.8779683 36.9495082,31.4079365 37.8141041,31.9033651 C38.7726074,32.456 39.4904054,32.9838095 39.9621012,33.4824762 C41.3242984,34.8532698 42,36.4939048 42,38.4302857 C42,40.3364445 41.3869033,42.0148571 40.16071,43.472 C38.94639,44.923746 37.3175821,45.9005714 35.2710482,46.4100317 L35.0659631,46.4607619 L35.0659631,50 L32.3437275,50 L32.3437275,46.5427936 L32.1148957,46.5071746 C29.7359079,46.1423492 27.9225234,45.3824762 26.6855361,44.2275555 C25.5413768,43.1589841 24.6724634,41.5442539 24.0777165,39.3887619 L24,39.108127 L27.5835932,38.4086984 L27.6602303,38.6299683 C28.2074838,40.2058413 28.8648357,41.3499683 29.6258095,42.0601905 C30.5325018,42.8351746 31.7155193,43.2205079 33.1921324,43.2205079 C34.6266491,43.2205079 35.8301751,42.7855238 36.7994723,41.9187936 C37.7633725,41.0520635 38.2501799,39.9284444 38.2501799,38.5684445 C38.2501799,37.3455238 37.8400096,36.3535873 37.0326217,35.6109841 C36.6332454,35.2591111 36.0590069,34.8737777 35.273207,34.4290793 C34.4693392,33.9848937 33.6436379,33.581421 32.7992324,33.2201905 L32.0004797,32.8769524 C29.8395299,31.9422222 28.3996162,31.0852064 27.7163588,30.3231746 C26.5484528,29.0991746 25.9698968,27.651746 25.9698968,25.9571429 C25.9698968,25.1573333 26.1059007,24.4125714 26.3800672,23.719619 C26.6611393,23.029725 27.0636471,22.3958206 27.5684817,21.848 C28.0833533,21.2953651 28.7266731,20.804254 29.4908851,20.3822222 C30.2497001,19.9720635 31.1294075,19.6450158 32.126769,19.4010793 L32.3318542,19.3503492 L32.3318542,16 L35.0562485,16 L35.0562485,16 Z" id="path-3"></path>
    </defs>
    <g id="图标0326" stroke="none" stroke-width="1" fill="none" fill-rule="evenodd">
        <g id="首页备份" transform="translate(-250.000000, -710.000000)">
            <g id="编组-12" transform="translate(65.500000, 561.000000)">
                <g id="编组-38备份-2" transform="translate(0.000000, 149.000000)">
                    <g id="home_borrow" transform="translate(184.500000, 0.000000)">
                        <path d="M33.5,0 C52.0015391,-3.3986776e-15 67,14.9984609 67,33.5 C67,52.0015391 52.0015391,67 33.5,67 C14.9984609,67 2.26578507e-15,52.0015391 0,33.5 C-2.26578507e-15,14.9984609 14.9984609,3.3986776e-15 33.5,0 Z" id="矩形" fill-opacity="0.2" fill="url(#linearGradient-1)"></path>
                        <g id="路径" fill-rule="nonzero">
                            <use fill="#000000" xlink:href="#path-3"></use>
                            <use fill="url(#linearGradient-2)" xlink:href="#path-3"></use>
                        </g>
                    </g>
                </g>
            </g>
        </g>
    </g>
</svg>