<?xml version="1.0" encoding="UTF-8"?>
<svg width="48px" height="48px" viewBox="0 0 48 48" version="1.1" xmlns="http://www.w3.org/2000/svg" xmlns:xlink="http://www.w3.org/1999/xlink">
    <title>home_bit@2x</title>
    <g id="defi" stroke="none" stroke-width="1" fill="none" fill-rule="evenodd">
        <g id="首页" transform="translate(-33.000000, -199.000000)">
            <g id="home_bit" transform="translate(33.000000, 199.000000)">
                <circle id="椭圆形" fill="#F5A601" cx="24" cy="24" r="24"></circle>
                <g id="比特币" transform="translate(13.000000, 9.000000)" fill="#FFFFFF" fill-rule="nonzero">
                    <path d="M3.71945059,18.9299835 C3.67772599,19.0971993 3.65388336,19.1952224 3.41545704,19.1375618 L0.697396986,18.4802306 L0,21.1902801 L5.01291338,22.4011532 L3.99960152,26.339374 L6.67593696,26.985173 L7.68924883,23.0469522 L9.35227241,23.4505766 L8.33896055,27.3830313 L10.8841615,28 L11.903434,24.0617792 L13.8168053,24.5288303 C15.0923861,24.8344316 19.9264797,24.8920923 20.9695949,20.8039539 C21.6579025,18.5532417 20.6528003,16.1404359 18.5436071,14.9802306 C18.5436071,14.9802306 21.5239361,14.0980231 21.9411821,11.4571664 C22.3584282,8.81630972 20.4569783,7.58813839 19.3542565,6.91350906 C18.4868411,6.42884039 17.5648738,6.04191276 16.6063932,5.76029654 L17.6673903,1.64332784 L15.2175599,1.06672158 L14.1684841,5.16062603 L12.2014669,4.6878089 L13.2743854,0.57660626 L10.7947516,0 L9.73375452,4.11120264 L4.54798206,2.85996705 L3.91615231,5.28171334 L6.75938618,5.96787479 C7.04549776,6.03706755 7.00973381,6.17545305 6.98589118,6.26771005 L3.71945059,18.9299835 Z M11.3502778,7 L14.4620545,7.74918287 C14.996028,7.87896258 17.4817668,8.92899841 16.9171051,11.0467673 C16.6322663,12.2551922 15.4716894,13.0823941 14.1858613,12.9934629 C13.9321419,12.992964 13.6791554,12.9672649 13.4309332,12.9167749 L10,12.0909041 L11.3502778,7 Z M9.34448497,15 L14.0770721,16.0858633 C14.7665217,16.2546935 15.3491722,16.6737872 15.6882423,17.2447592 C16.0273125,17.8157312 16.0929401,18.4882956 15.8697187,19.1045634 C15.445459,20.657348 13.7663467,20.9993949 12.9357537,20.9993949 C12.8132169,21.0027962 12.6907081,20.9918475 12.5712489,20.966819 L8,19.9352489 L9.34448497,15 Z" id="形状"></path>
                </g>
            </g>
        </g>
    </g>
</svg>