<?xml version="1.0" encoding="UTF-8"?>
<svg width="67px" height="67px" viewBox="0 0 67 67" version="1.1" xmlns="http://www.w3.org/2000/svg" xmlns:xlink="http://www.w3.org/1999/xlink">
    <title>home_help</title>
    <defs>
        <linearGradient x1="49.867034%" y1="120.222967%" x2="50%" y2="-33.9319811%" id="linearGradient-1">
            <stop stop-color="#FFD735" offset="0%"></stop>
            <stop stop-color="#FAB014" offset="100%"></stop>
        </linearGradient>
        <linearGradient x1="50%" y1="0%" x2="50%" y2="100%" id="linearGradient-2">
            <stop stop-color="#FBD200" offset="0%"></stop>
            <stop stop-color="#F5A600" offset="100%"></stop>
        </linearGradient>
        <path d="M20.3484104,0.744972582 L20.4995858,0.885347303 L23.3341233,3.71983719 C23.7703721,4.37311964 24.4074682,4.62471433 25.0607616,4.65926813 L25.223815,4.66358739 L29.2407596,4.66358739 C29.3865358,4.66358739 29.5279927,4.67330564 29.6651303,4.69058251 L26.4515746,7.90300441 L25.223815,7.90300441 C23.5284916,7.90300441 21.9465496,7.23676429 20.8645662,5.8308573 L18.4900336,3.45852426 L15.7094873,6.23794406 L15.2386841,6.55108767 C14.8542668,6.80484199 14.5961889,6.96573305 14.319754,7.11690586 L14.031441,7.26699883 C13.2291319,7.66760675 12.4192641,7.90408419 11.5197708,7.90408419 L7.90776016,7.90408419 L7.90776016,11.5106351 C7.90776016,13.1821743 7.25986587,14.7424935 5.89496857,15.8222992 L3.45240708,18.4656635 L6.01158954,21.0248029 C7.13028701,22.141322 7.90776016,23.5645059 7.90776016,25.2036509 L7.90776016,28.8123614 L11.5197708,28.8123614 C13.2161741,28.8123614 14.798116,29.4786015 15.8800994,30.8845085 L18.2535522,33.2568416 L20.8073355,30.704181 C21.9249532,29.5876619 23.3492408,28.8123614 24.9884134,28.8123614 L28.6004241,28.8123614 L28.6004241,25.2036509 C28.6004241,23.5061963 29.268835,21.9253608 30.6758454,20.8433956 L33.1626797,18.3576829 L31.4500791,16.6461909 L33.7403855,14.3559231 L35.8557603,16.4691028 C36.9928148,17.3782992 37.0360077,19.163218 35.7715341,20.3488446 L35.6203588,20.4827405 L32.7836616,23.3161506 C32.1292883,23.7513123 31.8776894,24.3883976 31.8442148,25.04168 L31.8388157,25.2036509 L31.8388157,29.2183684 C31.8388157,30.8078424 30.7471138,31.959995 29.1932474,32.0463795 L29.0031984,32.0517784 L24.9862537,32.0517784 C24.3372796,32.0517784 23.6872257,32.4480671 23.219662,32.8778298 L23.0965621,32.9966084 L20.2609447,35.8289387 C19.1292893,36.960575 17.5624649,37.0070067 16.3951754,35.9703933 L16.2440001,35.8300185 L13.4094625,32.9955286 C12.9732137,32.3422462 12.3350378,32.0906515 11.6817444,32.0560977 L11.5197708,32.0517784 L7.50282623,32.0517784 C5.91224574,32.0517784 4.75791409,30.9600949 4.67152816,29.4062546 L4.66720888,29.2183684 L4.66720888,25.2036509 C4.66720888,24.5546877 4.2698337,23.9046446 3.838984,23.4370888 L3.72128322,23.3150707 L0.886745682,20.4816607 C-0.245989525,19.3500244 -0.29350174,17.7853859 0.744208937,16.618116 L0.886745682,16.4669432 L3.72128322,13.3981355 C4.37565645,12.9629738 4.62833523,12.3258884 4.66288956,11.672606 L4.66720888,11.5106351 L4.66720888,7.49591765 C4.66720888,5.90644368 5.75891077,4.75429106 7.31277722,4.66790659 L7.50174642,4.66250755 L11.518691,4.66250755 C12.0985564,4.66250755 12.6784218,4.34720431 13.2582872,3.97359156 L13.6448641,3.71875741 L16.4804815,0.885347303 C17.6132167,-0.246289026 19.180041,-0.292720704 20.3473306,0.743892793 L20.3484104,0.744972582 Z M31.2557108,7.48943882 L33.5362988,9.7894249 L19.3182585,23.8830486 L12.7788454,17.3437454 L15.0691518,15.0523978 L19.3279769,19.3111513 L31.2557108,7.48943882 L31.2557108,7.48943882 Z" id="path-3"></path>
    </defs>
    <g id="图标0326" stroke="none" stroke-width="1" fill="none" fill-rule="evenodd">
        <g id="首页备份" transform="translate(-83.000000, -710.000000)">
            <g id="编组-12" transform="translate(65.500000, 561.000000)">
                <g id="编组-38备份-2" transform="translate(0.000000, 149.000000)">
                    <g id="home_help" transform="translate(17.500000, 0.000000)">
                        <path d="M33.5,0 C52.0015391,-3.3986776e-15 67,14.9984609 67,33.5 C67,52.0015391 52.0015391,67 33.5,67 C14.9984609,67 2.26578507e-15,52.0015391 0,33.5 C-2.26578507e-15,14.9984609 14.9984609,3.3986776e-15 33.5,0 Z" id="矩形" fill-opacity="0.2" fill="url(#linearGradient-1)"></path>
                        <g id="assessed-badge" transform="translate(15.142857, 15.142857)" fill-rule="nonzero">
                            <g id="形状">
                                <use fill="#000000" xlink:href="#path-3"></use>
                                <use fill="url(#linearGradient-2)" xlink:href="#path-3"></use>
                            </g>
                        </g>
                    </g>
                </g>
            </g>
        </g>
    </g>
</svg>