<?xml version="1.0" encoding="UTF-8"?>
<svg width="38px" height="38px" viewBox="0 0 38 38" version="1.1" xmlns="http://www.w3.org/2000/svg" xmlns:xlink="http://www.w3.org/1999/xlink">
    <title>defi_vip</title>
    <g id="defi" stroke="none" stroke-width="1" fill="none" fill-rule="evenodd">
        <g id="DeFi商城1" transform="translate(-564.000000, -687.000000)" fill-rule="nonzero">
            <g id="编组-9" transform="translate(34.000000, 687.000000)">
                <g id="编组-8" transform="translate(377.000000, 0.000000)">
                    <g id="defi_vip" transform="translate(153.000000, 0.000000)">
                        <rect id="矩形" fill="#000000" opacity="0" x="0" y="0" width="38" height="38"></rect>
                        <path d="M26.6018778,7 C27.4840595,7 28.3278855,7.39215688 28.9032214,8.07843138 L33.2374184,13.1568628 C34.273023,14.372549 34.2538452,16.1764706 33.1798848,17.3529412 L21.7115227,29.9803922 C21.1361869,30.627451 20.3115387,31 19.4677127,31 C18.6047089,31 17.7992387,30.627451 17.2047249,29.9803922 L5.81307423,17.3529412 C4.75829176,16.1764706 4.71993603,14.372549 5.75554064,13.1568628 L10.0705598,8.07843138 C10.6458957,7.39215688 11.4897217,7 12.3910813,7 L26.6018778,7 Z M27.7850893,14.2273398 C27.4760883,13.9274198 26.9932743,13.9274198 26.6842732,14.2085948 L26.6842732,14.2085948 L19.3261869,21.181735 L12.3350393,14.2273398 C12.0260383,13.9274198 11.5432243,13.9274198 11.2342232,14.2085948 C10.9252222,14.5085149 10.9252222,14.9771398 11.2149107,15.2770599 L11.2149107,15.2770599 L18.7468101,22.77506 C18.9013105,22.92502 19.1137487,23 19.3068744,23 C19.5,23 19.6931256,22.92502 19.8476261,22.793805 L19.8476261,22.793805 L27.7657768,15.2958049 C28.0747778,14.9958848 28.0747778,14.5272599 27.7850893,14.2273398 Z" id="形状结合" fill="#F2CB51"></path>
                    </g>
                </g>
            </g>
        </g>
    </g>
</svg>