<?xml version="1.0" encoding="UTF-8"?>
<svg width="34px" height="34px" viewBox="0 0 34 34" version="1.1" xmlns="http://www.w3.org/2000/svg" xmlns:xlink="http://www.w3.org/1999/xlink">
    <title>defi_hot</title>
    <defs>
        <linearGradient x1="50%" y1="100%" x2="50%" y2="3.061617e-15%" id="linearGradient-1">
            <stop stop-color="#E0780E" offset="0%"></stop>
            <stop stop-color="#FDCB0A" offset="100%"></stop>
        </linearGradient>
    </defs>
    <g id="defi" stroke="none" stroke-width="1" fill="none" fill-rule="evenodd">
        <g id="DeFi商城1" transform="translate(-143.000000, -689.000000)" fill-rule="nonzero">
            <g id="编组-9" transform="translate(34.000000, 687.000000)">
                <g id="编组-7" transform="translate(0.000000, 2.000000)">
                    <g id="defi_hot" transform="translate(109.000000, 0.000000)">
                        <rect id="矩形" fill="#000000" opacity="0" x="0" y="0" width="34" height="34"></rect>
                        <path d="M25.2620713,8.51833222 C21.3828782,9.69064292 20.6726686,13.0136992 20.9228822,15.1243129 C18.155546,11.6775196 18.2691795,7.71245423 18.2691795,2 C9.39387437,5.54603688 11.4579283,15.7700311 11.1924947,18.8747515 C8.96012198,16.9386661 8.53829246,12.3126451 8.53829246,12.3126451 C6.1816955,13.5975656 5,17.0291215 5,19.8126201 C5,26.5437078 10.148778,32 16.5,32 C22.851222,32 28,26.5437078 28,19.8126201 C28,15.8124686 25.2285008,13.9672396 25.2620713,8.51833222 Z" id="路径" fill="url(#linearGradient-1)"></path>
                    </g>
                </g>
            </g>
        </g>
    </g>
</svg>