<?xml version="1.0" encoding="UTF-8"?>
<svg width="78px" height="78px" viewBox="0 0 78 78" version="1.1" xmlns="http://www.w3.org/2000/svg" xmlns:xlink="http://www.w3.org/1999/xlink">
    <title>invate_get@2x</title>
    <g id="defi" stroke="none" stroke-width="1" fill="none" fill-rule="evenodd">
        <g id="邀请好友" transform="translate(-55.000000, -2119.000000)" fill-rule="nonzero">
            <g id="编组-14" transform="translate(55.000000, 2115.000000)">
                <g id="invate_get" transform="translate(0.000000, 4.000000)">
                    <rect id="矩形" fill="#000000" opacity="0" x="0" y="0" width="78" height="78"></rect>
                    <path d="M60.3815723,68.1538462 L54.5755376,68.1538462 C73.5549283,46.4915385 74.6283129,32.68 69.0662292,26.0892308 C63.3089847,19.3046154 52.5263489,19.4984615 43.7929018,24.4415385 L33.0102659,24.4415385 C24.2768188,19.5469231 13.0062809,18.9653846 7.7369385,26.0892308 C2.61396672,32.9707692 3.24823942,46.4915385 22.2764203,68.1538462 L16.4703856,68.1538462 C15.1042598,68.1538462 14.0308753,69.22 14.0308753,70.5769231 C14.0308753,71.9338462 15.1042598,73 16.4703856,73 L60.3815723,73 C61.7476981,73 62.8210827,71.9338462 62.8210827,70.5769231 C62.8210827,69.22 61.7476981,68.1538462 60.3815723,68.1538462 Z M28.9118885,68.1538462 C15.2506304,53.8092308 5.83412041,36.3146154 11.5913649,29.1423077 C15.4945815,24.2476923 23.5937559,24.8776923 30.1316437,28.4638462 C27.3018117,40.24 28.9606787,57.3953846 32.6199443,68.1538462 L28.9118885,68.1538462 Z M39.1090419,68.1538462 L37.7429161,68.1538462 C33.8884897,58.5584615 31.9856716,40.6761538 34.8155036,29.3361538 L42.0364543,29.3361538 C44.8662863,40.6276923 42.9634683,58.51 39.1090419,68.1538462 Z M44.2320136,68.1538462 C47.9400694,57.3953846 49.5501463,40.1915385 46.7203142,28.4638462 C53.258202,24.8776923 61.3573765,24.2476923 65.260593,29.1423077 C71.0178375,36.3630769 61.6013275,53.8092308 47.9400694,68.1538462 L44.2320136,68.1538462 Z M38.425979,19.6923077 C41.1094404,19.6923077 43.3049997,17.5115385 43.3049997,14.8461538 C43.3049997,12.1807692 41.1094404,10 38.425979,10 C35.7425176,10 33.5469582,12.1807692 33.5469582,14.8461538 C33.5469582,17.5115385 35.7425176,19.6923077 38.425979,19.6923077 Z" id="形状" fill="#FEA002"></path>
                </g>
            </g>
        </g>
    </g>
</svg>