<?xml version="1.0" encoding="UTF-8"?>
<svg width="48px" height="48px" viewBox="0 0 48 48" version="1.1" xmlns="http://www.w3.org/2000/svg" xmlns:xlink="http://www.w3.org/1999/xlink">
    <title>invate_copy</title>
    <g id="defi" stroke="none" stroke-width="1" fill="none" fill-rule="evenodd">
        <g id="邀请好友" transform="translate(-613.000000, -1167.000000)" fill-rule="nonzero">
            <g id="编组-9" transform="translate(30.000000, 889.000000)">
                <g id="编组-8" transform="translate(52.000000, 214.000000)">
                    <g id="编组-7" transform="translate(0.000000, 46.000000)">
                        <g id="invate_copy" transform="translate(531.000000, 18.000000)">
                            <rect id="矩形" fill="#000000" opacity="0" x="0" y="0" width="48" height="48"></rect>
                            <path d="M19.0216718,4.70588235 L39.8266254,4.70588235 C41.7416685,4.70588235 43.2941176,6.25833152 43.2941176,8.17337458 L43.2941176,28.9783282 C43.2941176,30.8933712 41.7416685,32.4458204 39.8266254,32.4458204 L19.0216718,32.4458204 C17.1066287,32.4458204 15.5541796,30.8933713 15.5541796,28.9783282 L15.5541796,8.17337458 C15.5541796,6.2583315 17.1066288,4.70588235 19.0216718,4.70588235 Z M19.0216718,7.67801858 C18.7480943,7.67801858 18.5263158,7.89979701 18.5263158,8.17337458 L18.5263158,28.9783282 C18.5263158,29.2519058 18.7480942,29.4736842 19.0216718,29.4736842 L39.8266254,29.4736842 C40.100203,29.4736842 40.3219814,29.2519057 40.3219814,28.9783282 L40.3219814,8.17337458 C40.3219814,7.89979703 40.100203,7.67801858 39.8266254,7.67801858 L19.0216718,7.67801858 Z M30.4148607,35.4179567 C30.4148607,34.5972239 31.080196,33.9318886 31.9009288,33.9318886 C32.7216616,33.9318886 33.3869969,34.5972239 33.3869969,35.4179567 L33.3869969,38.8854489 C33.3869969,40.800492 31.8345477,42.3529412 29.9195046,42.3529412 L9.11455106,42.3529412 C7.19950799,42.3529412 5.64705882,40.800492 5.64705882,38.8854489 L5.64705882,18.0804954 C5.64705882,16.1654523 7.19950797,14.6130031 9.11455106,14.6130031 L12.5820433,14.6130031 C13.4027761,14.6130031 14.0681114,15.2783384 14.0681114,16.0990712 C14.0681114,16.919804 13.4027761,17.5851393 12.5820433,17.5851393 L9.11455106,17.5851393 C8.84097348,17.5851393 8.61919505,17.8069178 8.61919505,18.0804954 L8.61919505,38.8854489 C8.61919507,39.1590265 8.8409735,39.3808049 9.11455106,39.380805 L29.9195046,39.380805 C30.1930822,39.380805 30.4148607,39.1590265 30.4148607,38.8854489 L30.4148607,35.4179567 Z" id="形状" fill="#606060"></path>
                        </g>
                    </g>
                </g>
            </g>
        </g>
    </g>
</svg>