<?xml version="1.0" encoding="UTF-8"?>
<svg width="72px" height="72px" viewBox="0 0 72 72" version="1.1" xmlns="http://www.w3.org/2000/svg" xmlns:xlink="http://www.w3.org/1999/xlink">
    <title>invate_more@2x</title>
    <g id="defi" stroke="none" stroke-width="1" fill="none" fill-rule="evenodd">
        <g id="邀请好友" transform="translate(-55.000000, -2297.000000)" fill-rule="nonzero">
            <g id="invate_more" transform="translate(55.000000, 2297.000000)">
                <rect id="矩形" fill="#000000" opacity="0" x="0" y="0" width="72" height="72"></rect>
                <path d="M71.0324952,22.3434511 L53.0854774,9.63492723 C53.0404974,9.63492723 53.0404974,9.63492723 52.9955174,9.59002079 C52.7706174,9.45530146 52.5906974,9.32058212 52.3208175,9.27567568 C52.1858775,9.23076923 52.0509375,9.27567568 51.9159975,9.27567568 C51.8710175,9.27567568 51.8260375,9.23076923 51.7810575,9.23076923 L24.8380407,9.23076923 C24.7930608,9.23076923 24.7480808,9.27567568 24.7031008,9.27567568 C24.5681608,9.27567568 24.4332208,9.27567568 24.2982808,9.27567568 C23.9834209,9.36548857 23.7585209,9.45530146 23.5336209,9.63492723 C23.5336209,9.63492723 23.4886409,9.63492723 23.4886409,9.63492723 L5.54162305,22.6128898 C5.04684311,22.9721414 4.73198314,23.5110187 4.64202315,24.0948025 C4.55206317,24.7234927 4.68700315,25.3072765 5.0918231,25.8012474 L36.4878594,66.4864865 C36.5328394,66.5313929 36.6227993,66.5762994 36.6677793,66.6212058 C36.7577393,66.7110187 36.8027193,66.8008316 36.8926793,66.845738 C36.8926793,66.845738 36.8926793,66.8906445 36.9376593,66.8906445 C36.9826393,66.9355509 37.0725993,66.9804574 37.1625593,67.0253638 C37.2974993,67.1151767 37.3874593,67.1600832 37.5223992,67.2049896 C37.6123592,67.249896 37.6573392,67.2948025 37.7472992,67.3397089 C37.9272192,67.3397089 38.1071392,67.3846154 38.2870591,67.3846154 C38.2870591,67.3846154 38.2870591,67.3846154 38.2870591,67.3846154 C38.2870591,67.3846154 38.2870591,67.3846154 38.2870591,67.3846154 C38.2870591,67.3846154 38.2870591,67.3846154 38.2870591,67.3846154 L38.2870591,67.3846154 C38.2870591,67.3846154 38.2870591,67.3846154 38.2870591,67.3846154 C38.2870591,67.3846154 38.2870591,67.3846154 38.2870591,67.3846154 C38.4669791,67.3846154 38.6468991,67.3846154 38.8268191,67.3397089 C38.9167791,67.2948025 39.0067391,67.249896 39.0517191,67.2049896 C39.186659,67.1600832 39.276619,67.1151767 39.411559,67.0253638 C39.501519,66.9804574 39.546499,66.9804574 39.636459,66.9355509 C39.636459,66.9355509 39.636459,66.8906445 39.681439,66.8906445 C39.771399,66.845738 39.816379,66.7559252 39.906339,66.6661123 C39.951319,66.6212058 40.0412789,66.5762994 40.0862589,66.5313929 L71.5272752,25.5318087 C71.8871151,25.0378378 72.0670351,24.4540541 71.9770751,23.8253638 C71.8421352,23.1966736 71.5272752,22.6577963 71.0324952,22.3434511 Z M23.4436609,15.2033264 L25.2878407,22.4781705 L13.3681421,22.4781705 L23.4436609,15.2033264 Z M63.4758561,22.4781705 L51.2862776,22.4781705 L53.1304574,15.15842 L63.4758561,22.4781705 Z M46.6983181,22.4781705 L29.9207801,22.4781705 L27.6717804,13.6765073 L48.8573579,13.6765073 L46.6983181,22.4781705 Z M45.5738183,26.968815 L38.2870591,55.9334719 L31.04528,26.968815 L45.5738183,26.968815 Z M26.4123406,26.968815 L33.5191797,55.2598753 L11.6589023,26.968815 L26.4123406,26.968815 Z M50.1617777,26.968815 L64.735296,26.968815 L43.0999186,55.1700624 L50.1617777,26.968815 Z" id="形状" fill="#FEA002"></path>
            </g>
        </g>
    </g>
</svg>