<?xml version="1.0" encoding="UTF-8"?>
<svg width="73px" height="73px" viewBox="0 0 73 73" version="1.1" xmlns="http://www.w3.org/2000/svg" xmlns:xlink="http://www.w3.org/1999/xlink">
    <title>invate_send@2x</title>
    <g id="defi" stroke="none" stroke-width="1" fill="none" fill-rule="evenodd">
        <g id="邀请好友" transform="translate(-61.000000, -1775.000000)" fill-rule="nonzero">
            <g id="编组-16" transform="translate(61.000000, 1751.000000)">
                <g id="invate_send" transform="translate(0.000000, 24.000000)">
                    <rect id="矩形" fill="#000000" opacity="0" x="0" y="0" width="73" height="73"></rect>
                    <path d="M59.9754274,63.6410256 L13.9604701,63.6410256 C11.4192941,63.6410256 9.35897436,61.5807059 9.35897436,59.0395299 L9.35897436,13.0245726 C9.35897436,10.4833966 11.4192941,8.42307692 13.9604701,8.42307692 L30.0657051,8.42307692 C31.3357179,8.42307692 32.366453,9.45381197 32.366453,10.7238248 C32.366453,11.994988 31.3357179,13.0245726 30.0657051,13.0245726 L13.9604701,13.0245726 L13.9604701,59.0395299 L59.9754274,59.0395299 L59.9754274,42.9342949 C59.9754274,41.6642821 61.0061624,40.633547 62.2761752,40.633547 C63.5473384,40.633547 64.5769231,41.6642821 64.5769231,42.9342949 L64.5769231,59.0395299 C64.5769231,61.5807059 62.5166034,63.6410256 59.9754274,63.6410256 Z M62.2761752,31.4305556 C61.005012,31.4305556 59.9754274,30.4009709 59.9754274,29.1298077 L59.9754274,16.0834169 L31.4841162,44.5747281 C30.6305387,45.4283056 29.2466389,45.4283056 28.3930614,44.5747281 C27.539484,43.7211506 27.539484,42.3372508 28.3930614,41.4836733 L56.8521621,13.0245726 L43.8701923,13.0245726 C42.5990291,13.0245726 41.5694444,11.994988 41.5694444,10.7238248 C41.5694444,9.45266159 42.5990291,8.42307692 43.8701923,8.42307692 L62.2761752,8.42307692 C63.5473384,8.42307692 64.5769231,9.45266159 64.5769231,10.7238248 L64.5769231,29.1298077 C64.5769231,30.4009709 63.5473384,31.4305556 62.2761752,31.4305556 Z" id="形状" fill="#FEA002"></path>
                </g>
            </g>
        </g>
    </g>
</svg>