<?xml version="1.0" encoding="UTF-8"?>
<svg width="66px" height="66px" viewBox="0 0 66 66" version="1.1" xmlns="http://www.w3.org/2000/svg" xmlns:xlink="http://www.w3.org/1999/xlink">
    <title>invate_in@2x</title>
    <g id="defi" stroke="none" stroke-width="1" fill="none" fill-rule="evenodd">
        <g id="邀请好友" transform="translate(-61.000000, -1943.000000)" fill-rule="nonzero">
            <g id="编组-15" transform="translate(61.000000, 1933.000000)">
                <g id="invate_in" transform="translate(0.000000, 10.000000)">
                    <rect id="矩形" fill="#000000" opacity="0" x="0" y="0" width="66" height="66"></rect>
                    <path d="M49.5934377,8.25 C43.3688374,8.25 37.927465,11.7975 35.0831113,16.995 C32.27998,11.7975 26.7973851,8.25 20.5315623,8.25 C11.4626083,8.25 4.125,15.63375 4.125,24.75 C4.125,29.08125 5.77390073,33 8.49458694,35.97 L33.6815456,61.2975 C34.0937708,61.66875 34.588441,61.875 35.0831113,61.875 C35.5777815,61.875 36.0724517,61.66875 36.4846769,61.2975 L61.6716356,35.97 C64.3510993,33.04125 66,29.08125 66,24.75 C66,15.63375 58.6623917,8.25 49.5934377,8.25 Z M58.5387242,33.28875 L35.0831113,57.13125 L11.6274983,33.28875 C9.5251499,31.06125 8.24725183,28.05 8.24725183,24.75 C8.24725183,17.9025 13.7710693,12.375 20.5315623,12.375 C26.0141572,12.375 30.7547468,16.005 32.4036476,20.99625 C32.8158728,22.06875 33.8876582,22.8525 35.0831113,22.8525 C36.3197868,22.8525 37.3503498,22.11 37.8037975,21.0375 L37.8037975,21.0375 C39.4114757,16.005 44.1108428,12.375 49.5934377,12.375 C56.3951532,12.375 61.8777482,17.9025 61.8777482,24.75 C61.9189707,28.05 60.6410726,31.06125 58.5387242,33.28875 Z" id="形状" fill="#FEA002"></path>
                </g>
            </g>
        </g>
    </g>
</svg>