<?xml version="1.0" encoding="UTF-8"?>
<svg width="96px" height="96px" viewBox="0 0 96 96" version="1.1" xmlns="http://www.w3.org/2000/svg" xmlns:xlink="http://www.w3.org/1999/xlink">
    <title>message_system@2x</title>
    <defs>
        <path d="M28.3141032,6.34441558 C28.3141032,4.29194805 26.5780835,2.61818182 24.4363636,2.61818182 C22.2993612,2.61818182 20.5586241,4.28727273 20.5586241,6.34441558 C20.5586241,6.55480519 20.5774939,6.76051948 20.610516,6.96155844 C15.2562162,8.75220779 10.8595577,14.2597403 10.8595577,20.7724675 L10.8595577,25.8966234 C10.8595577,25.8966234 10.8595577,33.278961 8.97257985,33.3444156 C7.84511057,33.3444156 6.98181818,34.1766234 6.98181818,35.2051948 C6.98181818,36.2384416 7.84982801,37.065974 8.92068796,37.065974 L39.9520393,37.065974 C41.0276167,37.065974 41.8909091,36.2337662 41.8909091,35.2051948 C41.8909091,34.1672727 41.0228993,33.3444156 39.9520393,33.3444156 C38.0131695,33.3444156 38.0131695,25.9480519 38.0131695,25.9480519 L38.0131695,20.7677922 C38.0131695,14.2503896 33.9042752,8.74285714 28.2622113,6.95220779 C28.2952334,6.75584416 28.3141032,6.55012987 28.3141032,6.34441558 Z M30.252973,38.9220779 C30.2482555,42.0124675 27.6678133,44.5090909 24.4363636,44.5090909 C21.2285012,44.5090909 18.6244717,42.0171429 18.6197543,38.9220779" id="path-1"></path>
    </defs>
    <g id="defi" stroke="none" stroke-width="1" fill="none" fill-rule="evenodd">
        <g id="个人中心6消息中心" transform="translate(-63.000000, -342.000000)">
            <g id="编组" transform="translate(30.000000, 290.000000)">
                <g id="message_system" transform="translate(33.000000, 52.000000)">
                    <circle id="椭圆形" fill-opacity="0.148042265" fill="#08D0AA" cx="48" cy="48" r="48"></circle>
                    <g id="消息" transform="translate(24.000000, 24.000000)">
                        <rect id="矩形" fill="#000000" fill-rule="nonzero" opacity="0" x="0" y="0" width="48" height="48"></rect>
                        <mask id="mask-2" fill="white">
                            <use xlink:href="#path-1"></use>
                        </mask>
                        <use id="形状" fill="#05D1AB" fill-rule="nonzero" xlink:href="#path-1"></use>
                        <circle id="椭圆形" fill-opacity="0.302345116" fill="#FFFFFF" mask="url(#mask-2)" cx="34.5" cy="13.5" r="10.5"></circle>
                    </g>
                </g>
            </g>
        </g>
    </g>
</svg>