<?xml version="1.0" encoding="UTF-8"?>
<svg width="48px" height="48px" viewBox="0 0 48 48" version="1.1" xmlns="http://www.w3.org/2000/svg" xmlns:xlink="http://www.w3.org/1999/xlink">
    <title>mine_online</title>
    <g id="defi" stroke="none" stroke-width="1" fill="none" fill-rule="evenodd">
        <g id="个人中心1" transform="translate(-95.000000, -525.000000)">
            <g id="编组-4" transform="translate(30.000000, 492.000000)">
                <g id="mine_online" transform="translate(65.000000, 33.000000)">
                    <rect id="矩形" fill="#2FC571" fill-rule="nonzero" opacity="0" x="0" y="0" width="48" height="48"></rect>
                    <path d="M8.40000003,24.4593302 L14.4545455,24.4593302 C16.6837675,24.4593302 18.4909091,26.2587599 18.4909091,28.4784689 L18.4909091,38.5263158 C18.4909091,40.7460248 16.6837675,42.5454545 14.4545455,42.5454545 L8.40000003,42.5454545 C7.32948983,42.5454545 6.30282494,42.1220108 5.54585991,41.3682761 C4.78889489,40.6145414 4.36363636,39.5922577 4.36363636,38.5263158 L4.36363636,24.4593302 C4.36363636,13.3604785 13.3990364,4.36363636 24.5454545,4.36363636 C35.6918727,4.36363636 44.7272727,13.3604785 44.7272727,24.4593302 L44.7272727,38.5263158 C44.7272727,39.5922577 44.3020142,40.6145414 43.5450492,41.3682761 C42.7880842,42.1220108 41.7614193,42.5454545 40.6909091,42.5454545 L34.6363636,42.5454545 C32.4071415,42.5454545 30.6,40.7460248 30.6,38.5263158 L30.6,28.4784689 C30.6,26.2587599 32.4071415,24.4593302 34.6363636,24.4593302 L40.6909091,24.4593302 C40.6909091,15.580494 33.4623429,8.38277515 24.5454545,8.38277515 C15.6285662,8.38277515 8.40000003,15.580494 8.40000003,24.4593302 L8.40000003,24.4593302 Z" id="路径" fill="#42CB72" fill-rule="nonzero"></path>
                    <line x1="22.5" y1="21.5" x2="22.5" y2="32.5" id="直线" stroke="#42CB72" stroke-width="2" stroke-linecap="round" stroke-linejoin="round"></line>
                    <line x1="26.5" y1="25.5" x2="26.5" y2="36.5" id="直线备份" stroke="#42CB72" stroke-width="2" stroke-linecap="round" stroke-linejoin="round"></line>
                </g>
            </g>
        </g>
    </g>
</svg>