<?xml version="1.0" encoding="UTF-8"?>
<svg width="40px" height="40px" viewBox="0 0 40 40" version="1.1" xmlns="http://www.w3.org/2000/svg" xmlns:xlink="http://www.w3.org/1999/xlink">
    <title>mine_about</title>
    <g id="defi" stroke="none" stroke-width="1" fill="none" fill-rule="evenodd">
        <g id="个人中心1" transform="translate(-32.000000, -993.000000)" fill-rule="nonzero">
            <g id="编组-13备份-4" transform="translate(30.000000, 993.000000)">
                <g id="mine_about" transform="translate(2.000000, 0.000000)">
                    <rect id="矩形" fill="#000000" opacity="0" x="0" y="0" width="40" height="40"></rect>
                    <path d="M25.6806061,4 L34,12.2568421 L34,36 L6,36 L6,4 L25.6806061,4 Z M22.969697,6.5254737 L8.54545455,6.5254737 L8.54545455,33.4736842 L31.4545455,33.4736842 L31.4545455,14.9473684 L22.969697,14.9473684 L22.969697,6.52631579 L22.969697,6.5254737 Z M27.6363636,25.8947368 L27.6363636,28.4210526 L12.3636364,28.4210526 L12.3636364,25.8947368 L27.6363636,25.8947368 Z M27.6363636,19.1578947 L27.6363636,21.6842105 L12.3636364,21.6842105 L12.3636364,19.1578947 L27.6363636,19.1578947 Z M19.552,12.4210527 L19.552,14.9473684 L12.3636364,14.9473684 L12.3636364,12.4210527 L19.552,12.4210527 Z M30.5661818,12.4210527 L25.5151515,7.408 L25.5151515,12.4210527 L30.5661818,12.4210527 L30.5661818,12.4210527 Z" id="形状" fill="#FFFFFF"></path>
                </g>
            </g>
        </g>
    </g>
</svg>