<?xml version="1.0" encoding="UTF-8"?>
<svg width="40px" height="40px" viewBox="0 0 40 40" version="1.1" xmlns="http://www.w3.org/2000/svg" xmlns:xlink="http://www.w3.org/1999/xlink">
    <title>mine_photo</title>
    <g id="defi" stroke="none" stroke-width="1" fill="none" fill-rule="evenodd">
        <g id="个人中心1" transform="translate(-32.000000, -674.000000)" fill-rule="nonzero">
            <g id="编组-13" transform="translate(30.000000, 670.000000)">
                <g id="编组-9" transform="translate(2.000000, 0.000000)">
                    <g id="mine_photo" transform="translate(0.000000, 4.000000)">
                        <rect id="矩形" fill="#000000" opacity="0" x="0" y="0" width="40" height="40"></rect>
                        <path d="M19.5242317,7.61988786 C23.0660093,7.61904786 26.1979344,9.9060121 27.2577161,13.2670209 C28.3174979,16.6280297 27.0595234,20.2841171 24.1514713,22.2947898 C29.4221337,24.1573896 33.2184967,29.1162048 33.3299558,34.9710498 L33.3333333,35.2380952 L30.800173,35.2380952 C30.800173,29.0448248 25.7507399,24.0238669 19.5242317,24.0238669 C13.383851,24.0238669 8.39014749,28.9037441 8.25082363,34.9769282 L8.24744609,35.2372554 L5.71428571,35.2372554 C5.71428571,29.2665228 9.546113,24.1859416 14.8969921,22.29395 C11.98894,20.2832774 10.7309656,16.6271899 11.7907473,13.2661811 C12.850529,9.90517233 15.9824541,7.61818286 19.5242317,7.61904786 L19.5242317,7.61988786 Z M19.5242317,10.1391843 C16.4480071,10.1391843 13.9542342,12.6193088 13.9542342,15.6786974 C13.9542342,18.7380859 16.4480071,21.2182104 19.5242317,21.2182104 C22.6004563,21.2182104 25.0942291,18.7380859 25.0942291,15.6786974 C25.0942291,12.6193089 22.6004563,10.1391843 19.5242317,10.1391843 L19.5242317,10.1391843 Z" id="形状" fill="#FFFFFF"></path>
                    </g>
                </g>
            </g>
        </g>
    </g>
</svg>