<?xml version="1.0" encoding="UTF-8"?>
<svg width="48px" height="48px" viewBox="0 0 48 48" version="1.1" xmlns="http://www.w3.org/2000/svg" xmlns:xlink="http://www.w3.org/1999/xlink">
    <title>mine_help</title>
    <g id="defi" stroke="none" stroke-width="1" fill="none" fill-rule="evenodd">
        <g id="个人中心1" transform="translate(-463.000000, -525.000000)" fill-rule="nonzero">
            <g id="编组-4备份" transform="translate(390.000000, 492.000000)">
                <g id="mine_help" transform="translate(73.000000, 33.000000)">
                    <rect id="矩形" fill="#000000" opacity="0" x="0" y="0" width="48" height="48"></rect>
                    <path d="M24,4.23529412 C34.9155529,4.23529412 43.7647059,13.084447 43.7647059,24 C43.7647059,34.915553 34.9155529,43.7647059 24,43.7647059 C13.0844471,43.7647059 4.23529412,34.9155529 4.23529412,24 C4.23529412,13.0844471 13.0844471,4.23529412 24,4.23529412 Z M24,31.4117647 C23.1813191,31.4117647 22.5176471,32.0754367 22.5176471,32.8941176 C22.5176471,33.7127986 23.1813191,34.3764706 24,34.3764706 C24.8186809,34.3764706 25.4823529,33.7127986 25.4823529,32.8941176 C25.4823529,32.0754367 24.8186809,31.4117647 24,31.4117647 Z M23.8833883,14.1176471 C21.6405883,14.1176471 19.5870353,15.2368236 18.3888,17.0551765 C18.0738493,17.532719 17.8248676,18.0506277 17.6486118,18.594847 C17.396731,19.3739584 17.8241357,20.2097427 18.6032471,20.4616235 C19.3823584,20.7135043 20.2181427,20.2860996 20.4700235,19.5069882 C20.5634118,19.2179294 20.6963294,18.9417176 20.8648235,18.6862588 C21.5170588,17.6960471 22.6431529,17.082353 23.8833883,17.082353 C25.8657882,17.082353 27.4588235,18.6388235 27.4588235,20.5411765 C27.4588235,22.4435294 25.8652941,24 23.8828941,24 C23.0642132,24 22.4005412,24.663672 22.4005412,25.4823529 L22.4005412,28.4470588 C22.4005412,29.2657397 23.0642132,29.9294118 23.8828941,29.9294118 C24.701575,29.9294118 25.3652471,29.2657397 25.3652471,28.4470588 L25.3652471,26.7986824 C28.2592941,26.1400235 30.4235294,23.5938353 30.4235294,20.5411765 C30.4235294,16.9855059 27.4874824,14.1176471 23.8828941,14.1176471 L23.8833883,14.1176471 Z" id="形状" fill="#F4A402"></path>
                </g>
            </g>
        </g>
    </g>
</svg>