<?xml version="1.0" encoding="UTF-8"?>
<svg width="40px" height="40px" viewBox="0 0 40 40" version="1.1" xmlns="http://www.w3.org/2000/svg" xmlns:xlink="http://www.w3.org/1999/xlink">
    <title>mine_safe</title>
    <g id="defi" stroke="none" stroke-width="1" fill="none" fill-rule="evenodd">
        <g id="个人中心1" transform="translate(-32.000000, -891.000000)" fill-rule="nonzero">
            <g id="编组-13备份-3" transform="translate(30.000000, 891.000000)">
                <g id="mine_safe" transform="translate(2.000000, 0.000000)">
                    <rect id="矩形" fill="#000000" opacity="0" x="0" y="0" width="40" height="40"></rect>
                    <path d="M20.5,3.00082509 L35,9.82161663 L35,21.5284283 C35,27.7956029 29.8330286,34.3771263 21.6127714,36.7071028 L21.2689143,36.801985 L20.5,37 L19.7219714,36.7995098 C11.568,34.6279453 6.3132,28.2485622 6.01242857,22.0193404 L6.00248571,21.7528453 L6,9.82244172 L20.5,3 L20.5,3.00082509 Z M20.4991714,5.73838242 L8.48488569,11.3892354 L8.4882,21.7206678 C8.61579999,26.7329224 12.8688571,32.1379068 19.6871714,34.2154141 L20.0186,34.3135965 L20.355,34.4060035 L20.4983428,34.4431314 L20.6358857,34.4084787 C27.7475143,32.5141353 32.2325714,27.0934747 32.5010286,22.0110898 L32.5109714,21.7693465 L32.5142857,21.5284283 L32.5142857,11.3892354 L20.4991714,5.73838242 Z M24.5658,14.909777 L26.3232,16.6597345 L18.4136572,24.535781 L12.8481429,18.9938363 L14.6055429,17.2438788 L18.4128286,21.035866 L24.5658,14.909777 Z" id="形状" fill="#FFFFFF"></path>
                </g>
            </g>
        </g>
    </g>
</svg>