<?xml version="1.0" encoding="UTF-8"?>
<svg width="40px" height="40px" viewBox="0 0 40 40" version="1.1" xmlns="http://www.w3.org/2000/svg" xmlns:xlink="http://www.w3.org/1999/xlink">
    <title>mine_set</title>
    <g id="defi" stroke="none" stroke-width="1" fill="none" fill-rule="evenodd">
        <g id="个人中心1" transform="translate(-33.000000, -1098.000000)" fill-rule="nonzero">
            <g id="编组-13备份-5" transform="translate(30.000000, 1098.000000)">
                <g id="mine_set" transform="translate(3.000000, 0.000000)">
                    <rect id="矩形" fill="#000000" opacity="0" x="0" y="0" width="40" height="40"></rect>
                    <path d="M16.8791909,3.00093433 L17.3024623,4.10533401 C17.7277113,5.22635502 18.8010045,5.96838287 20,5.97029323 C21.1340267,5.96685921 22.161531,5.30135567 22.628394,4.26791062 L22.698472,4.10346535 L23.1236122,3.00093433 L24.2691546,3.292451 C25.7052874,3.65778117 27.0797516,4.2053093 28.3691876,4.92008574 L28.7961965,5.16488498 L29.8174673,5.768474 L29.3343959,6.85231799 C28.8434821,7.9458899 29.0783979,9.22897053 29.9249203,10.0776883 C30.7236881,10.8774264 31.9163728,11.1361267 32.9747169,10.7392069 L33.1485105,10.6681964 L34.2305156,10.1870071 L34.8341211,11.2054467 C35.5875028,12.4742217 36.1738456,13.8349895 36.5785974,15.2539779 L36.707541,15.7304955 L37,16.8778752 L35.8946356,17.3020693 C34.8348597,17.7044514 34.107916,18.6889033 34.0352314,19.820138 L34.0296251,19.9995328 L34.0352314,20.1789277 C34.1030751,21.2424968 34.7509628,22.1823392 35.720842,22.6241172 L35.8946356,22.6969963 L37,23.1211904 L36.707541,24.2685702 C36.3435246,25.7008069 35.794807,27.07963 35.0751896,28.3703592 L34.8294493,28.7954877 L34.2258437,29.8101899 L33.1466417,29.3318036 C32.0523657,28.8426434 30.7698494,29.0777463 29.9202484,29.923246 C29.1216805,30.7234668 28.8638383,31.9162279 29.2605804,32.9748276 L29.3315928,33.1486163 L29.8127954,34.2305917 L28.7943278,34.8341806 C27.5255037,35.5875137 26.1647022,36.1738387 24.7456854,36.5786089 L24.2691546,36.707549 L23.1217434,37 L22.6975377,35.8946659 C22.2722887,34.7736449 21.1989955,34.0316171 20,34.0297068 C18.8659733,34.0331408 17.838469,34.6986443 17.371606,35.7320893 L17.301528,35.8965347 L16.8763878,36.9990656 L15.7308453,36.707549 C14.2996695,36.3432386 12.9213515,35.7961974 11.629878,35.0799143 L11.2038034,34.835115 L10.1825327,34.231526 L10.665604,33.147682 C11.1565178,32.0541101 10.921602,30.7710295 10.0750797,29.9223117 C9.27631186,29.1225736 8.08362721,28.8638733 7.02528306,29.2607931 L6.8514895,29.3318036 L5.76948445,29.8101899 L5.16587883,28.7917502 C4.4125427,27.5232827 3.82620021,26.1628296 3.42140265,24.7441534 L3.29245904,24.2676358 L3,23.1202561 L4.10536439,22.696062 C5.22609744,22.2709464 5.96807717,21.1981535 5.97037482,19.9995328 C5.96730644,18.8651985 5.30172621,17.837267 4.26794546,17.3702767 L4.10349563,17.301135 L3.00093436,16.8760065 L3.29245904,15.7304955 C3.65966801,14.2897304 4.20814554,12.9143697 4.92481035,11.6287065 L5.17055072,11.203578 L5.77415629,10.1888758 L6.85335822,10.6672621 C7.94778917,11.1564608 9.23049335,10.9209519 10.0797515,10.0748853 C10.8781573,9.27496042 11.1360022,8.08255151 10.7394196,7.02423811 L10.6684071,6.85044932 L10.1872046,5.768474 L11.2056722,5.16488498 C12.4744773,4.41151469 13.8352838,3.82518748 15.2543146,3.42045673 L15.7308453,3.29151667 L16.8782566,3 L16.8791909,3.00093433 Z M24.607398,6.165572 L24.5494668,6.25246639 C23.5603712,7.67588142 21.9625871,8.55494964 20.2307904,8.62851411 L20,8.63318587 C18.1837842,8.63305649 16.4829423,7.74286199 15.44773,6.25059772 L15.3907332,6.165572 L15.0608992,6.2795625 C14.6273496,6.43466431 14.2012751,6.61125613 13.7845443,6.80746927 L13.4780697,6.95789936 L13.5061009,7.1036577 C13.7965604,8.79366559 13.2879846,10.5229137 12.1288337,11.7866113 L11.9634495,11.9594658 C10.6909248,13.2310764 8.88083209,13.8067934 7.10750796,13.5039435 L6.95987685,13.475913 L6.80850827,13.784248 C6.61228974,14.2000329 6.43569306,14.6251614 6.27965263,15.0596334 L6.165659,15.3922614 L6.25255577,15.450191 C7.67600992,16.4392595 8.5551023,18.0369996 8.62866879,19.7687488 L8.63334063,19.9995328 C8.63321126,21.8156987 7.74299229,23.5164938 6.25068701,24.5516777 L6.165659,24.6077386 L6.27965263,24.9384979 C6.4356931,25.3720355 6.61135538,25.7980983 6.80757391,26.2148177 L6.95800814,26.5212839 L7.10377048,26.4932534 C8.79447391,26.2027738 10.5242944,26.7128704 11.7868528,27.8742202 L11.959712,28.0395999 C13.2320539,29.312742 13.8069294,31.1244211 13.501429,32.898211 L13.4743322,33.0392976 L13.7826756,33.1915963 C14.2003407,33.3878095 14.6264153,33.563467 15.0608992,33.7195031 L15.3916676,33.8325593 L15.4505331,33.7465992 C16.4396288,32.3231842 18.0374129,31.444116 19.7692096,31.3705515 L20,31.3658798 C21.8162157,31.3660092 23.5170576,32.2562037 24.55227,33.7484679 L24.6083324,33.8316249 L24.9391008,33.7195031 C25.3735847,33.5634669 25.7987248,33.3878095 26.2154557,33.1915963 L26.5219303,33.0402319 L26.4938991,32.8954079 C26.2038331,31.2052612 26.7127413,29.476056 27.8721007,28.2124543 L28.0365505,28.0395999 C29.3091589,26.7681269 31.1191791,26.192433 32.892492,26.4951221 L33.0391887,26.5222183 L33.1914917,26.2148177 C33.3877102,25.7990327 33.5643069,25.3739042 33.7203474,24.9394322 L33.8324722,24.6077386 L33.7483786,24.5516777 C32.3233615,23.5626204 31.4436774,21.9633958 31.3713312,20.2303168 L31.3666593,19.9995328 L31.3713312,19.7687488 C31.4440376,18.035542 32.3240524,16.4363448 33.7493129,15.447388 L33.8334066,15.3894583 L33.7212817,15.0605678 C33.5652413,14.6270301 33.3886446,14.2009673 33.1924261,13.784248 L33.0410575,13.4768474 L32.8952952,13.5048779 C31.2050431,13.7953019 29.4756571,13.2855767 28.2131472,12.1248454 L28.040288,11.9594658 C26.7679461,10.6863236 26.1930706,8.87464452 26.498571,7.10085465 L26.5247334,6.9588337 L26.21639,6.80746927 C25.7987248,6.61125613 25.3726503,6.43466431 24.9381664,6.27862817 L24.607398,6.165572 L24.607398,6.165572 Z M20,14.4345544 C23.0729586,14.435586 25.5636813,16.9266586 25.564197,19.9995328 C25.5628164,22.9907048 23.1974855,25.4459268 20.2083654,25.5589052 L20,25.5635769 L19.7916346,25.5598395 C16.8021529,25.4468473 14.4366815,22.9910669 14.435803,19.9995328 C14.4368344,16.9270235 16.9274062,14.4365202 20,14.4354888 L20,14.4345544 Z M20,17.097447 C18.3977568,17.0984783 17.0992842,18.3973334 17.0987688,19.9995328 C17.0997079,21.5375362 18.3000304,22.8079006 19.8355502,22.8960125 L20,22.9006843 L20.1644498,22.8960125 C21.6369535,22.8115627 22.8121072,21.6364414 22.8965593,20.1639781 L22.9012312,19.9995328 C22.9002003,18.3976983 21.6018785,17.0994122 20,17.0983814 L20,17.097447 Z" id="形状" fill="#FFFFFF"></path>
                </g>
            </g>
        </g>
    </g>
</svg>