<?xml version="1.0" encoding="UTF-8"?>
<svg width="40px" height="40px" viewBox="0 0 40 40" version="1.1" xmlns="http://www.w3.org/2000/svg" xmlns:xlink="http://www.w3.org/1999/xlink">
    <title>编组 6</title>
    <g id="defi" stroke="none" stroke-width="1" fill="none" fill-rule="evenodd">
        <g id="资产2-财务" transform="translate(-33.000000, -962.000000)">
            <g id="编组-5" transform="translate(33.000000, 636.000000)">
                <g id="编组-6" transform="translate(0.000000, 326.000000)">
                    <circle id="椭圆形" fill="#FFFFFF" cx="20" cy="20" r="20"></circle>
                    <g id="Rabit" transform="translate(8.000000, 9.000000)" fill-rule="nonzero">
                        <rect id="矩形" fill="#000000" opacity="0" x="0" y="0" width="23" height="23"></rect>
                        <path d="M20,0.383333341 C20,0.153333341 19.847619,0 19.6190476,0 C15.1238095,0 14.0571429,6.51666666 13.9047619,8.81666666 C13.2952381,8.58666666 12.6857143,8.43333332 12,8.43333334 C11.3142857,8.43333336 10.7047619,8.58666668 10.0952381,8.81666666 C9.94285714,6.51666666 8.87619047,0 4.38095239,0 C4.15238096,0 4,0.153333341 4,0.383333341 C4,4.90666668 4.22857143,9.50666668 6.74285714,12.1133333 C5.98095239,13.57 5.52380953,15.2566667 5.52380953,16.8666667 C5.52380953,19.55 7.96190478,20.7 8.64761904,21.0066667 C8.87619047,21.5433333 9.63809522,23 12,23 C14.3619048,23 15.1238095,21.5433333 15.352381,21.0066667 C16.0380952,20.7 18.4761905,19.55 18.4761905,16.8666667 C18.4761905,15.2566667 18.0190476,13.57 17.2571429,12.1133333 C19.7714286,9.50666668 20,4.90666668 20,0.383333341 Z M17.3333333,3.75666666 C17.4095238,3.75666666 17.7142857,3.83333332 17.7142857,4.21666666 C17.7142857,8.05 16.7238095,10.8866667 16.647619,11.1166667 C16.1904762,10.5033333 15.6571429,9.96666666 15.1238095,9.50666666 C16.8,3.68 16.952381,3.68 17.3333333,3.75666666 L17.3333333,3.75666666 Z M6.28571429,4.21666666 C6.28571429,3.83333332 6.59047618,3.75666666 6.66666667,3.75666666 C7.04761906,3.68 7.2,3.68 8.95238096,9.58333334 C8.34285714,10.0433333 7.80952382,10.58 7.42857143,11.1933333 C7.27619047,10.8866667 6.28571429,8.05 6.28571429,4.21666666 Z M8.95238096,16.1 C8.34285714,16.1 7.80952382,15.41 7.80952382,14.5666667 C7.80952382,13.7233333 8.34285714,13.0333333 8.95238096,13.0333333 C9.56190478,13.0333333 10.0952381,13.7233333 10.0952381,14.5666667 C10.0952381,15.41 9.56190478,16.1 8.95238096,16.1 Z M13.3714286,19.4733333 L12.5333333,20.01 L13.1428571,20.8533333 C13.2952381,21.0066667 13.2190476,21.2366667 13.0666667,21.39 C12.9142857,21.4666667 12.8380952,21.4666667 12.7619048,21.4666667 C12.6095238,21.4666667 12.5333333,21.39 12.4571429,21.3133333 L12,20.6233333 L11.5428571,21.3133333 C11.4666667,21.39 11.3904762,21.4666667 11.2380952,21.4666667 C11.1619048,21.4666667 11.0857143,21.4666667 11.0095238,21.39 C10.8571429,21.2366667 10.7809524,21.0066667 10.9333333,20.8533333 L11.4666667,20.01 L10.6285714,19.4733333 C10.552381,19.3966667 10.4761905,19.32 10.4761905,19.1666667 C10.4761905,19.0133333 10.5523809,18.9366667 10.6285714,18.86 C10.7047619,18.7833333 11.3142857,18.4 12,18.4 C12.6857143,18.4 13.2952381,18.7833333 13.3714286,18.86 C13.447619,18.9366667 13.5238095,19.09 13.5238095,19.1666667 C13.5238095,19.2433333 13.4476191,19.3966667 13.3714286,19.4733333 Z M15.047619,16.1 C14.4380952,16.1 13.9047619,15.41 13.9047619,14.5666667 C13.9047619,13.7233333 14.4380952,13.0333333 15.047619,13.0333333 C15.6571429,13.0333333 16.1904762,13.7233333 16.1904762,14.5666667 C16.1904762,15.41 15.6571429,16.1 15.047619,16.1 Z" id="形状" fill="#100F15"></path>
                        <path d="M14.6111111,14 C14.4555555,14 14.2222222,14.4 14.2222222,15 C14.2222222,15.6 14.4555556,16 14.6111111,16 C14.7666666,16 15,15.6 15,15 C15,14.4 14.7666667,14 14.6111111,14 Z M8.3888889,14 C8.23333333,14 8,14.4 8,15 C8,15.6 8.23333333,16 8.3888889,16 C8.54444446,16 8.77777777,15.6 8.77777777,15 C8.77777777,14.4 8.54444444,14 8.3888889,14 Z" id="形状" fill="#100F15"></path>
                    </g>
                </g>
            </g>
        </g>
    </g>
</svg>