<?xml version="1.0" encoding="UTF-8"?>
<svg width="30px" height="30px" viewBox="0 0 30 30" version="1.1" xmlns="http://www.w3.org/2000/svg" xmlns:xlink="http://www.w3.org/1999/xlink">
    <title>recharge_exchange</title>
    <g id="defi" stroke="none" stroke-width="1" fill="none" fill-rule="evenodd">
        <g id="充值3" transform="translate(-668.000000, -662.000000)" fill-rule="nonzero">
            <g id="编组-2" transform="translate(260.000000, 662.000000)">
                <g id="recharge_exchange" transform="translate(408.000000, 0.000000)">
                    <rect id="矩形" fill="#000000" opacity="0" x="0" y="0" width="30" height="30"></rect>
                    <path d="M3.74413527,13.041114 L27.5059683,13.041114 C28.193028,13.041114 28.75,12.4614149 28.75,11.7463199 C28.75,11.350842 28.576134,10.9771076 28.27789,10.7320646 C28.2024968,10.6318554 28.1133553,10.5437299 28.0133259,10.4705162 L19.136953,3.98705064 C18.7732073,3.71976951 18.2999492,3.67520653 17.8960208,3.87020183 C17.4920923,4.06519714 17.2190941,4.47001319 17.1801909,4.93167195 C17.1412876,5.39333071 17.3424123,5.84142744 17.7075607,6.10662854 L23.6556905,10.4513101 L3.74413527,10.4513101 C3.05701833,10.4513101 2.5,11.0310574 2.5,11.746212 C2.5,12.4613666 3.05701833,13.041114 3.74413527,13.041114 L3.74413527,13.041114 Z M27.5059683,18.2105793 L3.74413527,18.2105793 C3.41419757,18.2105793 3.09777326,18.3469947 2.86447208,18.5898157 C2.6311709,18.8326367 2.50010345,19.1619727 2.50010345,19.5053734 C2.50010345,19.9008197 2.67387901,20.2745405 2.97221365,20.519413 C3.04581886,20.6171699 3.13393775,20.7058633 3.23677771,20.7809614 L12.1131506,27.2646427 C12.3831411,27.4621885 12.7175298,27.5398716 13.0426032,27.4805673 C13.3676766,27.421263 13.6567454,27.2298404 13.8460866,26.9484971 C14.2407997,26.3631912 14.1048989,25.5556726 13.5425429,25.144849 L7.59441309,20.8001675 L27.5059683,20.8001675 C28.193028,20.8001675 28.75,20.2204684 28.75,19.5053734 C28.75,18.7902784 28.193028,18.2105793 27.5059683,18.2105793 L27.5059683,18.2105793 Z" id="形状" fill="#F5A601"></path>
                </g>
            </g>
        </g>
    </g>
</svg>