<?xml version="1.0" encoding="UTF-8"?>
<svg width="394px" height="368px" viewBox="0 0 394 368" version="1.1" xmlns="http://www.w3.org/2000/svg" xmlns:xlink="http://www.w3.org/1999/xlink">
    <title>rocket</title>
    <defs>
        <polygon id="path-1" points="64 37.9431818 10.2716049 0 0 14.8560606 53.5308642 53"></polygon>
        <path d="M217,0 C217,0 34.640367,60.8172342 0,247.442669 C0,247.442669 21.8990826,270.895066 54.1504587,286 C54.1504587,286 213.217431,193.184156 217,0 L217,0 Z" id="path-3"></path>
        <path d="M39,0 C60.5786802,0 78,17.5102041 78,39 C78,60.4897959 60.5786802,78 39,78 C17.4213198,78 0,60.4897959 0,39 C0,17.5102041 17.4213198,0 39,0 L39,0 Z" id="path-5"></path>
        <linearGradient x1="100%" y1="50%" x2="0%" y2="50%" id="linearGradient-7">
            <stop stop-color="#E9991F" offset="0%"></stop>
            <stop stop-color="#FEC142" offset="100%"></stop>
        </linearGradient>
        <linearGradient x1="100%" y1="50%" x2="0%" y2="50%" id="linearGradient-8">
            <stop stop-color="#E9991F" offset="0%"></stop>
            <stop stop-color="#FEC142" offset="100%"></stop>
        </linearGradient>
        <linearGradient x1="100%" y1="50%" x2="0%" y2="50%" id="linearGradient-9">
            <stop stop-color="#E9991F" offset="0%"></stop>
            <stop stop-color="#FEC142" offset="100%"></stop>
        </linearGradient>
        <linearGradient x1="100%" y1="50%" x2="0%" y2="50%" id="linearGradient-10">
            <stop stop-color="#E9991F" offset="0%"></stop>
            <stop stop-color="#FEC142" offset="100%"></stop>
        </linearGradient>
        <linearGradient x1="100%" y1="50%" x2="0%" y2="50%" id="linearGradient-11">
            <stop stop-color="#E9991F" offset="0%"></stop>
            <stop stop-color="#FEC142" offset="100%"></stop>
        </linearGradient>
    </defs>
    <g id="页面-1" stroke="none" stroke-width="1" fill="none" fill-rule="evenodd">
        <g id="更新" transform="translate(-209.000000, -181.000000)">
            <g id="编组-13" transform="translate(25.000000, 181.000000)">
                <g id="rocket" transform="translate(184.344116, 0.000000)">
                    <g id="编组" transform="translate(68.655884, 0.000000)">
                        <polygon id="路径" fill="#FFA700" points="53.5381264 246 18.0501089 311.383855 25.7821351 311.383855 1 367 50.9607843 323.543657 48.5816993 332.912685 92 288.459638"></polygon>
                        <polygon id="路径" fill="#F7F13B" points="53.2 265.725166 41.2 296.023179 47 294.003311 40 314 59.6 300.870861 60.8 306.728477 83 282.89404 64 253"></polygon>
                        <polygon id="路径" fill="#E28D0C" points="103 284.943182 49.2716049 247 39 261.856061 92.5308642 300"></polygon>
                        <g id="Clipped" transform="translate(39.000000, 247.000000)">
                            <mask id="mask-2" fill="white">
                                <use xlink:href="#path-1"></use>
                            </mask>
                            <g id="SVGID_1_"></g>
                            <polygon id="路径" fill="#F5A600" mask="url(#mask-2)" points="8.88888889 45.9734848 38.7160494 4.61742424 97.382716 62.8371212 38.3209877 77.2916667"></polygon>
                        </g>
                        <path d="M106,130 L72.2,130.4 L0,230 C0,230 50.8,214 75.8,214.8 C101,215.6 106,130 106,130 L106,130 Z" id="路径" fill="#E9991F"></path>
                        <path d="M190.94856,197 L206,231.039185 L138.569547,324 C138.569547,324 133.5524,255.722571 124.722221,228.252351 C115.892043,200.782132 190.94856,197 190.94856,197 L190.94856,197 Z" id="路径" fill="#E9991F"></path>
                        <path d="M265,0 C265,0 82.640367,60.8172342 48,247.442669 C48,247.442669 69.8990826,270.895066 102.150459,286 C102.150459,286 261.217431,193.184156 265,0 L265,0 Z" id="路径" fill="#F5A600"></path>
                        <g id="Clipped" transform="translate(48.000000, 0.000000)">
                            <mask id="mask-4" fill="white">
                                <use xlink:href="#path-3"></use>
                            </mask>
                            <g id="SVGID_3_"></g>
                            <polygon id="路径" fill="#FEC142" mask="url(#mask-4)" points="233.922018 -23.6511466 12.940367 275.068798 84.2119266 315.216122 158.469725 284.410007"></polygon>
                        </g>
                        <path d="M183,77 C204.57868,77 222,94.5102041 222,116 C222,137.489796 204.57868,155 183,155 C161.42132,155 144,137.489796 144,116 C144,94.5102041 161.42132,77 183,77 L183,77 Z" id="路径" fill="#FFA700"></path>
                        <g id="Clipped" transform="translate(144.000000, 77.000000)">
                            <mask id="mask-6" fill="white">
                                <use xlink:href="#path-5"></use>
                            </mask>
                            <g id="SVGID_5_"></g>
                            <path d="M61.3705584,7.76020408 C75.822335,17.9081633 77.6040609,40.5918367 65.1319797,58.5 C52.6598985,76.4081633 30.8832487,82.7755102 16.4314721,72.627551 C1.97969543,62.4795918 0.197969543,39.7959184 12.6700508,21.8877551 C25.142132,3.97959184 46.9187817,-2.3877551 61.3705584,7.76020408 L61.3705584,7.76020408 Z" id="路径" fill="#F4F538" mask="url(#mask-6)"></path>
                        </g>
                    </g>
                    <path d="M27.7660503,130.506293 L106.794679,138.254157 L106.794679,138.254157 L27.7891041,141.662282 C24.6182088,141.799067 21.9368038,139.339435 21.8000184,136.16854 C21.7964591,136.08603 21.7946789,136.003454 21.7946789,135.920868 C21.7946789,132.916144 24.2304888,130.480334 27.2352125,130.480334 C27.4124757,130.480334 27.589633,130.488998 27.7660503,130.506293 Z" id="矩形" fill="url(#linearGradient-7)" opacity="0.7538612" transform="translate(64.294679, 135.920868) rotate(-45.000000) translate(-64.294679, -135.920868) "></path>
                    <path d="M3.83584175,250.911656 L40.9454365,258.103399 L40.9454365,258.103399 L3.92374061,261.260326 C0.891578061,261.518886 -1.77607934,259.270437 -2.03463897,256.238274 C-2.04791599,256.082573 -2.05456352,255.926377 -2.05456352,255.77011 C-2.05456352,253.036936 0.161111786,250.821261 2.89428578,250.821261 C3.21030405,250.821261 3.52559581,250.851531 3.83584175,250.911656 Z" id="矩形备份" fill="url(#linearGradient-8)" opacity="0.394714355" transform="translate(19.445436, 255.770110) rotate(-45.000000) translate(-19.445436, -255.770110) "></path>
                    <path d="M10.249363,320.534345 L31.8137085,324.72739 L31.8137085,324.72739 L10.3009685,326.567946 C8.53275051,326.719229 6.97668774,325.408444 6.82540503,323.640226 C6.81761089,323.549127 6.8137085,323.457736 6.8137085,323.366304 C6.8137085,321.772964 8.10536639,320.481306 9.69870715,320.481306 C9.88353432,320.481306 10.0679338,320.499067 10.249363,320.534345 Z" id="矩形备份-7" fill="url(#linearGradient-9)" opacity="0.506090437" transform="translate(19.313708, 323.366304) rotate(-45.000000) translate(-19.313708, -323.366304) "></path>
                    <path d="M118.835842,22.9116557 L155.945436,30.1033993 L155.945436,30.1033993 L118.923741,33.2603263 C115.891578,33.5188859 113.223921,31.2704365 112.965361,28.238274 C112.952084,28.0825726 112.945436,27.9263768 112.945436,27.7701103 C112.945436,25.0369363 115.161112,22.821261 117.894286,22.821261 C118.210304,22.821261 118.525596,22.8515308 118.835842,22.9116557 Z" id="矩形备份-2" fill="url(#linearGradient-8)" opacity="0.650671096" transform="translate(134.445436, 27.770110) rotate(-45.000000) translate(-134.445436, -27.770110) "></path>
                    <path d="M344.835842,91.9116557 L381.945436,99.1033993 L381.945436,99.1033993 L344.923741,102.260326 C341.891578,102.518886 339.223921,100.270437 338.965361,97.238274 C338.952084,97.0825726 338.945436,96.9263768 338.945436,96.7701103 C338.945436,94.0369363 341.161112,91.821261 343.894286,91.821261 C344.210304,91.821261 344.525596,91.8515308 344.835842,91.9116557 Z" id="矩形备份-3" fill="url(#linearGradient-8)" opacity="0.337396531" transform="translate(360.445436, 96.770110) rotate(-45.000000) translate(-360.445436, -96.770110) "></path>
                    <path d="M335.497094,285.57035 L360.702796,292.34604 L360.702796,292.34604 L335.66126,295.307978 C332.736787,295.653888 330.085618,293.563549 329.739708,290.639076 C329.715121,290.431206 329.702796,290.222069 329.702796,290.012751 C329.702796,287.47218 331.762335,285.412641 334.302906,285.412641 C334.70616,285.412641 335.107664,285.465665 335.497094,285.57035 Z" id="矩形备份-6" fill="url(#linearGradient-10)" transform="translate(345.202796, 290.012751) rotate(-45.000000) translate(-345.202796, -290.012751) "></path>
                    <path d="M322.76605,182.506293 L401.794679,190.254157 L401.794679,190.254157 L322.789104,193.662282 C319.618209,193.799067 316.936804,191.339435 316.800018,188.16854 C316.796459,188.08603 316.794679,188.003454 316.794679,187.920868 C316.794679,184.916144 319.230489,182.480334 322.235213,182.480334 C322.412476,182.480334 322.589633,182.488998 322.76605,182.506293 Z" id="矩形备份-4" fill="url(#linearGradient-7)" opacity="0.486036028" transform="translate(359.294679, 187.920868) rotate(-45.000000) translate(-359.294679, -187.920868) "></path>
                    <path d="M228.551824,339.537549 L274.627417,346.921419 L274.627417,346.921419 L228.612556,350.166096 C225.53193,350.383322 222.858493,348.062078 222.641267,344.981453 C222.632037,344.850548 222.627417,344.719359 222.627417,344.58813 C222.627417,341.76318 224.917491,339.473106 227.742441,339.473106 C228.013517,339.473106 228.284164,339.494655 228.551824,339.537549 Z" id="矩形备份-5" fill="url(#linearGradient-11)" opacity="0.610111782" transform="translate(248.627417, 344.588130) rotate(-45.000000) translate(-248.627417, -344.588130) "></path>
                </g>
            </g>
        </g>
    </g>
</svg>