<?xml version="1.0" encoding="UTF-8"?>
<svg width="80px" height="80px" viewBox="0 0 80 80" version="1.1" xmlns="http://www.w3.org/2000/svg" xmlns:xlink="http://www.w3.org/1999/xlink">
    <title>safe_reset@2x</title>
    <g id="defi" stroke="none" stroke-width="1" fill="none" fill-rule="evenodd">
        <g id="个人中心7安全中心" transform="translate(-63.000000, -320.000000)">
            <g id="编组" transform="translate(30.000000, 290.000000)">
                <g id="safe_reset" transform="translate(33.000000, 30.000000)">
                    <circle id="椭圆形" fill-opacity="0.152962638" fill="#E83737" cx="40" cy="40" r="40"></circle>
                    <g id="消息" transform="translate(20.000000, 20.000000)" fill-rule="nonzero">
                        <rect id="矩形" fill="#000000" opacity="0" x="0" y="0" width="40" height="40"></rect>
                        <g id="刷新-重置-07">
                            <rect id="矩形" fill="#000000" opacity="0" x="0" y="0" width="40" height="40"></rect>
                            <path d="M38.3333333,21.2268933 C37.9965539,23.1723315 37.3903509,25.0506858 36.5147243,26.8619559 C34.1572682,32.2957663 28.768797,35.7841384 22.7741228,35.7170543 C19.8104637,35.8512224 16.8468045,35.4487179 14.0178572,34.4424568 L14.0178572,34.3753727 L12.8054511,37.3270722 C12.6033835,37.6624925 12.3339599,37.9308289 11.9971805,38.1320811 C11.7277569,38.2662492 11.4583334,38.3333333 11.1889098,38.3333333 C10.9194862,38.3333333 10.6500627,38.2662492 10.447995,38.1320811 C10.2459273,38.064997 10.1112155,37.997913 9.90914786,37.8637448 L9.70708019,37.6624925 L3.57769421,27.5998807 C3.44298244,27.3315444 3.30827068,27.0632081 3.30827068,26.7948718 C3.30827068,26.5936195 3.30827068,26.3923673 3.37562654,26.124031 C3.44298244,25.9227788 3.51033831,25.7886106 3.64505011,25.6544425 L4.04918545,25.251938 C4.18389722,25.1177698 4.31860902,25.0506858 4.45332079,24.9836017 C4.65538846,24.9165176 4.72274436,24.8494335 4.79010023,24.8494335 C4.85745613,24.9836017 4.92481199,24.9836017 4.92481203,24.9836017 L15.6343985,22.2331544 C16.1058897,22.0989863 16.5100251,22.0989863 16.9815163,22.1660704 C17.2509399,22.2331544 17.5877193,22.3002385 17.8571429,22.3673226 C18.0592105,22.4344067 18.2612782,22.6356589 18.3286341,22.8369112 C18.39599,23.0381634 18.4633458,23.1723315 18.5307017,23.3735838 L18.5307017,23.9102564 C18.5307017,24.0444246 18.4633458,24.1785928 18.4633459,24.3127609 C18.4633459,24.379845 18.39599,24.379845 18.39599,24.446929 L17.1162281,27.3986285 C19.1369047,28.1365533 21.2249373,28.6061419 23.3803258,28.8744782 C25.0642231,29.0757305 26.7481203,29.0086464 28.4320175,28.7403101 C29.7791353,28.4719738 31.0588972,28.0023852 32.2713033,27.3986285 C33.2816416,26.8619559 34.224624,26.2581992 35.1002506,25.5202743 C35.7738095,24.9165176 36.3800125,24.2456768 36.9188596,23.507752 C37.4577068,22.7698271 37.7944862,22.2331544 37.929198,21.9648181 C38.1986216,21.6293977 38.2659774,21.3610614 38.3333333,21.2268933 L38.3333333,21.2268933 Z M2.5,17.3360167 C2.9714912,15.055158 3.77976188,12.9084675 4.92481203,10.8959451 C7.7537594,5.73047109 13.3442982,2.77877164 19.2042607,3.24836017 C21.8984963,3.24836017 24.5927318,3.78503278 27.1522557,4.72420991 L28.4320175,1.83959451 C28.5667293,1.57125819 28.768797,1.37000595 29.0382205,1.16875375 C29.2402882,1.03458561 29.4423559,0.900417425 29.6444236,0.900417425 C29.7117795,0.833333333 29.9138471,0.833333333 30.1159148,0.833333333 C30.3179825,0.833333333 30.4526942,0.900417425 30.6547619,0.967501517 L31.0588972,1.16875375 C31.193609,1.23583784 31.2609649,1.3029219 31.3283208,1.37000599 L31.4630326,1.50417413 L37.3903509,11.7009541 C37.5250627,11.9692904 37.5924186,12.2376267 37.5924186,12.505963 C37.5924186,12.7072153 37.5924186,12.9084675 37.5250627,13.1768038 C37.4577068,13.3780561 37.3903509,13.5122242 37.2556391,13.6463924 C37.1209274,13.7805605 36.9862156,13.9147287 36.8515038,13.9818128 C36.716792,14.0488969 36.5820802,14.183065 36.4473684,14.2501491 L36.110589,14.3843172 C36.110589,14.3843172 36.0432331,14.4514013 35.9758772,14.4514013 L25.1989348,16.9335122 C24.5927318,17.0676804 23.9865288,17.0676804 23.4476817,16.8664282 C23.1109023,16.7993441 22.7741228,16.6651759 22.5720551,16.3297555 C22.4373434,16.0614192 22.3699875,15.8601669 22.3699875,15.5918307 C22.3699875,15.3905784 22.3699875,15.1893262 22.4373434,14.9209899 C22.4373434,14.7868217 22.5046993,14.7197376 22.5720551,14.6526536 L23.9191729,11.7680382 C21.8984963,10.9630292 19.8104637,10.4263566 17.6550752,10.1580203 C15.9711779,9.95676805 14.2872807,9.95676805 12.6033835,10.1580203 C11.2562657,10.3592725 9.97650376,10.8288611 8.76409775,11.4326178 C7.7537594,11.9022064 6.74342106,12.5059631 5.86779448,13.2438879 C5.19423556,13.8476446 4.52067669,14.5184854 3.91447369,15.2564103 C3.51033835,15.7259988 3.17355891,16.2626715 2.83677944,16.73226 C2.63471177,16.9335122 2.56735586,17.1347645 2.5,17.3360167 L2.5,17.3360167 Z" id="形状" fill="#E83737"></path>
                        </g>
                    </g>
                </g>
            </g>
        </g>
    </g>
</svg>