<?xml version="1.0" encoding="UTF-8"?>
<svg width="80px" height="80px" viewBox="0 0 80 80" version="1.1" xmlns="http://www.w3.org/2000/svg" xmlns:xlink="http://www.w3.org/1999/xlink">
    <title>safe_code@2x</title>
    <g id="defi" stroke="none" stroke-width="1" fill="none" fill-rule="evenodd">
        <g id="个人中心7安全中心" transform="translate(-63.000000, -508.000000)">
            <g id="编组备份" transform="translate(30.000000, 478.000000)">
                <g id="safe_code" transform="translate(33.000000, 30.000000)">
                    <circle id="椭圆形" fill-opacity="0.158855305" fill="#E8CA37" cx="40" cy="40" r="40"></circle>
                    <g id="消息" transform="translate(19.000000, 21.000000)" fill-rule="nonzero">
                        <rect id="矩形" fill="#000000" opacity="0" x="0" y="0" width="40" height="40"></rect>
                        <g id="资金" transform="translate(4.000000, 0.000000)">
                            <rect id="矩形" fill="#000000" opacity="0" x="0" y="0" width="36" height="36"></rect>
                            <path d="M33.8943669,32.2152 C33.8943669,32.7264 33.7908848,33.2376 33.5887337,33.648 C33.3841761,34.056 33.1796185,34.464 32.8763919,34.8744 C32.5470889,35.2031957 32.168804,35.4792547 31.7549348,35.6928 C31.3482261,35.8968 30.840442,36 30.3302512,36 L3.76663957,36 C3.25644882,36 2.7486646,35.8968 2.34195591,35.6928 C1.83176516,35.4888 1.42746305,35.2848 1.11942331,34.8768 C0.768029728,34.5260439 0.491350973,34.1080753 0.306005974,33.648 C0.0973867743,33.1993968 -0.00708333358,32.7096437 0.000372815489,32.2152 L0.000372815489,11.8632 C0.000372815489,10.8408 0.40948804,9.91919999 1.11942331,9.20400001 C1.8121801,8.48620329 2.76765895,8.07993236 3.76663957,8.0784 L30.4313267,8.0784 C31.4517082,8.0784 32.3662011,8.48639999 33.078543,9.20639999 C33.7908848,9.9216 34.2,10.8408 34.2,11.8632 L34.2,17.3856 L24.7325921,17.3856 C23.7146172,17.3856 22.8001243,17.6928 22.0853759,18.408 C21.3754406,19.1256 20.9663254,19.944 20.9663254,21.0672 C20.9663254,21.7848 21.170883,22.3968 21.3754406,22.908 C21.5775917,23.4216 21.9843004,23.8296 22.4944911,24.1368 C23.0022754,24.5448 23.7146172,24.7488 24.6315166,24.7488 L33.8943669,24.7488 L33.8943669,32.2152 Z M28.3977833,6.23999999 L9.97556492,6.23999999 C11.4002486,5.52479998 12.8249322,4.70639999 14.1485403,3.99120001 L17.5056918,2.14800001 C18.6271489,1.5336 19.4405662,1.12560001 20.152908,0.715200012 C21.0674009,0.204000012 21.9843004,0 22.6966422,0 C23.408984,0 24.1213259,0.204000012 24.6315166,0.407999988 C25.2427829,0.715199977 25.7505671,1.12559998 26.1572758,1.63680001 L28.3953768,6.23760001 L28.3977833,6.23999999 Z M22.9011998,21.072 C22.9011998,20.5584 23.1057574,20.1504 23.408984,19.74 C23.7687998,19.4077032 24.2422072,19.2248652 24.7325921,19.2288 C25.2427829,19.2288 25.647085,19.4352 26.0562002,19.74 C26.3618334,20.0472 26.566391,20.5584 26.566391,21.0696 C26.566391,21.5808 26.3618334,21.9912 26.0562002,22.3992 C25.7505671,22.8072 25.2427829,22.9104 24.7325921,22.9104 C24.2248079,22.9104 23.8180993,22.7064 23.408984,22.3992 C23.0613291,22.0459325 22.8772767,21.5640033 22.9011998,21.0696 L22.9011998,21.072 Z" id="形状" fill="#E8CA37"></path>
                        </g>
                    </g>
                </g>
            </g>
        </g>
    </g>
</svg>