<?xml version="1.0" encoding="UTF-8"?>
<svg width="80px" height="80px" viewBox="0 0 80 80" version="1.1" xmlns="http://www.w3.org/2000/svg" xmlns:xlink="http://www.w3.org/1999/xlink">
    <title>set_message</title>
    <g id="defi" stroke="none" stroke-width="1" fill="none" fill-rule="evenodd">
        <g id="个人中心9设置" transform="translate(-63.000000, -508.000000)">
            <g id="编组备份" transform="translate(30.000000, 478.000000)">
                <g id="set_message" transform="translate(33.000000, 30.000000)">
                    <circle id="椭圆形" fill-opacity="0.158855305" fill="#37E83B" cx="40" cy="40" r="40"></circle>
                    <g id="消息" transform="translate(22.000000, 22.000000)" fill-rule="nonzero">
                        <g id="语言英文">
                            <rect id="矩形" fill="#000000" opacity="0" x="0" y="0" width="38" height="38"></rect>
                            <path d="M34.5697389,5 L3.4302611,5 C2.64115153,5 2,5.63791639 2,6.42304426 L2,29.3955837 C2,30.1807115 2.64115153,30.8186279 3.4302611,30.8186279 L15.2631109,30.8186279 L17.8428922,34.4083231 C18.4081678,35.1972256 19.5880384,35.1972256 20.1571078,34.4083231 L22.7368891,30.8186279 L34.5697389,30.8186279 C35.3588485,30.8186279 36,30.1807115 36,29.3955837 L36,6.4192696 C36,5.63414174 35.3588485,5 34.5697389,5 Z M16.8868556,22.4087006 L10.3463513,22.4087006 L10.3463513,12.7229405 L16.8185673,12.7229405 L16.8185673,14.1346608 L11.9928587,14.1346608 L11.9928587,16.7127489 L16.545414,16.7127489 L16.545414,18.1357931 L11.9928587,18.1357931 L11.9928587,20.9969803 L17.0765454,20.9969803 L16.8868556,22.4087006 L16.8868556,22.4087006 Z M27.611917,22.4049259 L26.086811,22.4049259 L21.6025441,15.4369161 L21.6025441,22.4049259 L20.0091497,22.4049259 L20.0091497,12.7229405 L21.5342557,12.7229405 L26.0033475,19.7211475 L26.0033475,12.7229405 L27.611917,12.7229405 L27.611917,22.4049259 Z" id="形状" fill="#40B748"></path>
                        </g>
                    </g>
                </g>
            </g>
        </g>
    </g>
</svg>