<?xml version="1.0" encoding="UTF-8"?>
<svg width="80px" height="80px" viewBox="0 0 80 80" version="1.1" xmlns="http://www.w3.org/2000/svg" xmlns:xlink="http://www.w3.org/1999/xlink">
    <title>set_update</title>
    <g id="defi" stroke="none" stroke-width="1" fill="none" fill-rule="evenodd">
        <g id="个人中心9设置" transform="translate(-63.000000, -320.000000)">
            <g id="编组备份-2" transform="translate(30.000000, 290.000000)">
                <g id="set_update" transform="translate(33.000000, 30.000000)">
                    <circle id="椭圆形" fill-opacity="0.158855305" fill="#E8CA37" cx="40" cy="40" r="40"></circle>
                    <g id="消息" transform="translate(19.000000, 20.000000)" fill-rule="nonzero">
                        <rect id="矩形" fill="#000000" opacity="0" x="0" y="0" width="40" height="40"></rect>
                        <g id="资金" transform="translate(1.000000, 0.000000)">
                            <rect id="矩形" fill="#000000" opacity="0" x="3" y="0" width="36" height="36"></rect>
                            <g id="版本管理">
                                <rect id="矩形" fill="#000000" opacity="0" x="0" y="0" width="40" height="40"></rect>
                                <path d="M17.2,4 L23.8,4 C24.6752144,4 25.5145823,4.34379599 26.1334524,4.9557568 C26.7523224,5.56771762 27.1,6.3977146 27.1,7.26315788 L27.1,10.5263158 L33.7,10.5263158 C34.5752144,10.5263158 35.4145823,10.8701118 36.0334524,11.4820726 C36.6523224,12.0940334 37,12.9240304 37,13.7894737 L37,31.7368421 C37,32.6022854 36.6523224,33.4322824 36.0334524,34.0442432 C35.4145823,34.656204 34.5752144,35 33.7,35 L7.30000002,35 C6.4247856,35 5.58541769,34.656204 4.96654763,34.0442432 C4.34767758,33.4322824 4,32.6022854 4,31.7368421 L4,13.7894737 C4,12.9240304 4.34767756,12.0940334 4.96654762,11.4820726 C5.58541767,10.8701118 6.4247856,10.5263158 7.30000002,10.5263158 L13.9,10.5263158 L13.9,7.26315788 C13.9,6.3977146 14.2476776,5.56771762 14.8665476,4.9557568 C15.4854177,4.34379599 16.3247856,4 17.2,4 M23.8,10.5263158 L23.8,7.26315788 L17.2,7.26315788 L17.2,10.5263158 L23.8,10.5263158 M20.5,15.4210526 L12.25,23.5789474 L17.2,23.5789474 L17.2,30.1052632 L23.8,30.1052632 L23.8,23.5789474 L28.75,23.5789474 L20.5,15.4210526 Z" id="形状" fill="#FD8619"></path>
                            </g>
                        </g>
                    </g>
                </g>
            </g>
        </g>
    </g>
</svg>