<?xml version="1.0" encoding="UTF-8"?>
<svg width="103px" height="103px" viewBox="0 0 103 103" version="1.1" xmlns="http://www.w3.org/2000/svg" xmlns:xlink="http://www.w3.org/1999/xlink">
    <title>success@2x</title>
    <g id="新增" stroke="none" stroke-width="1" fill="none" fill-rule="evenodd">
        <g id="26提示" transform="translate(-324.000000, -639.000000)" fill-rule="nonzero">
            <g id="编组-13" transform="translate(75.000000, 548.000000)">
                <g id="success" transform="translate(249.000000, 91.000000)">
                    <rect id="矩形" fill="#000000" opacity="0" x="0" y="0" width="103" height="103"></rect>
                    <path d="M0,51.5 C0,79.9426646 23.0573354,103 51.5,103 C79.9426646,103 103,79.9426646 103,51.5 C103,23.0573354 79.9426646,0 51.5,0 C23.0573354,0 0,23.0573354 0,51.5 Z" id="路径" fill="#F6A702"></path>
                    <path d="M18.1878975,55.670638 C16.5801775,53.994655 16.6077998,51.3388142 18.2500299,49.6967098 C19.89226,48.0546054 22.5451046,48.0301845 24.2172185,49.6417786 L32.8357733,58.4390669 C34.44553,60.1130894 34.421137,62.7689619 32.7809047,64.4130664 C31.1406724,66.057171 28.4878595,66.0848248 26.8137873,64.4752696 L18.1878975,55.670638 Z M74.4468895,30.5565097 C75.4204433,29.3713965 76.9546805,28.8009504 78.4649169,29.0625633 C79.9751533,29.3241761 81.2287434,30.3775476 81.747955,31.8212472 C82.2671667,33.2649468 81.9720176,34.8765786 80.9749864,36.041964 L39.8333064,72.5088534 C38.3130551,74.2858075 35.6469567,74.5055293 33.8569159,73.0013869 C32.0668752,71.4972446 31.8207561,68.8304336 33.3052095,67.0233991 L74.4322197,30.541823 L74.4468895,30.5565097 Z" id="形状" fill="#FFFFFF"></path>
                </g>
            </g>
        </g>
    </g>
</svg>