<?xml version="1.0" encoding="UTF-8"?>
<svg width="57px" height="58px" viewBox="0 0 57 58" version="1.1" xmlns="http://www.w3.org/2000/svg" xmlns:xlink="http://www.w3.org/1999/xlink">
    <title>tab_price_press</title>
    <g id="图标0326" stroke="none" stroke-width="1" fill="none" fill-rule="evenodd">
        <g id="首页备份" transform="translate(-194.000000, -2571.000000)">
            <g id="编组-33" transform="translate(-1.000000, 2553.000000)">
                <g id="tab_price_press" transform="translate(195.250000, 18.000000)">
                    <rect id="矩形" x="0" y="1.11713585" width="56" height="56"></rect>
                    <g id="dynamic_fill" transform="translate(0.750000, 0.000000)" fill-rule="nonzero">
                        <rect id="矩形" fill="#000000" opacity="0" x="0" y="0" width="56" height="56"></rect>
                        <path d="M41.5867273,26.708 L34.061,34.2337273 C33.7377666,34.558816 33.298253,34.7416057 32.8398182,34.7416057 C32.3813834,34.7416057 31.9418698,34.558816 31.6186364,34.2337273 L26.0948182,28.7099091 L18.8506364,35.8815455 C18.5253426,36.2043846 18.0848802,36.3843979 17.6265851,36.3818326 C17.16829,36.3792121 16.7298927,36.1942265 16.4082727,35.8677273 C15.7373041,35.1898942 15.7427168,34.0965204 16.4203636,33.4253636 L24.8857273,25.0446364 C25.5615296,24.3756931 26.6509103,24.3787813 27.3229091,25.0515455 L32.8398182,30.5701818 L39.1443636,24.2656364 C39.5806499,23.8293501 40.2165509,23.6589609 40.812529,23.8186528 C41.4085071,23.9783446 41.874019,24.4438565 42.0337109,25.0398346 C42.1934027,25.6358127 42.0230135,26.2717138 41.5867273,26.708 M43.5592727,9 L12.4407273,9 C10.5412554,9.00190423 9.00190423,10.5412554 9,12.4407273 L9,43.5592727 C9,45.4575455 10.5424545,47 12.4407273,47 L43.5592727,47 C45.4587446,46.9980958 46.9980958,45.4587446 47,43.5592727 L47,12.4407273 C46.9971464,10.5416493 45.4583507,9.00285362 43.5592727,9" id="形状" fill="#F0A719"></path>
                    </g>
                </g>
            </g>
        </g>
    </g>
</svg>