<?xml version="1.0" encoding="UTF-8"?>
<svg width="56px" height="57px" viewBox="0 0 56 57" version="1.1" xmlns="http://www.w3.org/2000/svg" xmlns:xlink="http://www.w3.org/1999/xlink">
    <title>tab_asset_default</title>
    <g id="图标0326" stroke="none" stroke-width="1" fill="none" fill-rule="evenodd">
        <g id="首页备份" transform="translate(-639.000000, -2573.000000)" fill-rule="nonzero">
            <g id="编组-33" transform="translate(-1.000000, 2553.000000)">
                <g id="integral" transform="translate(640.000000, 20.000000)">
                    <rect id="矩形" fill="#000000" opacity="0" x="0" y="0" width="56" height="56"></rect>
                    <path d="M44.267698,22.7973365 L27.4947175,43.2709631 L10.7252351,22.811415 C10.5240992,22.5650416 10.4279038,21.8963139 10.5503343,21.5971463 L13.6408303,14.0721998 C13.7422727,13.8240666 14.1952656,13.5196195 14.4628638,13.5196195 L40.5335673,13.5196195 C40.7959184,13.5196195 41.2559073,13.829346 41.3556008,14.0721998 L44.4460967,21.5865874 C44.5737743,21.8963139 44.4810769,22.5404043 44.271196,22.7973365 M47.6782623,20.2403329 L44.5860173,12.7241855 C43.9441316,11.1720333 42.2021203,10 40.5318183,10 L14.4593658,10 C12.7873147,10 11.0435544,11.1737931 10.4051667,12.7294649 L7.31467074,20.2544114 C6.70251817,21.7467301 7.00684545,23.8074673 8.02476773,25.049893 L25.0286172,45.7945303 C25.6582598,46.5600476 26.5572496,47 27.4947175,47 L27.4964665,47 C28.4356835,47 29.3346733,46.5582878 29.9625669,45.7927705 L46.9664163,25.0358145 C48.0018287,23.7740309 48.2991599,21.7572889 47.6765133,20.2403329 M33.6179923,20.5588585 L21.3749408,20.5588585 C20.4089907,20.5588585 19.6259335,21.3467522 19.6259335,22.3186683 C19.6259335,23.2905843 20.4089907,24.078478 21.3749408,24.078478 L33.6179923,24.078478 C34.5839423,24.078478 35.3669996,23.2905843 35.3669996,22.3186683 C35.3669996,21.3467522 34.5839423,20.5588585 33.6179923,20.5588585" id="形状" fill="#FFFFFF"></path>
                </g>
            </g>
        </g>
    </g>
</svg>