<?xml version="1.0" encoding="UTF-8"?>
<svg width="56px" height="56px" viewBox="0 0 56 56" version="1.1" xmlns="http://www.w3.org/2000/svg" xmlns:xlink="http://www.w3.org/1999/xlink">
    <title>tab_home_press</title>
    <g id="图标0326" stroke="none" stroke-width="1" fill="none" fill-rule="evenodd">
        <g id="首页备份" transform="translate(-43.000000, -2572.000000)" fill-rule="nonzero">
            <g id="编组-33" transform="translate(-1.000000, 2553.000000)">
                <g id="homepage_fill" transform="translate(44.000000, 19.000000)">
                    <rect id="矩形" fill="#000000" opacity="0" x="0" y="0" width="56" height="56"></rect>
                    <path d="M35.0230109,43.4733887 L16.2775225,43.4733887 L16.2775225,43.468104 L21.0116209,43.4698656 L21.0116209,36.9257291 C21.0116209,36.8816905 21.0238809,36.841175 21.0238809,36.798898 C21.0939378,32.9675395 24.1974607,29.8689834 28.0173159,29.8689834 C31.8371711,29.8689834 34.940694,32.969301 35.010751,36.798898 C35.010751,36.841175 35.0230109,36.8816905 35.0230109,36.9257291 L35.0230109,43.4733887 Z M48.2077289,19.9303514 L43.7801297,17.0132343 L43.7801297,11.3604392 C43.7801297,10.3875652 42.9959906,9.59889507 42.0287059,9.59889507 C41.0614213,9.59889507 40.2772822,10.3875652 40.2772822,11.3604392 L40.2772822,14.707373 L28.9770961,7.25780292 C28.6802575,7.07305653 28.3343834,6.98393718 27.9857903,7.00237903 C27.6465801,6.989226 27.3111815,7.07816023 27.0225072,7.25780292 L7.79187446,19.9321129 C6.98274087,20.4652479 6.75651673,21.5571617 7.28658871,22.3709708 C7.81666069,23.1847798 8.9023013,23.4123112 9.71143489,22.8791763 L10.5030784,22.3559976 L10.5030784,43.9948057 C10.5030784,45.6506572 11.9900372,47 13.8185236,47 L42.2161083,47 C44.0445947,46.9982385 45.5315534,45.6506572 45.5315534,43.9948057 L45.5315534,22.3806593 L46.2899199,22.8791763 C47.0990535,23.4118247 48.1843021,23.1838991 48.7138904,22.37009 C49.2434787,21.5562809 49.0168625,20.4647614 48.2077289,19.9321129 L48.2077289,19.9303514 Z" id="形状" fill="#F0A719"></path>
                </g>
            </g>
        </g>
    </g>
</svg>