<?xml version="1.0" encoding="UTF-8"?>
<svg width="57px" height="57px" viewBox="0 0 57 57" version="1.1" xmlns="http://www.w3.org/2000/svg" xmlns:xlink="http://www.w3.org/1999/xlink">
    <title>tab_predict_press</title>
    <g id="图标0326" stroke="none" stroke-width="1" fill="none" fill-rule="evenodd">
        <g id="首页备份" transform="translate(-341.000000, -2570.000000)" fill-rule="nonzero">
            <g id="编组-33" transform="translate(-1.000000, 2553.000000)">
                <g id="createtask_fill" transform="translate(342.000000, 17.000000)">
                    <rect id="矩形" fill="#000000" opacity="0" x="0" y="0" width="56" height="56"></rect>
                    <path d="M37.1022774,20.4090965 L25.0108187,20.4090965 C24.0568289,20.4090965 23.2834674,19.6154197 23.2834674,18.6363696 C23.2834674,17.6573196 24.0568289,16.8636427 25.0108187,16.8636427 L37.1022774,16.8636427 C38.0562671,16.8636427 38.8296286,17.6573196 38.8296286,18.6363696 C38.8296286,19.6154197 38.0562671,20.4090965 37.1022774,20.4090965 M37.1022774,29.272731 L25.0108187,29.272731 C24.0568289,29.272731 23.2834674,28.4790541 23.2834674,27.5000041 C23.2834674,26.5209541 24.0568289,25.7272772 25.0108187,25.7272772 L37.1022774,25.7272772 C38.0562671,25.7272772 38.8296286,26.5209541 38.8296286,27.5000041 C38.8296286,28.4790541 38.0562671,29.272731 37.1022774,29.272731 M37.1022774,38.1363655 L25.0108187,38.1363655 C24.0568289,38.1363655 23.2834674,37.3426886 23.2834674,36.3636386 C23.2834674,35.3845886 24.0568289,34.5909117 25.0108187,34.5909117 L37.1022774,34.5909117 C38.0562671,34.5909117 38.8296286,35.3845886 38.8296286,36.3636386 C38.8296286,37.3426886 38.0562671,38.1363655 37.1022774,38.1363655 M19.3623801,20.4090965 C18.4083904,20.4090965 17.6350289,19.6154197 17.6350289,18.6363696 C17.6350289,17.6573196 18.4083904,16.8636427 19.3623801,16.8636427 C20.3163699,16.8636427 21.0897314,17.6573196 21.0897314,18.6363696 C21.0897314,19.6154197 20.3163699,20.4090965 19.3623801,20.4090965 M19.3623801,29.272731 C18.4384079,29.2303137 17.7105703,28.4491963 17.7105703,27.5000041 C17.7105703,26.5508119 18.4384079,25.7696946 19.3623801,25.7272772 C20.3163698,25.7272772 21.0897313,26.5209541 21.0897313,27.5000041 C21.0897313,28.4790541 20.3163698,29.272731 19.3623801,29.272731 M19.3623801,38.1363655 C18.4384079,38.0939481 17.7105703,37.3128308 17.7105703,36.3636386 C17.7105703,35.4144464 18.4384079,34.6333291 19.3623801,34.5909117 C20.3163699,34.5909117 21.0897314,35.3845886 21.0897314,36.3636386 C21.0897314,37.3426886 20.3163699,38.1363655 19.3623801,38.1363655 M43.5401155,8.00000411 L12.437429,8.00000411 C10.5388256,8.00294097 9.00095049,9.5828006 9,11.5312802 L9,43.468728 C9,45.4151822 10.544252,47.0000041 12.442611,47.0000041 L43.562571,47.0000041 C45.4611744,46.9970673 46.9990495,45.4172076 47,43.468728 L47,11.5312802 C46.9923837,9.57664372 45.4447331,7.99706062 43.5401155,8.00000411" id="形状" fill="#F0A719"></path>
                </g>
            </g>
        </g>
    </g>
</svg>