<?xml version="1.0" encoding="UTF-8"?>
<svg width="57px" height="59px" viewBox="0 0 57 59" version="1.1" xmlns="http://www.w3.org/2000/svg" xmlns:xlink="http://www.w3.org/1999/xlink">
    <title>tab_money_default</title>
    <g id="图标0326" stroke="none" stroke-width="1" fill="none" fill-rule="evenodd">
        <g id="首页备份" transform="translate(-490.000000, -2571.000000)" fill-rule="nonzero">
            <g id="编组-33" transform="translate(-1.000000, 2553.000000)">
                <g id="编组-31备份" transform="translate(491.750000, 18.117136)">
                    <g id="headlines_fill" transform="translate(0.250000, 1.882864)">
                        <rect id="矩形" fill="#000000" opacity="0" x="0" y="0" width="56" height="56"></rect>
                        <path d="M42,27.5000057 L31.5,27.5000057 L31.5,17.0000057 L42,17.0000057 L42,27.5000057 Z M24.5,29.2500016 C24.5,30.2164996 23.7164983,31.0000022 22.75,31.0000022 L15.75,31.0000022 C14.7835017,31.0000022 14,30.2164996 14,29.2500016 C14,28.2835037 14.7835017,27.5000022 15.75,27.5000022 L22.75,27.5000022 C23.21725,27.5000022 23.6355,27.6890022 23.94875,27.9865021 C24.2988367,28.3136576 24.4983034,28.7708477 24.5,29.2500016 Z M31.5,36.2499993 C31.5,37.2164973 30.7164983,37.9999999 29.75,37.9999999 L15.75,37.9999999 C14.7835017,37.9999999 14,37.2164973 14,36.2499993 C14,35.2835013 14.7835017,34.4999999 15.75,34.4999999 L29.75,34.4999999 C30.21725,34.4999999 30.6355,34.6889998 30.94875,34.9864997 C31.2988367,35.3136552 31.4983034,35.7708454 31.5,36.2499993 Z M45.49475,10.000004 L10.5035,10.000004 C8.57391151,9.99806668 7.00675259,11.5581799 7,13.4877569 L7,41.5122475 C7,41.9532474 7.091,42.3714973 7.2415,42.7599971 C7.2555,42.7949971 7.26075,42.8334971 7.27475,42.8684971 C7.31675,42.9664971 7.378,43.053997 7.42875,43.148497 C7.48475,43.253497 7.532,43.3637469 7.5985,43.4599969 C7.6335,43.5124969 7.679,43.5527469 7.71575,43.6017469 C7.81375,43.7312468 7.91175,43.8642468 8.02725,43.9762467 C8.0815,44.0304967 8.14625,44.0707467 8.20225,44.1214967 C8.31425,44.2194966 8.42275,44.3209966 8.547,44.4032466 C8.5715,44.4207466 8.603,44.4312466 8.62925,44.4487466 C8.792,44.5537465 8.96,44.6499965 9.142,44.7252465 C9.31875,44.8004965 9.50775,44.8529964 9.6985,44.8967464 C9.73175,44.9054964 9.76325,44.9212464 9.79825,44.9282464 C10.02575,44.9754964 10.262,45.000004 10.50525,45.000004 L45.4965,45.000004 C47.4260885,45.0019378 48.9932474,43.4418246 49,41.5122475 L49,13.4895069 C48.9942093,11.5585619 47.4257022,9.99710297 45.49475,10.000004 Z" id="形状" fill="#F0A719"></path>
                    </g>
                </g>
            </g>
        </g>
    </g>
</svg>