<?xml version="1.0" encoding="UTF-8"?>
<svg width="56px" height="57px" viewBox="0 0 56 57" version="1.1" xmlns="http://www.w3.org/2000/svg" xmlns:xlink="http://www.w3.org/1999/xlink">
    <title>tab_asset_press</title>
    <g id="图标0326" stroke="none" stroke-width="1" fill="none" fill-rule="evenodd">
        <g id="首页备份" transform="translate(-639.000000, -2573.000000)" fill-rule="nonzero">
            <g id="编组-33" transform="translate(-1.000000, 2553.000000)">
                <g id="integral_fill" transform="translate(640.000000, 20.000000)">
                    <rect id="矩形" fill="#000000" opacity="0" x="0" y="0" width="56" height="56"></rect>
                    <path d="M33.6186057,24.078478 L21.3760766,24.078478 C20.4101677,24.078478 19.6271438,23.2905843 19.6271438,22.3186683 C19.6271438,21.3467522 20.4101677,20.5588585 21.3760766,20.5588585 L33.6186057,20.5588585 C34.5845146,20.5588585 35.3675385,21.3467522 35.3675385,22.3186683 C35.3675385,23.2905843 34.5845146,24.078478 33.6186057,24.078478 M47.6747782,20.2403329 L44.584414,12.7241855 C44.4598061,12.4346419 44.3012797,12.1611078 44.1122022,11.9093936 L44.1122022,11.7598098 L44.0002705,11.7598098 C43.1660296,10.7144828 41.8315939,10 40.5303879,10 L14.4590476,10 C13.1595905,10 11.8234059,10.7127229 10.9909139,11.7598098 L10.8824801,11.7598098 L10.8824801,11.9111534 C10.6911936,12.1632851 10.5314262,12.4381155 10.4067704,12.7294649 L7.31465732,20.2544114 C6.70253086,21.7467301 7.00684516,23.8074673 8.02472401,25.049893 L10.8807312,28.5343163 L14.4415582,32.8775268 L25.0278481,45.7945303 C25.6574639,46.5600476 26.5564153,47 27.4938433,47 L27.4955922,47 C28.4347691,47 29.3337205,46.5582878 29.9615874,45.7927705 L40.5443794,32.8775268 L44.1122022,28.5202378 L46.9664604,25.0358145 C48.0018286,23.7740309 48.2991472,21.7572889 47.6765271,20.2403329" id="形状" fill="#F0A719"></path>
                </g>
            </g>
        </g>
    </g>
</svg>