<?xml version="1.0" encoding="UTF-8"?>
<svg width="57px" height="58px" viewBox="0 0 57 58" version="1.1" xmlns="http://www.w3.org/2000/svg" xmlns:xlink="http://www.w3.org/1999/xlink">
    <title>tab_money_press</title>
    <g id="图标0326" stroke="none" stroke-width="1" fill="none" fill-rule="evenodd">
        <g id="首页备份" transform="translate(-490.000000, -2571.000000)" fill-rule="nonzero">
            <g id="编组-33" transform="translate(-1.000000, 2553.000000)">
                <g id="编组-31备份" transform="translate(491.750000, 18.117136)">
                    <g id="headlines" transform="translate(0.250000, 0.882864)">
                        <rect id="矩形" fill="#000000" opacity="0" x="0" y="0" width="56" height="56"></rect>
                        <path d="M45.49475,42.4999935 L10.5,42.5122435 L10.50525,14.5000065 L45.5,14.4895065 L45.51225,42.4982435 L45.49475,42.4999935 M45.49475,11.000004 L10.50525,11.000004 C8.57429781,10.997103 7.00579068,12.5585617 7,14.4895065 L7,42.5122435 C7.00675377,44.4425042 8.57497877,46.0028991 10.50525,46.000004 L45.49475,46.000004 C47.4246245,46.0019362 48.9922853,44.4421027 49,42.5122435 L49,14.4895065 C48.9932474,12.5589632 47.425305,10.9980667 45.49475,11.000004 M15.75,32 L22.75,32 C23.7164983,32 24.5,31.216497 24.5,30.2499992 C24.5,29.2835013 23.7164983,28.5 22.75,28.5 L15.75,28.5 C14.7835017,28.5 14,29.2835013 14,30.2499992 C14,31.216497 14.7835017,32 15.75,32 M29.75,35.4999968 L15.75,35.4999968 C14.7835017,35.4999968 14,36.2834981 14,37.2499959 C14,38.2164938 14.7835017,38.9999968 15.75,38.9999968 L29.75,38.9999968 C30.7164983,38.9999968 31.5,38.2164938 31.5,37.2499959 C31.5,36.2834981 30.7164983,35.4999968 29.75,35.4999968 M28,18.0000048 L28,32.0000048 L42,32.0000048 L42,18.0000048 L28,18.0000048 Z M38.5,28.5000032 L31.5,28.5000032 L31.5,21.5000032 L38.5,21.5000032 L38.5,28.5000032 Z" id="形状" fill="#FFFFFF"></path>
                    </g>
                </g>
            </g>
        </g>
    </g>
</svg>