<?xml version="1.0" encoding="UTF-8"?>
<svg width="56px" height="57px" viewBox="0 0 56 57" version="1.1" xmlns="http://www.w3.org/2000/svg" xmlns:xlink="http://www.w3.org/1999/xlink">
    <title>tab_home_default</title>
    <defs>
        <rect id="path-1" x="0" y="0" width="56" height="56"></rect>
    </defs>
    <g id="图标0326" stroke="none" stroke-width="1" fill="none" fill-rule="evenodd">
        <g id="首页备份" transform="translate(-43.000000, -2572.000000)">
            <g id="编组-33" transform="translate(-1.000000, 2553.000000)">
                <g id="编组-26" transform="translate(44.000000, 19.000000)">
                    <g id="tab_home_default" transform="translate(0.000000, 0.117136)">
                        <mask id="mask-2" fill="white">
                            <use xlink:href="#path-1"></use>
                        </mask>
                        <g id="矩形"></g>
                        <g id="homepage" mask="url(#mask-2)" fill-rule="nonzero">
                            <rect id="矩形" fill="#000000" opacity="0" x="0" y="0" width="56" height="56"></rect>
                            <path d="M42.0287059,43.4767566 L35.0230109,43.474995 L35.0230109,36.9270471 C35.0220509,33.0340678 31.8877531,29.8767912 28.0173159,29.8699905 C24.1536751,29.8699905 21.0116209,33.0356247 21.0116209,36.9270471 L21.0116209,43.4714717 L14.0059259,43.4697101 L14.0059259,20.0489495 L27.9998017,10.8268599 L42.0287059,20.070089 L42.0287059,43.4767566 Z M31.5201634,43.474995 L24.5144684,43.4732333 L24.5144684,36.9270471 C24.5144684,34.9786935 26.0854955,33.3932339 28.0173159,33.3932339 C29.9491363,33.3932339 31.5201634,34.9786935 31.5201634,36.9270471 L31.5201634,43.474995 L31.5201634,43.474995 Z M48.2077289,19.9309208 L43.7801297,17.0136753 L43.7801297,11.3606312 C43.7801297,10.3877144 42.9959906,9.59900953 42.0287059,9.59900953 C41.0614213,9.59900953 40.2772822,10.3877144 40.2772822,11.3606312 L40.2772822,14.7059509 L28.9770961,7.25781428 C28.6802575,7.07305974 28.3343834,6.98393647 27.9857903,7.00237913 C27.6465801,6.98922552 27.3111814,7.07816367 27.0225072,7.25781428 L7.79187444,19.9309208 C6.98274087,20.4640793 6.75651674,21.5560412 7.28658871,22.3698861 C7.81666068,23.183731 8.90230128,23.4112723 9.71143487,22.878114 L10.5030784,22.3566739 L10.5030784,43.9946734 C10.5030784,45.6505978 11.9917886,47 13.8185236,47 L42.2161083,47 C44.0445947,47 45.5315534,45.6505978 45.5315534,43.9946734 L45.5315534,22.379575 L46.2899199,22.878114 C47.0990535,23.4107859 48.1843021,23.1828502 48.7138904,22.3690053 C49.2434787,21.5551604 49.0168625,20.4635928 48.2077289,19.9309208 Z" id="形状" fill="#FFFFFF"></path>
                        </g>
                    </g>
                </g>
            </g>
        </g>
    </g>
</svg>