<?xml version="1.0" encoding="UTF-8"?>
<svg width="56px" height="58px" viewBox="0 0 56 58" version="1.1" xmlns="http://www.w3.org/2000/svg" xmlns:xlink="http://www.w3.org/1999/xlink">
    <title>tab_price_default</title>
    <g id="图标0326" stroke="none" stroke-width="1" fill="none" fill-rule="evenodd">
        <g id="首页备份" transform="translate(-195.000000, -2573.000000)" fill-rule="nonzero">
            <g id="编组-33" transform="translate(-1.000000, 2553.000000)">
                <g id="编组-30" transform="translate(195.250000, 18.000000)">
                    <g id="tab_price_default" transform="translate(0.750000, 2.117136)">
                        <g id="dynamic" transform="translate(0.000000, 0.882864)">
                            <rect id="矩形" fill="#000000" opacity="0" x="0" y="0" width="56" height="56"></rect>
                            <path d="M12.4545455,43.5592727 L12.4545455,12.4545455 L43.5454545,12.439 L43.5592727,43.5471818 L12.4545455,43.5575455 L12.4545455,43.5592727 Z M43.5592727,9 L12.4407273,9 C10.5419288,9.00190237 9.00285582,10.5402027 9,12.439 L9,43.5592727 C9,45.4558182 10.5441818,47 12.4407273,47 L43.5592727,47 C45.4583507,46.9971464 46.9971464,45.4583507 47,43.5592727 L47,12.439 C46.9961933,10.5408773 45.4573983,9.00362729 43.5592727,9.00172727 L43.5592727,9 Z M39.1443636,24.2656364 L32.8398182,30.5684545 L27.3246364,25.0515455 C26.6526376,24.3787813 25.5632569,24.3756931 24.8874545,25.0446364 L16.4220909,33.4219091 C15.7765743,34.0986192 15.7861452,35.1659523 16.4436932,35.8309778 C17.1012412,36.4960033 18.1683979,36.5176419 18.8523636,35.8798182 L26.0965455,28.7099091 L31.6203636,34.2337273 C32.3059089,34.8808019 33.377182,34.8808019 34.0627273,34.2337273 L41.5867273,26.708 C42.0230135,26.2717138 42.1934027,25.6358127 42.0337109,25.0398346 C41.874019,24.4438565 41.4085071,23.9783446 40.812529,23.8186528 C40.2165509,23.6589609 39.5806499,23.8293501 39.1443636,24.2656364" id="形状" fill="#FFFFFF"></path>
                        </g>
                    </g>
                </g>
            </g>
        </g>
    </g>
</svg>