<?xml version="1.0" encoding="UTF-8"?>
<svg width="57px" height="56px" viewBox="0 0 57 56" version="1.1" xmlns="http://www.w3.org/2000/svg" xmlns:xlink="http://www.w3.org/1999/xlink">
    <title>tab_predict_default</title>
    <g id="图标0326" stroke="none" stroke-width="1" fill="none" fill-rule="evenodd">
        <g id="首页备份" transform="translate(-341.000000, -2570.000000)" fill-rule="nonzero">
            <g id="编组-33" transform="translate(-1.000000, 2553.000000)">
                <g id="createtask" transform="translate(342.500000, 17.000000)">
                    <rect id="矩形" fill="#000000" opacity="0" x="0" y="0" width="56" height="56"></rect>
                    <path d="M29.2727273,43.5539363 L11.5454545,43.562573 L11.5419091,38.3632488 L11.5383636,29.7264976 L11.5365909,26.2717972 L11.5312727,17.635046 L11.5295,12.4529953 L43.4456818,12.4529953 L43.4545455,12.4426312 L43.4687273,43.5470269 L29.2727273,43.5539363 Z M43.4456818,9.00001105 L11.5295,9.00001105 C9.58073434,9.00287809 8.00195243,10.5420201 8,12.4409038 L8,43.562573 C8,45.4592036 9.58481818,47 11.5312727,47 L43.4687273,47 C45.4161132,46.9981027 46.9951179,45.4618335 47,43.5643004 L47,12.4409038 C46.992182,10.5349491 45.401715,8.995242 43.4456818,9.00001105 Z M36.8405,17.6367733 L24.4314091,17.6367733 C23.4523589,17.6367733 22.6586818,18.4101344 22.6586818,19.3641236 C22.6586818,20.3181128 23.4523589,21.0914738 24.4314091,21.0914738 L36.8405,21.0914738 C37.8195502,21.0914738 38.6132273,20.3181128 38.6132273,19.3641236 C38.6132273,18.4101344 37.8195502,17.6367733 36.8405,17.6367733 M36.8405,26.2735245 L24.4314091,26.2735245 C23.4523589,26.2735245 22.6586818,27.0468856 22.6586818,28.0008747 C22.6586818,28.9548639 23.4523589,29.728225 24.4314091,29.728225 L36.8405,29.728225 C37.8195502,29.728225 38.6132273,28.9548639 38.6132273,28.0008747 C38.6132273,27.0468856 37.8195502,26.2735245 36.8405,26.2735245 M36.8405,34.9102757 L24.4314091,34.9102757 C23.4523589,34.9102757 22.6586818,35.6836367 22.6586818,36.6376259 C22.6586818,37.5916151 23.4523589,38.3649762 24.4314091,38.3649762 L36.8405,38.3649762 C37.8195502,38.3649762 38.6132273,37.5916151 38.6132273,36.6376259 C38.6132273,35.6836367 37.8195502,34.9102757 36.8405,34.9102757 M18.6363636,17.6367733 C17.6573134,17.6367733 16.8636364,18.4101344 16.8636364,19.3641236 C16.8636364,20.3181128 17.6573134,21.0914738 18.6363636,21.0914738 C19.6154139,21.0914738 20.4090909,20.3181128 20.4090909,19.3641236 C20.4090909,18.4101344 19.6154139,17.6367733 18.6363636,17.6367733 M18.6363636,26.2735245 C17.6573134,26.2735245 16.8636364,27.0468856 16.8636364,28.0008747 C16.8636364,28.9548639 17.6573134,29.728225 18.6363636,29.728225 C19.6154139,29.728225 20.4090909,28.9548639 20.4090909,28.0008747 C20.4090909,27.0468856 19.6154139,26.2735245 18.6363636,26.2735245 M18.6363636,34.9102757 C17.6573134,34.9102757 16.8636364,35.6836367 16.8636364,36.6376259 C16.8636364,37.5916151 17.6573134,38.3649762 18.6363636,38.3649762 C19.6154139,38.3649762 20.4090909,37.5916151 20.4090909,36.6376259 C20.4090909,35.6836367 19.6154139,34.9102757 18.6363636,34.9102757" id="形状" fill="#FFFFFF"></path>
                </g>
            </g>
        </g>
    </g>
</svg>