<?xml version="1.0" encoding="UTF-8"?>
<svg width="32px" height="32px" viewBox="0 0 32 32" version="1.1" xmlns="http://www.w3.org/2000/svg" xmlns:xlink="http://www.w3.org/1999/xlink">
    <title>withdraw</title>
    <g id="新增" stroke="none" stroke-width="1" fill="none" fill-rule="evenodd">
        <g id="12资产2-财务（充提记录）" transform="translate(-33.000000, -795.000000)" fill="#0FD176">
            <g id="编组-5" transform="translate(33.000000, 636.000000)">
                <g id="编组-13备份" transform="translate(0.000000, 152.000000)">
                    <g id="withdraw" transform="translate(0.000000, 7.000000)">
                        <path d="M16,0 C24.836556,0 32,7.163444 32,16 C32,24.836556 24.836556,32 16,32 C7.163444,32 0,24.836556 0,16 C0,7.163444 7.163444,0 16,0 Z M18.2940108,7.84210526 L13.430127,14.6293067 L16.3354869,14.6293067 C16.1151001,18.7824992 13.1313339,22.2739967 9.05263158,23.1514462 C11.6996234,23.7195382 14.4634095,23.1019857 16.61377,21.4619523 C18.7641304,19.8219189 20.0847084,17.3244152 20.2265939,14.6293067 L23.1578946,14.6293067 L18.2940108,7.84210526 Z" id="形状结合"></path>
                    </g>
                </g>
            </g>
        </g>
    </g>
</svg>