<?xml version="1.0" encoding="UTF-8"?>
<svg width="559px" height="318px" viewBox="0 0 559 318" version="1.1" xmlns="http://www.w3.org/2000/svg" xmlns:xlink="http://www.w3.org/1999/xlink">
    <title>vip_gift</title>
    <g id="defi" stroke="none" stroke-width="1" fill="none" fill-rule="evenodd">
        <g id="VIP" transform="translate(-96.000000, -3893.000000)" fill-rule="nonzero">
            <g id="编组-10" transform="translate(50.000000, 3520.000000)">
                <g id="vip_gift" transform="translate(46.000000, 373.000000)">
                    <path d="M37.1265538,317.751499 C37.1265538,317.751499 -25.2256446,250.904791 26.5689106,178.466815 C72.5257102,114.229364 126.059171,118.578128 165.308762,144.670709 C182.076784,155.728994 230.26932,146.037464 271.382024,80.6817597 C327.399637,-8.53001859 521.411856,45.5189 486.012699,182.815578 C468.872055,249.165285 538.179877,251.650293 502.780721,318 L37.1265538,317.751499 Z" id="路径" fill="#EBF3FA"></path>
                    <path d="M543.629741,228.794332 C539.26068,212.790331 511.798008,217.714639 511.798008,217.714639 C511.798008,217.714639 493.19829,245.783195 487.705755,246.521841 C482.338051,247.13738 498.940485,219.438147 498.940485,219.438147 C488.454737,218.453285 461.616217,231.133378 461.616217,231.133378 C461.616217,231.133378 463.363842,263.880027 457.871308,263.264488 C452.378773,262.64895 457.871308,234.211071 457.871308,234.211071 C447.635221,237.165656 438.148116,248.983995 438.148116,248.983995 C426.289235,268.065689 451.754622,282.099967 451.754622,282.099967 C451.754622,282.099967 452.129113,293.425875 445.013784,306.475292 L445.013784,306.475292 C445.013784,306.475292 443.39099,308.937446 441.768196,313 L444.514463,313 C444.764123,312.261354 445.013784,311.522708 445.263445,310.907169 C445.263445,310.907169 445.263445,310.907169 445.263445,310.907169 C445.263445,310.907169 445.263445,310.907169 445.263445,310.907169 C445.513105,310.537846 445.762766,309.922307 446.012427,309.183661 L446.012427,309.183661 L446.012427,309.183661 C446.886239,307.583261 447.38556,306.352184 447.760051,305.49043 L447.760051,305.49043 C450.256658,300.319907 454.001568,293.672091 456.373344,292.194798 C456.373344,292.194798 455.998853,291.825475 455.749192,290.963721 C455.998853,291.333044 456.123683,291.825475 456.373344,292.194798 C461.116896,302.28963 484.834658,303.89003 498.066672,301.181661 C511.298687,298.473291 505.556492,294.78006 498.441163,288.87089 C491.325835,282.961721 476.346196,284.439013 471.977134,282.099967 C467.608073,279.760921 473.97442,277.421874 482.837373,278.037413 C491.700326,278.652951 496.069387,287.393598 510.300044,288.747783 C524.530701,290.101967 535.39094,263.633812 535.39094,263.633812 C525.529344,266.588396 507.928268,261.294765 507.304116,257.970857 C506.679965,254.646949 532.769503,255.016272 536.764073,253.908303 C540.883474,252.800334 547.998802,244.798333 543.629741,228.794332 Z" id="路径" fill="#DFEBFD"></path>
                    <path d="M170.774705,233.037495 C170.774705,233.037495 172.051009,242.712245 170.136554,242.712245 C168.222099,242.712245 169.498402,231.921178 169.498402,231.921178 C169.498402,231.921178 160.691909,227.083803 157.11826,227.207838 C157.11826,227.207838 162.223473,236.882588 160.309018,236.510482 C158.522194,236.138376 152.778829,226.463627 152.778829,226.463627 C152.778829,226.463627 143.589445,224.230992 141.67499,229.564508 C139.888166,234.898024 142.057881,237.626799 143.461815,238.12294 C144.865749,238.495046 153.672241,238.991187 153.416981,240.107504 C153.16172,241.223822 147.035464,242.588209 143.717076,241.471892 C143.717076,241.471892 146.907834,250.526466 151.757786,250.40243 C156.607739,250.278395 158.266933,247.425584 161.330061,247.425584 C164.393189,247.425584 166.435274,248.293831 164.90371,249.038042 C163.372146,249.782254 158.394563,248.914007 155.841957,250.774536 C153.28935,252.635065 151.247265,253.751382 155.714327,254.867699 C160.181388,255.984017 168.222099,255.984017 170.008923,252.635065 C170.136554,252.51103 170.136554,252.386994 170.264184,252.262959 C170.136554,252.51103 170.008923,252.635065 170.008923,252.635065 C170.774705,253.131206 171.923378,255.487876 172.68916,257.224369 C172.816791,257.47244 172.944421,257.968581 173.199682,258.464722 L173.199682,258.464722 C173.327312,258.712792 173.327312,258.960863 173.454942,259.084898 C174.731245,263.054026 173.582573,269.627894 173.582573,269.627894 L174.475985,270 C177.028591,263.426132 173.582573,257.72051 173.582573,257.72051 C171.412857,253.255241 171.795748,249.410148 171.795748,249.410148 C171.795748,249.410148 180.729871,245.19295 177.156222,238.619081 C177.156222,238.371011 174.220724,234.277848 170.774705,233.037495 Z" id="路径" fill="#AFCDFB"></path>
                    <path d="M106.020927,276.263536 C105.272169,264.426264 124.864672,261.435795 124.864672,261.435795 C124.864672,261.435795 143.958003,276.263536 147.701793,275.391316 C151.445583,274.519096 133.849769,259.566752 133.849769,259.566752 C140.713384,256.45168 161.553817,258.943738 161.553817,258.943738 C161.553817,258.943738 168.043054,281.62146 171.537258,279.877019 C175.031462,278.132579 164.798435,260.189766 164.798435,260.189766 C172.286016,259.940561 181.395906,265.672293 181.395906,265.672293 C193.750414,275.889728 180.023183,291.21588 180.023183,291.21588 C180.023183,291.21588 182.39425,299.065861 190.25621,306.168225 L190.25621,306.168225 C190.25621,306.168225 191.878519,307.414253 194,309.781708 L192.128105,310.404722 C191.753726,309.906311 191.50414,309.532502 191.129761,309.158693 L191.129761,309.158693 L191.129761,309.158693 C190.880175,308.909488 190.630589,308.535679 190.131417,308.16187 L190.131417,308.16187 L190.131417,308.16187 C189.133073,307.28965 188.509108,306.542033 188.009935,306.043622 L188.009935,306.043622 C185.139696,303.177756 181.14632,299.43967 179.149632,299.065861 C179.149632,299.065861 179.274425,298.692052 179.274425,298.069038 C179.274425,298.442847 179.149632,298.692052 179.149632,299.065861 C178.276081,306.915842 162.801747,313.519794 153.317478,314.765822 C143.83321,316.011851 146.828242,312.149162 150.197653,306.41743 C153.567064,300.685698 163.924884,298.318244 166.420745,295.826187 C168.916605,293.334129 163.924884,293.084923 158.184406,295.576981 C152.443927,298.069038 151.445583,304.922196 142.2109,309.158693 C132.976218,313.395191 119.498572,297.944435 119.498572,297.944435 C126.736567,297.69523 137.343973,290.094455 137.094387,287.602397 C136.844801,285.11034 119.373779,291.340483 116.378747,291.589689 C113.383715,291.963498 106.769685,288.100809 106.020927,276.263536 Z" id="路径" fill="#CDE0FB"></path>
                    <g id="编组" transform="translate(466.000000, 54.000000)">
                        <path d="M4.85062141,8.43984024 C4.85062141,8.43984024 2.79063098,6.84972541 2.30592734,4.52571143 C1.94239962,2.81328008 2.91180688,0.611582626 2.91180688,0.611582626 L0.245936902,0 C0.245936902,0 -0.602294455,3.66949576 0.851816444,6.11582626 C1.21534417,6.84972541 2.42710325,7.82825761 3.27533461,8.31752371 C4.12356597,8.80678982 4.85062141,8.43984024 4.85062141,8.43984024 Z" id="路径" fill="#6BB7BF"></path>
                        <path d="M9.57648184,6.84972541 L12,9.66300549 C12,9.66300549 4.97179732,11.4977534 0.972992352,6.60509236 C1.09416826,6.60509236 7.03178776,8.56215676 9.57648184,6.84972541 Z" id="路径" fill="#86D1CD"></path>
                    </g>
                    <g id="编组" transform="translate(342.000000, 20.000000)" fill="#F99746">
                        <path d="M2.4720736,4.76545505 C2.4720736,4.76545505 5.03728455,0.406364669 9.55694195,3.14636434 L12,0.406364669 C12,0.406364669 9.43478905,-1.33727149 4.06006133,2.3990917 C0.395474252,4.89000049 2.4720736,4.76545505 2.4720736,4.76545505 Z" id="路径"></path>
                        <path d="M0.029015544,9 C0.029015544,9 -0.826054774,4.2672733 6.74742519,0.904546427 C6.74742519,0.904546427 4.06006133,2.52363714 3.44929682,7.25636385 L0.029015544,9 Z" id="路径"></path>
                    </g>
                    <g id="编组" transform="translate(180.000000, 156.000000)">
                        <path d="M5.70046954,8.10182877 C5.70046954,8.10182877 1.40093907,6.48146302 3.04487719,1.86965279 L0.136371289,0 C0.136371289,0 -1.00173972,2.61751391 3.29779075,6.98003709 C6.07983987,9.97148156 5.70046954,8.10182877 5.70046954,8.10182877 Z" id="路径" fill="#5685D8"></path>
                        <path d="M10,9.84683804 C10,9.84683804 5.82692631,11.3425603 1.52739585,4.98574078 C1.52739585,4.98574078 3.42424753,7.22932413 7.85023477,6.98003709 L10,9.84683804 Z" id="路径" fill="#739AF0"></path>
                    </g>
                    <path d="M198,104.969072 C198,104.969072 200.651163,103.598731 200.930233,102 C200.930233,102 203.44186,102.114195 204,102.799366 C204,102.799366 202.883721,105.540048 201.488372,105.996828 C201.488372,105.996828 198.418605,106.111023 198,104.969072 Z" id="路径" fill="#F1A34F"></path>
                    <path d="M44,211.980519 C44,211.980519 41.3913043,210.596707 41.1304348,209 C41.1304348,209 38.5217391,209.106447 38,209.74513 C38,209.74513 39.173913,212.406307 40.6086957,212.938543 C40.6086957,213.04499 43.7391304,213.151437 44,211.980519 Z" id="路径" fill="#F1A34F"></path>
                    <path d="M323,72.2410657 C323,72.2410657 319.5,69.8221123 319.125,67 C319.125,67 315.75,67.1343863 315,68.343863 C315,68.343863 316.625,73.0473835 318.375,73.9880876 C318.375,73.9880876 322.5,74.2568602 323,72.2410657 Z" id="路径" fill="#86D1CD"></path>
                    <g id="编组" transform="translate(407.000000, 59.000000)">
                        <path d="M130.085013,4.00459448 L151.719018,71.6583439 C152.713684,74.6375916 150.973017,77.8651099 147.989017,78.8581925 L29.1263225,116.719465 C26.1423218,117.712548 22.9096544,115.974653 21.9149875,112.995406 L0.28098244,45.3416561 C-0.713684457,42.3624084 1.02698261,39.1348901 4.01098331,38.1418075 L122.873678,0.280534883 C125.982012,-0.712547678 129.214679,1.0253468 130.085013,4.00459448 Z" id="路径" fill="#CDE0FB"></path>
                        <g transform="translate(9.633969, 11.153025)" fill="#AFCDFB">
                            <path d="M52.0676941,78.8773468 L20.3626868,88.9323077 C18.9950198,89.3047137 17.5030195,88.5599018 17.1300194,87.3185485 L17.005686,86.9461426 C16.6326859,85.5806541 17.3786861,84.0910302 18.6220197,83.7186243 L50.3270271,73.6636633 C51.6946941,73.2912574 53.062361,74.0360693 53.5596945,75.2774225 L53.6840278,75.6498285 C54.1813613,77.015317 53.4353611,78.3808055 52.0676941,78.8773468 Z" id="路径"></path>
                            <path d="M93.8437038,65.4707322 L62.1386965,75.5256931 C60.7710295,75.8980991 59.4033625,75.1532872 58.9060291,73.911934 L58.7816957,73.539528 C58.4086956,72.1740395 59.1546958,70.6844157 60.3980294,70.3120097 L92.1030368,60.2570488 C93.4707037,59.8846428 94.9627041,60.6294547 95.3357042,61.8708079 L95.4600375,62.2432139 C95.957371,63.6087024 95.2113708,65.0983263 93.8437038,65.4707322 Z" id="路径"></path>
                            <g transform="translate(49.907402, 18.500622)" id="形状">
                                <path d="M6.26329312,24.1292117 C6.63629321,25.2464296 6.76062657,26.3636474 6.63629321,27.1084594 C6.38762648,28.2256772 5.76595967,28.9704892 4.77129277,29.2187598 C3.77662588,29.5911658 2.78195898,29.3428951 1.91162544,28.5980832 C1.28995863,27.9774066 0.792625184,27.1084594 0.419625097,25.9912415 C0.0466250108,24.8740236 -0.0777083514,23.880941 0.0466250108,23.0119938 C0.295291735,21.8947759 0.916958546,21.149964 1.91162544,20.9016933 C3.0306257,20.5292874 3.90095924,20.777558 4.64695941,21.52237 C5.39295958,22.1430466 5.89029303,23.0119938 6.26329312,24.1292117 Z M4.77129277,24.625753 C4.52262605,23.880941 4.27395932,23.3843998 3.90095924,22.8878585 C3.40362579,22.2671819 2.90629234,22.0189112 2.28462553,22.1430466 C1.66295872,22.3913172 1.41429199,22.7637232 1.41429199,23.6326704 C1.41429199,24.1292117 1.53862536,24.8740236 1.78729208,25.4947002 C2.40895889,27.4808653 3.27929243,28.3498126 4.27395932,27.9774066 C4.89562614,27.729136 5.14429286,27.2325947 5.14429286,26.4877828 C5.14429286,25.9912415 5.0199595,25.3705649 4.77129277,24.625753 Z"></path>
                                <path d="M12.728628,22.1430466 C13.101628,23.2602644 13.2259614,24.3774823 13.101628,25.1222942 C12.8529613,26.2395121 12.2312945,26.984324 11.2366276,27.2325947 C10.2419607,27.6050006 9.24729381,27.35673 8.37696028,26.6119181 C7.75529347,25.9912415 7.25796002,25.1222942 6.88495993,24.0050764 C6.51195984,22.8878585 6.38762648,21.8947759 6.51195984,21.0258287 C6.76062657,19.9086108 7.38229338,19.1637989 8.37696028,18.9155282 C9.49596054,18.5431223 10.3662941,18.7913929 11.1122942,19.5362048 C11.8582944,20.0327461 12.3556279,20.9016933 12.728628,22.1430466 Z M11.360961,22.5154525 C11.1122942,21.7706406 10.8636275,21.2740993 10.4906274,20.777558 C9.99329398,20.1568814 9.49596054,19.9086108 8.87429372,20.0327461 C8.25262691,20.2810167 8.00396019,20.6534227 8.00396019,21.52237 C8.00396019,22.0189112 8.12829355,22.7637232 8.37696028,23.3843998 C8.99862709,25.3705649 9.86896062,26.2395121 10.8636275,25.8671062 C11.4852943,25.6188355 11.7339611,25.1222942 11.7339611,24.3774823 C11.6096277,23.880941 11.4852943,23.2602644 11.360961,22.5154525 Z"></path>
                                <path d="M22.6752969,18.9155282 C23.048297,20.0327461 23.1726304,21.149964 23.048297,21.8947759 C22.7996303,23.0119938 22.1779635,23.7568057 21.1832966,24.0050764 C20.1886297,24.3774823 19.1939628,24.1292117 18.3236292,23.3843998 C17.7019624,22.7637232 17.204629,21.8947759 16.8316289,20.777558 C16.4586288,19.6603401 16.3342955,18.6672576 16.4586288,17.7983103 C16.7072955,16.6810925 17.3289624,15.9362805 18.3236292,15.6880099 C19.4426295,15.3156039 20.312963,15.5638746 21.0589632,16.3086865 C21.8049634,16.9293631 22.3022968,17.7983103 22.6752969,18.9155282 Z M21.1832966,19.4120695 C20.9346299,18.6672576 20.6859631,18.1707163 20.312963,17.674175 C19.8156296,17.0534984 19.3182961,16.8052278 18.6966293,16.9293631 C18.0749625,17.1776337 17.8262958,17.5500397 17.8262958,18.4189869 C17.8262958,18.9155282 17.9506292,19.6603401 18.1992959,20.2810167 C18.8209627,22.2671819 19.6912962,23.1361291 20.6859631,22.7637232 C21.3076299,22.5154525 21.5562967,22.0189112 21.5562967,21.2740993 C21.5562967,20.777558 21.4319633,20.1568814 21.1832966,19.4120695 Z"></path>
                                <path d="M29.1406318,16.9293631 C29.5136318,18.046581 29.6379652,19.1637989 29.5136318,19.9086108 C29.2649651,21.0258287 28.6432983,21.7706406 27.6486314,22.0189112 C26.6539645,22.3913172 25.6592976,22.1430466 24.7889641,21.3982346 C24.1672973,20.777558 23.6699638,19.9086108 23.2969637,18.7913929 C22.9239636,17.674175 22.7996303,16.6810925 22.9239636,15.8121452 C23.1726304,14.6949273 23.7942972,13.9501154 24.7889641,13.7018448 C25.9079643,13.3294388 26.7782979,13.5777095 27.524298,14.3225214 C28.2702982,14.8190627 28.7676317,15.6880099 29.1406318,16.9293631 Z M27.6486314,17.3017691 C27.3999647,16.5569571 27.151298,16.0604159 26.7782979,15.5638746 C26.2809644,14.943198 25.783631,14.6949273 25.1619642,14.8190627 C24.5402974,15.0673333 24.2916306,15.4397393 24.2916306,16.3086865 C24.2916306,16.8052278 24.415964,17.5500397 24.6646307,18.1707163 C25.2862975,20.1568814 26.1566311,21.0258287 27.151298,20.6534227 C27.7729648,20.4051521 28.0216315,19.9086108 28.0216315,19.1637989 C28.0216315,18.6672576 27.8972981,18.046581 27.6486314,17.3017691 Z"></path>
                                <path d="M35.6059666,14.8190627 C35.9789667,15.9362805 36.1033,17.0534984 35.9789667,17.7983103 C35.7303,18.9155282 35.1086331,19.6603401 34.1139662,19.9086108 C33.1192993,20.2810167 32.1246324,20.0327461 31.2542989,19.2879342 C30.6326321,18.6672576 30.1352987,17.7983103 29.7622986,16.6810925 C29.3892985,15.5638746 29.2649651,14.570792 29.3892985,13.7018448 C29.6379652,12.5846269 30.259632,11.839815 31.2542989,11.5915443 C32.3732992,11.2191384 33.2436327,11.467409 33.9896329,12.2122209 C34.7356331,12.7087622 35.2329665,13.7018448 35.6059666,14.8190627 Z M34.1139662,15.1914686 C33.8652995,14.4466567 33.6166328,13.9501154 33.2436327,13.4535741 C32.7462993,12.8328975 32.2489658,12.5846269 31.627299,12.7087622 C31.0056322,12.9570329 30.7569655,13.3294388 30.7569655,14.1983861 C30.7569655,14.6949273 30.8812988,15.4397393 31.1299656,16.0604159 C31.7516324,18.046581 32.6219659,18.9155282 33.6166328,18.5431223 C34.2382996,18.2948516 34.4869663,17.7983103 34.4869663,17.0534984 C34.4869663,16.6810925 34.4869663,15.9362805 34.1139662,15.1914686 Z"></path>
                                <path d="M42.1956348,12.7087622 C42.5686349,13.8259801 42.6929682,14.943198 42.5686349,15.6880099 C42.3199681,16.8052278 41.6983013,17.5500397 40.7036344,17.7983103 C39.7089675,18.1707163 38.7143006,17.9224457 37.8439671,17.1776337 C37.2223003,16.5569571 36.7249669,15.6880099 36.3519668,14.570792 C35.9789667,13.4535741 35.8546333,12.4604916 35.9789667,11.5915443 C36.2276334,10.4743265 36.8493002,9.72951454 37.8439671,9.4812439 C38.9629674,9.10883794 39.8333009,9.35710858 40.5793011,10.1019205 C41.3253013,10.7225971 41.8226347,11.5915443 42.1956348,12.7087622 Z M40.7036344,13.2053035 C40.4549677,12.4604916 40.206301,11.9639503 39.8333009,11.467409 C39.3359675,10.8467324 38.838634,10.5984618 38.2169672,10.7225971 C37.5953004,10.9708677 37.3466337,11.3432737 37.3466337,12.2122209 C37.3466337,12.7087622 37.470967,13.4535741 37.7196337,14.0742507 C38.3413006,16.0604159 39.2116341,16.9293631 40.206301,16.5569571 C40.8279678,16.3086865 41.0766345,15.8121452 41.0766345,15.0673333 C41.0766345,14.570792 40.9523012,13.9501154 40.7036344,13.2053035 Z"></path>
                                <path d="M52.0179704,9.60537922 C52.3909705,10.7225971 52.5153038,11.839815 52.3909705,12.5846269 C52.1423038,13.7018448 51.5206369,14.4466567 50.5259701,14.6949273 C49.5313032,15.0673333 48.5366363,14.8190627 47.6663027,14.0742507 C47.0446359,13.4535741 46.5473025,12.5846269 46.1743024,11.467409 C45.8013023,10.3501911 45.6769689,9.35710858 45.8013023,8.48816134 C46.049969,7.37094346 46.6716358,6.62613154 47.6663027,6.3778609 C48.785303,6.00545494 49.6556365,6.25372558 50.4016367,6.9985375 C51.1476369,7.49507878 51.6449703,8.36402602 52.0179704,9.60537922 Z M50.5259701,9.97778518 C50.2773033,9.23297326 50.0286366,8.73643198 49.6556365,8.2398907 C49.1583031,7.6192141 48.6609696,7.37094346 48.0393028,7.49507878 C47.417636,7.74334942 47.1689693,8.11575538 47.1689693,8.98470262 C47.1689693,9.4812439 47.2933026,10.2260558 47.5419694,10.8467324 C48.1636362,12.8328975 49.0339697,13.7018448 50.0286366,13.3294388 C50.6503034,13.0811682 50.8989701,12.5846269 50.8989701,11.839815 C50.8989701,11.467409 50.7746368,10.7225971 50.5259701,9.97778518 Z"></path>
                                <path d="M58.4833052,7.49507878 C58.8563053,8.61229666 58.9806387,9.72951454 58.8563053,10.4743265 C58.6076386,11.5915443 57.9859718,12.3363563 56.9913049,12.5846269 C55.996638,12.9570329 55.0019711,12.7087622 54.1316376,11.9639503 C53.5099707,11.3432737 53.0126373,10.4743265 52.6396372,9.35710858 C52.2666371,8.2398907 52.1423038,7.24680814 52.2666371,6.3778609 C52.5153038,5.26064302 53.1369707,4.5158311 54.1316376,4.26756046 C55.2506378,3.8951545 56.1209713,4.14342514 56.8669715,4.88823706 C57.6129717,5.50891366 58.1103051,6.3778609 58.4833052,7.49507878 Z M57.1156382,7.99162006 C56.8669715,7.24680814 56.6183048,6.75026686 56.2453047,6.25372558 C55.7479713,5.63304898 55.2506378,5.38477834 54.628971,5.50891366 C54.0073042,5.7571843 53.7586375,6.12959026 53.7586375,6.9985375 C53.7586375,7.49507878 53.8829708,8.2398907 54.1316376,8.8605673 C54.7533044,10.8467324 55.6236379,11.7156797 56.6183048,11.3432737 C57.2399716,11.0950031 57.4886383,10.5984618 57.4886383,9.85364986 C57.364305,9.35710858 57.2399716,8.73643198 57.1156382,7.99162006 Z"></path>
                                <path d="M65.0729734,5.38477834 C65.4459735,6.50199622 65.5703069,7.6192141 65.4459735,8.36402602 C65.1973068,9.4812439 64.57564,10.2260558 63.5809731,10.4743265 C62.5863062,10.8467324 61.5916393,10.5984618 60.7213057,9.85364986 C60.0996389,9.23297326 59.6023055,8.36402602 59.2293054,7.24680814 C58.8563053,6.12959026 58.731972,5.1365077 58.8563053,4.26756046 C59.104972,3.15034258 59.7266389,2.40553066 60.7213057,2.15726002 C61.840306,1.78485406 62.7106395,2.0331247 63.4566397,2.77793662 C64.2026399,3.39861322 64.6999733,4.26756046 65.0729734,5.38477834 Z M63.5809731,5.88131962 C63.3323064,5.1365077 63.0836396,4.63996642 62.7106395,4.14342514 C62.2133061,3.52274854 61.7159726,3.2744779 61.0943058,3.39861322 C60.472639,3.64688386 60.2239723,4.01928982 60.2239723,4.88823706 C60.2239723,5.38477834 60.3483057,6.12959026 60.5969724,6.75026686 C61.2186392,8.73643198 62.0889727,9.60537922 63.0836396,9.23297326 C63.7053064,8.98470262 63.9539732,8.48816134 63.9539732,7.74334942 C63.9539732,7.24680814 63.8296398,6.62613154 63.5809731,5.88131962 Z"></path>
                                <path d="M71.5383083,3.39861322 C71.9113083,4.5158311 72.0356417,5.63304898 71.9113083,6.3778609 C71.6626416,7.49507878 71.0409748,8.2398907 70.0463079,8.48816134 C69.051641,8.8605673 68.0569741,8.61229666 67.1866406,7.86748474 C66.5649738,7.24680814 66.0676403,6.3778609 65.6946402,5.26064302 C65.3216401,4.14342514 65.1973068,3.15034258 65.3216401,2.28139534 C65.5703069,1.16417746 66.1919737,0.419365537 67.1866406,0.171094896 C68.3056408,-0.201311064 69.1759744,0.0469595763 69.9219745,0.791771497 C70.6679747,1.28831278 71.1653082,2.15726002 71.5383083,3.39861322 Z M70.0463079,3.77101918 C69.7976412,3.02620726 69.5489745,2.52966598 69.1759744,2.0331247 C68.6786409,1.4124481 68.1813075,1.16417746 67.5596407,1.28831278 C66.9379739,1.53658342 66.6893071,1.90898938 66.6893071,2.77793662 C66.6893071,3.2744779 66.8136405,4.01928982 67.0623072,4.63996642 C67.683974,6.62613154 68.5543076,7.49507878 69.5489745,7.12267282 C70.1706413,6.87440218 70.419308,6.3778609 70.419308,5.63304898 C70.419308,5.1365077 70.2949746,4.5158311 70.0463079,3.77101918 Z"></path>
                            </g>
                            <path d="M34.4123567,25.7474298 L3.32901617,35.6782554 C1.96134919,36.0506614 0.469348841,35.4299848 0.0963487542,34.0644962 L0.0963487542,34.0644962 C-0.276651332,32.6990077 0.469348841,31.2093839 1.71268246,30.8369779 L32.796023,20.9061523 C34.16369,20.5337463 35.6556903,21.1544229 36.0286904,22.5199115 L36.0286904,22.5199115 C36.5260239,23.8854 35.6556903,25.2508885 34.4123567,25.7474298 Z" id="路径"></path>
                            <g transform="translate(107.344540, 0.000000)" id="路径">
                                <path d="M2.41383445,7.37540242 C2.16516772,6.50645518 1.54350091,5.76164326 0.797500738,5.26510198 C0.548834014,5.14096666 0.300167289,5.26510198 0.175833927,5.3892373 L0.0515005649,5.63750794 C-0.0728327973,5.88577858 0.0515005649,6.0099139 0.175833927,6.13404922 C0.673167376,6.50645518 1.17050082,7.00299646 1.29483419,7.62367306 C1.54350091,8.24434966 1.41916755,8.86502626 1.29483419,9.48570286 C1.17050082,9.7339735 1.29483419,9.85810882 1.54350091,9.98224414 L1.79216764,10.1063795 C2.04083436,10.2305148 2.28950108,10.1063795 2.41383445,9.85810882 C2.53816781,9.23743222 2.66250117,8.24434966 2.41383445,7.37540242 Z"></path>
                                <path d="M4.40316824,6.75472582 C3.90583479,5.26510198 2.91116789,4.1478841 1.79216764,3.40307218 C1.54350091,3.27893686 1.29483419,3.40307218 1.17050082,3.5272075 L1.17050082,3.65134282 C1.04616746,3.89961346 1.17050082,4.02374878 1.29483419,4.1478841 C2.28950108,4.7685607 3.15983462,5.76164326 3.53283471,7.00299646 C3.90583479,8.24434966 3.78150143,9.48570286 3.40850134,10.6029207 C3.28416798,10.8511914 3.40850134,11.099462 3.65716807,11.099462 L3.78150143,11.099462 C4.03016815,11.2235973 4.27883488,11.099462 4.40316824,10.8511914 C4.65183497,9.7339735 4.77616833,8.24434966 4.40316824,6.75472582 Z"></path>
                                <path d="M6.14383531,6.13404922 C5.5221685,4.1478841 4.27883488,2.65826025 2.53816781,1.66517769 C2.28950108,1.54104237 2.04083436,1.66517769 1.916501,1.78931301 L1.916501,1.78931301 C1.79216764,2.03758365 1.916501,2.28585429 2.04083436,2.28585429 C3.53283471,3.15480154 4.65183497,4.52029006 5.27350178,6.25818454 C5.89516859,7.99607902 5.64650186,9.7339735 4.90050169,11.3477327 C4.77616833,11.5960033 4.90050169,11.8442739 5.02483505,11.8442739 L5.02483505,11.8442739 C5.27350178,11.9684093 5.5221685,11.8442739 5.64650186,11.5960033 C6.5168354,10.1063795 6.76550212,8.12021434 6.14383531,6.13404922 Z"></path>
                                <path d="M8.00883574,5.63750794 C7.26283557,3.15480154 5.5221685,1.16863641 3.40850134,0.0514185331 C3.15983462,-0.0727167869 2.91116789,0.0514185331 2.78683453,0.175553853 L2.66250117,0.423824493 C2.53816781,0.672095134 2.66250117,0.920365774 2.78683453,0.920365774 C4.65183497,2.03758365 6.14383531,3.77547814 6.88983548,5.88577858 C7.63583566,8.12021434 7.38716893,10.3546501 6.5168354,12.3408152 C6.39250204,12.5890859 6.5168354,12.8373565 6.64116876,12.8373565 L6.88983548,12.9614918 C7.13850221,13.0856271 7.38716893,12.9614918 7.51150229,12.7132212 C8.63050255,10.6029207 8.87916928,7.99607902 8.00883574,5.63750794 Z"></path>
                            </g>
                        </g>
                    </g>
                    <g id="编组" transform="translate(200.000000, 0.000000)">
                        <rect id="矩形" fill="#FFA412" x="183.819498" y="121.77585" width="67.5989382" height="195.22415"></rect>
                        <rect id="矩形" fill="#FFB93E" x="5.33349421" y="121.77585" width="178.486004" height="195.22415"></rect>
                        <rect id="矩形" fill="#FFA412" x="5.33349421" y="217.271337" width="178.486004" height="13.6955718"></rect>
                        <rect id="矩形" fill="#FA9712" x="183.819498" y="217.271337" width="67.5989382" height="13.6955718"></rect>
                        <path d="M128.375965,123.892438 C128.375965,123.892438 168.687259,97.6218416 196.098938,106.088195 L190.39334,111.441919 L192.874035,120.406293 C192.874035,120.406293 162.361486,110.445877 127.383687,125.511006 L128.375965,123.892438 Z" id="路径" fill="#F99746"></path>
                        <path d="M126.14334,117.916189 C126.14334,117.916189 119.073359,117.044652 108.406371,115.55059 C80.2504826,111.690929 27.5357143,103.473586 18.1090734,96.003274 C3.22490347,84.1752802 38.4507722,33.9996856 53.7070463,27.0273945 C68.9633205,20.1796086 126.14334,117.916189 126.14334,117.916189 Z" id="路径" fill="#F99746"></path>
                        <path d="M237.650579,55.4145796 C240.131274,67.8650993 125.027027,121.52684 125.027027,121.52684 C125.027027,121.52684 127.135618,115.7996 130.484556,106.959731 C130.484556,106.959731 130.484556,106.959731 130.484556,106.959731 C142.888031,74.4638748 172.90444,-0.986275009 182.82722,0.00976657258 C183.819498,0.13427177 184.935811,0.507787364 186.300193,1.00580815 C201.432432,7.72908883 235.417954,43.9601014 237.650579,55.4145796 Z" id="路径" fill="#F99746"></path>
                        <path d="M185.43195,12.211276 C178.361969,24.4127853 131.476834,105.714679 130.732625,107.084237 C143.1361,74.58838 173.15251,-0.861769812 183.07529,0.13427177 C183.07529,0.13427177 185.059846,0.13427177 186.548263,1.13031335 C188.160714,2.37536533 189.277027,5.36349008 185.43195,12.211276 Z" id="路径" fill="#ED7D2B"></path>
                        <path d="M108.530405,115.55059 L108.530405,115.55059 C80.3745174,111.690929 27.659749,103.473586 18.2331081,96.003274 C14.0159266,83.9262698 25.0550193,82.9302283 33.117278,82.0586919 C41.0555019,81.3116607 108.530405,115.55059 108.530405,115.55059 Z" id="路径" fill="#ED7D2B"></path>
                        <path d="M104.685328,121.77585 C104.685328,121.77585 111.135135,107.084237 123.78668,106.2127 C137.058398,105.341164 144.624517,121.77585 144.624517,121.77585 L104.685328,121.77585 Z" id="路径" fill="#ED7D2B"></path>
                        <rect id="矩形" fill="#FFC261" x="0" y="121.77585" width="186.672297" height="26.8931227"></rect>
                        <rect id="矩形" fill="#FA9712" x="186.672297" y="121.77585" width="70.3277027" height="26.8931227"></rect>
                        <path d="M111.25917,119.534756 C111.25917,119.534756 74.6689189,107.955773 49.9860039,115.55059 C21.5820463,124.390459 23.1944981,159.62543 23.1944981,159.62543 L29.8923745,156.886316 L38.9469112,161.119492 C38.9469112,161.119492 40.4353282,123.767933 63.6298263,118.538715 C83.7234556,114.181033 111.25917,119.534756 111.25917,119.534756 Z" id="路径" fill="#F99746"></path>
                        <rect id="矩形" fill="#FFA412" x="78.8861004" y="121.77585" width="13.6438224" height="195.22415"></rect>
                    </g>
                    <g id="编组" transform="translate(121.005812, 44.000000)">
                        <polygon id="矩形" fill="#ED7D2B" transform="translate(46.634023, 38.685851) rotate(161.470839) translate(-46.634023, -38.685851) " points="40.0141289 19.5871949 53.2494446 19.5887443 53.2539174 57.7845078 40.0186017 57.7829584"></polygon>
                        <polygon id="矩形" fill="#F99746" transform="translate(23.704119, 46.319818) rotate(161.470839) translate(-23.704119, -46.319818) " points="6.15884646 27.2198823 41.2449193 27.2239897 41.2493921 65.4197532 6.16331927 65.4156458"></polygon>
                        <polygon id="矩形" fill="#FFB93E" transform="translate(23.984720, 47.263141) rotate(-108.529161) translate(-23.984720, -47.263141) " points="22.676135 29.7202579 25.2974129 29.719951 25.2933055 64.8060238 22.6720276 64.8063308"></polygon>
                        <polygon id="矩形" fill="#F69B34" transform="translate(46.870998, 39.542454) rotate(-108.529161) translate(-46.870998, -39.542454) " points="45.5611333 32.9249501 48.1824112 32.9246431 48.1808618 46.1599589 45.5595839 46.1602658"></polygon>
                        <path d="M25.0256895,25.1428572 C25.0256895,25.1428572 33.6411239,17.1548342 41.3825288,16.5307699 L40.2587765,17.9037114 L41.5073902,19.4014657 C41.5073902,19.4014657 32.8919557,20.02553 24.9008281,25.5172958 L25.0256895,25.1428572 Z" id="路径" fill="#FFB93E"></path>
                        <g transform="translate(0.198719, 0.000000)" id="路径">
                            <path d="M23.0789118,25.5172958 C23.0789118,25.5172958 21.7054367,25.7669215 19.5827935,26.1413601 C14.0888932,27.139863 3.72539962,29.0120559 1.47789498,28.1383659 C-2.01822335,26.8902373 1.47789498,15.4074542 3.85026099,13.1608227 C6.34748837,10.9141912 23.0789118,25.5172958 23.0789118,25.5172958 Z" fill="#FFB93E"></path>
                            <g transform="translate(23.078912, 0.000000)">
                                <path d="M16.8562848,6.92017968 C18.1048985,9.0419983 0,26.266173 0,26.266173 C0,26.266173 0,25.0180444 0.124861369,23.2706643 L0.124861369,23.2706643 C0.374584107,16.405957 1.37347506,0.554723822 3.24639559,0.180285242 C3.49611833,0.180285242 3.6209797,0.180285242 3.9955638,0.180285242 C7.2419594,0.429910962 15.7325325,5.04798678 16.8562848,6.92017968 Z" fill="#FFB93E"></path>
                                <path d="M4.49500928,2.177291 C3.9955638,4.92317392 0.249722738,22.8962258 0.249722738,23.1458515 C0.499445476,16.2811442 1.49833643,0.429910962 3.37125696,0.0554723822 C3.37125696,0.0554723822 3.74584107,-0.0693404778 4.12042517,0.0554723822 C4.37014791,0.305098102 4.74473202,0.679536682 4.49500928,2.177291 Z" fill="#F69B34"></path>
                            </g>
                            <path d="M19.5827935,26.266173 L19.5827935,26.266173 C14.0888932,27.2646759 3.72539962,29.1368688 1.47789498,28.2631787 C-0.0204414456,26.266173 1.97734046,25.392483 3.35081551,24.7684187 C4.97401331,24.0195415 19.5827935,26.266173 19.5827935,26.266173 Z" fill="#F69B34"></path>
                            <path d="M19.3330707,27.6391144 C19.3330707,27.6391144 19.5827935,24.5187929 21.9551595,23.5202901 C24.3275255,22.5217872 26.8247529,25.1428572 26.8247529,25.1428572 L19.3330707,27.6391144 Z" fill="#F69B34"></path>
                        </g>
                        <polygon id="矩形" fill="#FFA15A" transform="translate(18.237152, 30.851098) rotate(161.470839) translate(-18.237152, -30.851098) " points="-0.117791276 28.2276719 36.5914807 28.2319693 36.5920946 33.4745251 -0.117177362 33.4702277"></polygon>
                        <polygon id="矩形" fill="#F78639" transform="translate(42.191543, 22.786128) rotate(161.470839) translate(-42.191543, -22.786128) " points="35.2614246 20.1640392 49.1210476 20.1656617 49.1216616 25.4082175 35.2620385 25.406595"></polygon>
                        <path d="M20.6555416,26.7654244 C20.6555416,26.7654244 13.1638594,26.8902373 9.04343425,29.8857459 C4.29870224,33.2556931 6.79592961,39.7459618 6.79592961,39.7459618 L7.91968193,38.747459 L9.91746384,38.9970847 C9.91746384,38.9970847 7.91968193,32.0075645 11.9152457,29.5113073 C15.1616413,27.5143016 20.6555416,26.7654244 20.6555416,26.7654244 Z" id="路径" fill="#FFBE55"></path>
                        <polygon id="矩形" fill="#FFB93E" transform="translate(22.129455, 47.043545) rotate(161.470839) translate(-22.129455, -47.043545) " points="20.8161514 27.7582758 23.4382422 27.7585827 23.4427589 66.3288145 20.820668 66.3285075"></polygon>
                    </g>
                    <g id="编组" transform="translate(349.000000, 130.000000)">
                        <path d="M37.5481283,12.5543444 C37.5481283,12.5543444 32.5748663,15.4141092 35.6831551,21.1336389 C35.6831551,21.1336389 31.3315508,20.3876133 30.3368984,19.0198997 C30.3368984,19.0198997 30.4612299,19.5172501 30.5855615,19.8902629 C30.5855615,19.8902629 26.6069519,19.0198997 25.2393048,17.2791733 C23.9959893,15.6627844 30.3368984,-4.35556948 40.6564171,0.866609805 C40.6564171,0.866609805 50.105615,2.60733623 46.3756684,13.1760324 C42.6457219,23.7447286 46.1270053,24.6150918 46.1270053,24.6150918 C46.1270053,24.6150918 45.0080214,24.863767 44.5106952,24.7394294 C44.5106952,24.7394294 43.8890374,24.242079 43.8890374,23.8690662 C43.8890374,23.8690662 43.8890374,24.4907542 44.013369,24.7394294 C44.013369,24.7394294 40.1590909,24.1177414 38.6671123,22.1283397 C37.1751337,20.1389381 36.4291444,14.6680836 37.5481283,12.5543444 Z" id="路径" fill="#233862"></path>
                        <path d="M42.5213904,26.107143 C42.6457219,27.350519 42.894385,28.5938951 42.894385,29.0912455 C43.0187166,30.3346215 31.2072193,29.4642583 30.4612299,29.4642583 C30.9585561,29.2155831 32.5748663,24.1177414 33.0721925,22.1283397 C33.6938503,19.7659253 34.1911765,17.1548357 34.1911765,17.1548357 L42.5213904,17.6521861 L43.0187166,17.6521861 C42.6457219,18.7712245 42.5213904,19.8902629 42.3970588,20.8849637 C42.3970588,21.0093013 42.3970588,21.1336389 42.3970588,21.2579765 C42.1483957,22.6256902 42.2727273,24.4907542 42.5213904,26.107143 Z" id="路径" fill="#FFB27D"></path>
                        <path d="M33.0721925,16.5331477 C33.0721925,16.5331477 31.7045455,12.1813316 31.9532086,8.94855394 C32.2018717,6.5861395 35.5588235,-1.49580463 43.5160428,1.98564822 C43.5160428,1.98564822 45.8783422,2.85601144 47.7433155,4.96975067 C49.2352941,6.7104771 51.2245989,10.0675924 46.2513369,16.5331477 L44.8836898,18.7712245 L33.0721925,16.5331477 Z" id="路径" fill="#233862"></path>
                        <path d="M42.5213904,26.107143 C36.6778075,24.3664166 34.1911765,17.6521861 34.1911765,17.6521861 C36.6778075,17.7765237 39.9104278,19.3929125 42.3970588,21.1336389 C42.3970588,21.2579765 42.3970588,21.3823141 42.3970588,21.5066517 C42.1483957,22.6256902 42.2727273,24.4907542 42.5213904,26.107143 Z" id="路径" fill="#ED975D"></path>
                        <path d="M42.894385,23.7447286 C42.894385,23.7447286 32.3262032,21.1336389 34.0668449,14.543746 C35.8074866,7.95385312 35.5588235,3.22902424 42.3970588,4.59673786 C49.2352941,5.96445149 49.8569519,8.82421633 49.8569519,11.1866308 C49.8569519,13.5490452 45.7540107,24.242079 42.894385,23.7447286 Z" id="路径" fill="#FFB27D"></path>
                        <path d="M47.2459893,5.71577628 C47.2459893,5.71577628 42.2727273,12.678682 37.5481283,12.5543444 C32.8235294,12.5543444 31.2072193,10.813618 31.2072193,10.813618 C31.2072193,10.813618 35.3101604,8.94855394 37.2994652,4.47240026 C37.2994652,4.59673786 46.0026738,1.48829781 47.2459893,5.71577628 Z" id="路径" fill="#233862"></path>
                        <path d="M46.3756684,6.08878909 C46.3756684,6.08878909 48.1163102,8.32686593 48.1163102,10.19193 C48.2406417,12.056994 47.4946524,15.5384468 48.6136364,15.6627844 C48.6136364,15.6627844 52.2192513,10.9379556 50.4786096,7.45650271 C48.7379679,3.60203705 46.3756684,6.08878909 46.3756684,6.08878909 Z" id="路径" fill="#233862"></path>
                        <path d="M46.7486631,6.46180189 C46.7486631,6.46180189 42.5213904,13.922058 36.3048128,15.0410964 C36.3048128,15.0410964 43.1430481,11.5596436 45.1323529,6.33746429 C46.8729947,1.23962261 46.7486631,6.46180189 46.7486631,6.46180189 Z" id="路径" fill="#233862"></path>
                        <path d="M41.2780749,19.5172501 C41.2780749,19.5172501 41.4024064,20.5119509 42.0240642,20.7606261 C42.6457219,21.0093013 44.3863636,21.3823141 44.5106952,21.3823141 C44.6350267,21.3823141 45.2566845,20.5119509 45.2566845,20.5119509 C45.2566845,20.5119509 42.6457219,19.3929125 41.2780749,19.5172501 Z" id="路径" fill="#FFFFFF"></path>
                        <path d="M37.2994652,119.982033 C37.1751337,120.603721 37.0508021,121.101071 36.9264706,121.598421 C36.1804813,124.955537 35.434492,127.939639 34.9371658,130.550729 C34.315508,133.907844 34.1911765,136.394596 34.9371658,137.389297 C38.1697861,141.741113 34.9371658,175.933953 34.9371658,175.933953 L31.2072193,179.788419 C31.2072193,179.788419 24.7419786,145.968591 23.0013369,140.746412 C22.2553476,138.383998 21.0120321,128.063977 20.0173797,117.619618 C20.0173797,117.122268 19.8930481,116.624917 19.8930481,116.003229 C19.7687166,114.138165 19.5200535,112.397439 19.3957219,110.532375 C18.4010695,100.585367 17.7794118,92.1304097 17.7794118,92.1304097 C17.7794118,92.1304097 24.6176471,87.2812432 30.9585561,86.7838928 C34.6885027,86.41088 38.1697861,87.654256 39.7860963,92.1304097 C42.1483957,98.7203026 39.6617647,110.159362 37.2994652,119.982033 Z" id="路径" fill="#FFB27D"></path>
                        <path d="M37.2994652,119.982033 C32.2018717,116.251904 24.9906417,109.662012 22.3796791,98.8446402 C21.8823529,93.4981233 26.1096257,88.4002816 30.8342246,86.7838928 C34.5641711,86.41088 38.0454545,87.654256 39.6617647,92.1304097 C42.1483957,98.7203026 39.6617647,110.159362 37.2994652,119.982033 Z" id="路径" fill="#ED975D"></path>
                        <path d="M55.9491979,54.7047915 L81.1885027,61.1703468 L81.1885027,64.1544492 C81.1885027,64.1544492 56.0735294,63.905774 54.4572193,61.0460092 C52.8409091,58.3105819 55.9491979,54.7047915 55.9491979,54.7047915 Z" id="路径" fill="#FFB27D"></path>
                        <path d="M81.1885027,151.688121 L79.9451872,156.537288 C79.9451872,156.537288 45.8783422,138.881348 41.526738,135.524233 C39.7860963,134.156519 37.4237968,126.820601 35.3101604,118.489981 C32.0775401,106.056221 29.2179144,91.5087217 29.2179144,91.5087217 C29.2179144,91.5087217 33.9425134,73.1067566 46.7486631,84.4214783 C54.4572193,91.1357089 53.2139037,104.066819 52.3435829,114.262503 C51.7219251,120.976733 51.3489305,126.447588 53.959893,127.939639 C58.9331551,130.675066 73.4799465,143.481839 78.0802139,152.185471 L81.1885027,151.688121 Z" id="路径" fill="#FFB27D"></path>
                        <path d="M23.3743316,69.9983165 C14.4224599,67.7602397 4.72459893,53.9587659 4.72459893,53.9587659 L7.21122995,51.8450266 C9.82219251,54.9534667 20.6390374,60.175646 20.6390374,60.175646 C20.6390374,57.3158811 20.6390374,54.8291291 20.8877005,52.4667146 C22.131016,36.6758392 28.0989305,31.4536599 29.7152406,30.2102839 C29.9639037,29.9616087 30.0882353,29.9616087 30.0882353,29.9616087 C30.0882353,29.9616087 30.0882353,30.0859463 30.0882353,30.3346215 C30.0882353,30.8319719 30.0882353,31.7023351 30.2125668,33.0700487 C30.4612299,42.6440441 30.8342246,71.8633805 23.3743316,69.9983165 Z" id="路径" fill="#FFB27D"></path>
                        <path d="M30.4612299,51.099001 C29.9639037,62.4137228 28.3475936,73.4797694 23.3743316,72.8580814 C17.4064171,71.9877181 15.790107,66.3925261 15.5414439,62.1650476 C15.2927807,59.5539579 15.6657754,57.5645563 15.6657754,57.5645563 C15.6657754,57.5645563 18.6497326,57.5645563 19.1470588,57.0672059 C21.3850267,54.9534667 20.763369,34.3134247 21.8823529,32.1996855 C23.0013369,30.0859463 30.3368984,28.7182327 30.3368984,28.7182327 C30.3368984,28.7182327 30.8342246,39.9086168 30.4612299,51.099001 Z" id="路径" fill="#FFFFFF"></path>
                        <path d="M30.4612299,51.099001 C29.9639037,62.4137228 28.3475936,73.4797694 23.3743316,72.8580814 C17.4064171,71.9877181 15.790107,66.3925261 15.5414439,62.1650476 C17.0334225,62.04071 19.644385,61.7920348 20.6390374,60.175646 C22.131016,57.9375691 26.7312834,43.3900697 26.7312834,43.3900697 C26.7312834,43.3900697 28.4719251,46.6228473 30.4612299,51.099001 Z" id="路径" fill="#DFEBFD"></path>
                        <path d="M68.3823529,54.7047915 C69.9986631,57.0672059 69.1283422,61.5433596 65.6470588,65.14915 C63.5334225,67.3872269 60.6737968,68.7549405 55.9491979,68.0089149 C53.959893,67.7602397 48.2406417,64.527462 47.618984,60.5486588 C47.4946524,59.8026332 47.4946524,59.4296203 47.4946524,59.4296203 C47.4946524,59.4296203 44.8836898,62.04071 44.7593583,62.5380604 C44.7593583,62.7867356 44.5106952,64.7761372 44.3863636,65.0248124 C44.3863636,65.3978252 44.6350267,66.5168637 44.6350267,66.5168637 C44.6350267,66.5168637 32.2018717,71.9877181 22.0066845,65.770838 C22.0066845,65.770838 19.1470588,40.77898 21.1363636,36.5515016 C22.131016,34.4377623 27.9745989,30.4589591 30.0882353,28.7182327 C30.5855615,28.3452198 30.9585561,27.1018438 30.8342246,26.3558182 C30.709893,25.7341302 31.4558824,24.6150918 32.0775401,24.7394294 C33.3208556,25.1124422 36.802139,26.8531686 39.1644385,26.2314806 C40.407754,25.8584678 41.8997326,24.4907542 43.1430481,24.863767 C44.6350267,25.2367798 43.0187166,28.7182327 43.8890374,28.7182327 C45.0080214,28.7182327 51.1002674,29.9616087 51.5975936,30.9563095 C51.7219251,31.3293223 53.4625668,35.9298136 55.7005348,42.0223561 C55.7005348,42.0223561 55.7005348,42.0223561 55.7005348,42.0223561 C59.9278075,53.4614155 65.8957219,51.3476762 68.3823529,54.7047915 Z" id="路径" fill="#FFFFFF"></path>
                        <path d="M47.4946524,59.4296203 C47.4946524,59.4296203 47.1216578,49.855625 46.3756684,49.9799626 C45.6296791,50.1043002 34.4398396,60.797334 37.0508021,65.14915 C39.7860963,69.5009661 47.4946524,59.4296203 47.4946524,59.4296203 Z" id="路径" fill="#DFEBFD"></path>
                        <path d="M55.9491979,98.595965 C55.9491979,98.595965 51.5975936,99.9636786 45.381016,100.834042 C37.5481283,101.95308 26.6069519,102.326093 16.7847594,98.595965 C16.7847594,98.595965 16.0387701,84.0484655 18.276738,76.4638718 C20.5147059,68.8792781 21.6336898,65.2734876 21.6336898,65.2734876 C21.6336898,65.2734876 30.9585561,67.6359021 40.2834225,65.770838 C41.6510695,65.5221628 42.894385,65.14915 44.2620321,64.7761372 C44.2620321,64.7761372 50.105615,77.0855598 51.7219251,82.4320767 C53.3382353,87.7785936 55.9491979,98.595965 55.9491979,98.595965 Z" id="路径" fill="#2B478B"></path>
                        <path d="M55.9491979,98.595965 C55.9491979,98.595965 51.5975936,99.9636786 45.381016,100.834042 C33.8181818,94.2441489 39.4131016,66.6412013 39.4131016,66.6412013 C39.7860963,66.3925261 40.0347594,66.1438509 40.407754,65.8951757 C41.7754011,65.6465004 43.0187166,65.2734876 44.3863636,64.9004748 C44.3863636,64.9004748 50.2299465,77.2098974 51.8462567,82.5564143 C53.3382353,87.654256 55.9491979,98.595965 55.9491979,98.595965 Z" id="路径" fill="#233862"></path>
                        <path d="M31.5802139,68.0089149 C24.7419786,68.0089149 21.8823529,65.6465004 21.6336898,65.5221628 L21.1363636,62.2893852 C21.1363636,62.2893852 30.4612299,67.8845773 44.6350267,62.5380604 L44.2620321,65.0248124 C39.040107,67.0142141 35.1858289,68.0089149 31.5802139,68.0089149 Z" id="路径" fill="#B64C41"></path>
                        <path d="M81.1885027,61.2946844 C81.1885027,61.2946844 85.7887701,59.0566075 87.6537433,58.8079323 C89.5187166,58.5592571 92.6270053,58.5592571 92.6270053,58.8079323 C92.6270053,59.0566075 89.2700535,61.1703468 88.3997326,61.2946844 C87.5294118,61.419022 85.7887701,62.662398 86.2860963,62.9110732 C86.7834225,63.0354108 89.5187166,62.4137228 89.5187166,62.9110732 C89.5187166,63.4084236 87.9024064,63.6570988 87.5294118,64.0301116 C87.1564171,64.4031244 86.1617647,64.9004748 84.5454545,64.6517996 C82.9291444,64.4031244 81.0641711,64.2787868 81.0641711,64.2787868 L81.1885027,61.2946844 L81.1885027,61.2946844 Z" id="路径" fill="#FFB27D"></path>
                        <path d="M7.21122995,51.720689 L4.72459893,53.9587659 C4.72459893,53.9587659 0.248663102,50.7259882 0,49.3582746 L0,49.233937 C0,47.8662234 2.85962567,45.0064585 5.22192513,44.8821209 C5.47058824,44.8821209 5.71925134,44.8821209 5.84358289,45.0064585 C7.0868984,45.7524841 7.21122995,49.1095994 7.21122995,50.7259882 C7.21122995,51.3476762 7.21122995,51.720689 7.21122995,51.720689 Z" id="路径" fill="#FFB27D"></path>
                        <path d="M81.1885027,151.688121 L79.9451872,156.537288 C79.9451872,156.537288 45.8783422,138.881348 41.526738,135.524233 C39.7860963,134.156519 37.4237968,126.820601 35.3101604,118.489981 C38.1697861,119.111669 44.5106952,119.360345 52.4679144,114.138165 C51.8462567,120.852396 51.473262,126.32325 54.0842246,127.815301 C59.0574866,130.550729 73.6042781,143.357502 78.2045455,152.061134 L81.1885027,151.688121 Z" id="路径" fill="#2B478B"></path>
                        <path d="M87.9024064,153.553185 C87.9024064,153.553185 87.9024064,153.553185 87.9024064,153.553185 C87.6537433,153.553185 87.0320856,153.30451 86.5347594,152.185471 C86.1617647,151.439446 86.1617647,150.817758 85.9131016,150.071732 L84.7941176,148.082331 C83.5508021,146.465942 83.1778075,146.838955 83.1778075,146.838955 C83.1778075,146.838955 82.8048128,147.211967 82.4318182,147.833655 C81.6858289,148.704019 80.4425134,149.947395 79.6965241,150.19607 C79.0748663,150.444745 78.7018717,150.817758 78.4532086,151.190771 C78.2045455,151.563783 78.0802139,152.061134 78.0802139,152.061134 C78.0802139,152.061134 80.5668449,152.434147 80.3181818,153.677523 C79.9451872,156.039937 79.9451872,156.41295 80.0695187,156.537288 L80.0695187,156.537288 C80.0695187,156.537288 84.2967914,158.775364 85.6644385,159.148377 C88.026738,159.894403 89.2700535,161.510792 90.1403743,162.256817 C90.513369,162.62983 90.8863636,162.754168 91.3836898,162.62983 C92.0053476,162.505492 92.8756684,162.256817 93,161.883804 L87.9024064,153.553185 Z" id="路径" fill="#233862"></path>
                        <path d="M34.9371658,137.513634 C38.1697861,141.86545 34.9371658,176.058291 34.9371658,176.058291 L31.2072193,179.912757 C31.2072193,179.912757 24.7419786,146.092929 23.0013369,140.87075 C22.2553476,138.508335 21.0120321,128.188314 20.0173797,117.743956 C23.1256684,119.111669 30.709893,122.095772 37.0508021,121.722759 C36.3048128,125.079874 35.5588235,128.063977 35.0614973,130.675066 C34.315508,133.907844 34.1911765,136.394596 34.9371658,137.513634 Z" id="路径" fill="#233862"></path>
                        <path d="M38.6671123,181.529146 L36.6778075,182.648184 C35.9318182,182.896859 35.3101604,183.021197 34.5641711,183.269872 C33.4451872,183.642885 32.6991979,184.513248 32.5748663,184.761923 C31.9532086,187.124338 31.2072193,186.875662 31.2072193,186.875662 L23.1256684,187 C22.7526738,186.751325 23.3743316,185.134936 23.7473262,184.886261 C24.4933155,184.140235 26.855615,184.513248 27.6016043,182.150834 C28.0989305,180.78312 30.3368984,176.679979 30.3368984,176.679979 L30.3368984,176.679979 C30.4612299,176.679979 30.8342246,176.555641 33.1965241,177.052992 C34.4398396,177.301667 34.9371658,174.814915 34.9371658,174.814915 C34.9371658,174.814915 35.3101604,174.939253 35.6831551,175.187928 C36.0561497,175.436603 36.4291444,175.809616 36.5534759,176.431304 C36.802139,177.301667 38.0454545,178.545043 38.9157754,179.291069 C39.4131016,179.788419 39.7860963,180.037094 39.7860963,180.037094 C39.7860963,180.037094 40.2834225,180.410107 38.6671123,181.529146 Z" id="路径" fill="#233862"></path>
                    </g>
                    <g id="编组" transform="translate(178.000000, 156.000000)">
                        <rect id="矩形" fill="#4A75CB" x="93.6246445" y="61.9952908" width="34.3952607" height="99.135103"></rect>
                        <rect id="矩形" fill="#739AF0" x="2.73175355" y="61.9952908" width="90.892891" height="99.135103"></rect>
                        <rect id="矩形" fill="#AFCDFB" x="2.73175355" y="110.444777" width="90.892891" height="6.95684933"></rect>
                        <rect id="矩形" fill="#88B3FF" x="93.6246445" y="110.444777" width="34.3952607" height="6.95684933"></rect>
                        <path d="M69.0388626,60.5045374 C69.0388626,60.5045374 96.8530806,47.8331333 116.347867,52.6780819 L112.498578,55.2869004 L114.485308,59.8833902 C114.485308,59.8833902 92.8796209,54.2930648 68.5421801,61.2499141 L69.0388626,60.5045374 Z" id="路径" fill="#4A75CB"></path>
                        <g transform="translate(7.358037, 0.000000)" id="路径">
                            <path d="M56.8381711,60.0076196 C56.8381711,60.0076196 53.2372232,59.5107018 47.7737161,58.7653251 C33.4940953,56.7776538 6.54907159,52.6780819 1.83058818,48.8269689 C-5.74381941,42.8639552 12.1367493,17.3969174 19.9594981,13.7942633 C27.7822469,10.3158387 56.8381711,60.0076196 56.8381711,60.0076196 Z" fill="#72A9F7"></path>
                            <path d="M113.708313,28.2048798 C114.950019,34.5405819 56.3414886,61.7468319 56.3414886,61.7468319 C56.3414886,61.7468319 57.4590242,58.8895545 59.1974128,54.2930648 L59.1974128,54.2930648 C65.5301142,37.7705476 80.8031,-0.492123697 85.7699247,0.00479411268 C86.2666071,0.00479411268 86.8874602,0.253253017 87.5083133,0.501711922 C95.2068915,4.10436604 112.466607,22.490325 113.708313,28.2048798 Z" fill="#72A9F7"></path>
                            <path d="M87.0116308,6.34049618 C83.410683,12.5519688 59.5699247,53.796147 59.0732422,54.4172942 C65.4059436,37.8947771 80.6789294,-0.367894244 85.6457541,0.129023565 C85.6457541,0.129023565 86.639119,0.129023565 87.3841427,0.625941375 C88.5016782,1.37131809 88.9983607,2.86207152 87.0116308,6.34049618 Z" fill="#4A75CB"></path>
                            <path d="M47.8978868,58.7653251 L47.8978868,58.7653251 C33.6182659,56.7776538 6.6732422,52.6780819 1.95475879,48.8269689 C-0.156141683,42.7397257 5.43153604,42.2428079 9.52916637,41.7458901 C13.6267967,41.3732018 47.8978868,58.7653251 47.8978868,58.7653251 Z" fill="#4A75CB"></path>
                            <path d="M46.0353275,61.8710614 C46.0353275,61.8710614 49.2637635,54.4172942 55.8448062,53.9203764 C62.5500195,53.5476881 66.3993086,61.8710614 66.3993086,61.8710614 L46.0353275,61.8710614 Z" fill="#4A75CB"></path>
                        </g>
                        <rect id="矩形" fill="#88B3FF" x="0" y="61.9952908" width="94.9905213" height="13.6652398"></rect>
                        <rect id="矩形" fill="#3969B7" x="95.1146919" y="61.9952908" width="35.8853081" height="13.6652398"></rect>
                        <path d="M56.6218009,60.8772258 C56.6218009,60.8772258 37.9962085,54.9142121 25.4549763,58.8895545 C10.9270142,63.3618148 11.7962085,81.250856 11.7962085,81.250856 L15.2729858,79.884332 L19.8672986,81.9962327 C19.8672986,81.9962327 20.6123223,63.1133559 32.4085308,60.380308 C42.5905213,58.1441778 56.6218009,60.8772258 56.6218009,60.8772258 Z" id="路径" fill="#4A75CB"></path>
                        <rect id="矩形" fill="#AFCDFB" x="40.107109" y="61.9952908" width="6.9535545" height="100.004709"></rect>
                    </g>
                    <g id="编组" transform="translate(42.000000, 131.000000)">
                        <path d="M28.4960329,46.0503992 C28.4960329,46.0503992 53.94541,64.7857774 60.2459839,64.4135514 C66.4230172,63.91725 88.5367963,50.2689611 88.5367963,50.2689611 L83.842251,44.6855703 C83.842251,44.6855703 63.8286632,52.1300914 60.2459839,50.0208104 C56.5397639,47.9115294 42.3325874,30.54098 36.2790948,31.5335829 C30.2256022,32.5261857 24.2956502,39.3503301 28.4960329,46.0503992 Z" id="路径" fill="#233862"></path>
                        <g transform="translate(0.000000, 83.397080)" id="路径">
                            <path d="M13.5476123,103.60292 L5.88809106,103.60292 C4.89976573,103.106618 4.03498108,101.865865 3.78789974,100.12881 C3.41727775,97.6473027 0.699383107,96.2824738 0.0816797789,94.2972682 C-0.536023549,92.3120625 2.55249309,89.4583294 2.55249309,89.4583294 L3.04665575,88.8379526 L3.54081841,88.2175759 L8.6059857,89.4583294 C8.6059857,89.4583294 8.72952637,90.6990829 8.85306703,92.1879872 C8.85306703,93.3046654 8.9766077,94.5454189 8.85306703,95.6620971 C8.72952637,98.3917548 9.59431103,101.245488 11.9415837,101.741789 C13.7946937,101.98994 13.671153,103.106618 13.5476123,103.60292 Z" fill="#233862"></path>
                            <path d="M57.6516299,103.60292 L40.2323961,103.60292 C39.3676114,102.610317 39.7382334,98.7639809 39.8617741,97.5232273 C39.8617741,97.2750766 39.8617741,97.1510013 39.8617741,97.1510013 C39.8617741,97.1510013 45.791726,92.4361379 46.6565107,96.0343231 C46.6565107,96.1583985 46.6565107,96.2824738 46.7800514,96.4065492 C47.7683767,99.8806591 52.462922,101.369563 55.0572759,101.865865 C56.7868453,102.114015 57.5280893,102.982543 57.6516299,103.60292 Z" fill="#233862"></path>
                            <path d="M54.4395726,5.95561694 C54.4395726,5.95561694 53.574788,17.246474 52.462922,30.8947629 C50.980434,49.3819904 49.2508647,72.08778 49.127324,76.4304174 C48.8802427,83.8749385 47.644836,95.7861724 47.644836,95.7861724 C47.644836,95.7861724 44.8034007,98.6399055 39.1205301,97.399152 C39.1205301,97.399152 34.0553628,80.4008287 32.6964155,62.2858271 C32.6964155,62.0376764 32.6964155,61.6654504 32.6964155,61.4172997 C31.3374682,43.0541474 29.2372768,4.34263735 29.2372768,4.34263735 L54.4395726,5.95561694 Z" fill="#F99746"></path>
                            <path d="M54.4395726,5.95561694 C54.4395726,5.95561694 53.574788,17.246474 52.462922,30.8947629 L32.6964155,62.2858271 C32.6964155,62.0376764 32.6964155,61.6654504 32.6964155,61.4172997 C31.3374682,43.0541474 29.2372768,4.34263735 29.2372768,4.34263735 L54.4395726,5.95561694 Z" fill="#ED7D2B"></path>
                            <path d="M50.23919,7.32044582 C50.23919,7.32044582 33.9318221,48.2653123 23.3073249,67.496992 C12.559287,86.7286716 9.22368903,92.1879872 9.22368903,92.1879872 C9.22368903,92.1879872 3.04665575,89.7064801 2.55249309,88.0935005 C2.55249309,88.0935005 6.62933505,50.8708947 13.7946937,41.8133939 C17.8715356,36.7263044 22.5660809,21.3409607 22.8131622,16.0057205 C23.0602436,10.6704803 24.2956502,0 24.2956502,0 L50.23919,7.32044582 Z" fill="#F99746"></path>
                        </g>
                        <path d="M39.4911521,32.278035 C33.4376595,35.0076927 21.8248369,30.9132061 21.8248369,30.9132061 C21.8248369,30.9132061 27.1370855,25.8261166 25.7781382,16.7686159 L31.0903868,20.1186504 L34.7966068,22.3520068 C34.7966068,22.3520068 34.9201475,23.9649863 34.9201475,26.6946441 C34.9201475,27.4390962 34.9201475,28.3076237 34.7966068,29.1761512 C37.7615828,30.54098 39.4911521,32.278035 39.4911521,32.278035 Z" id="路径" fill="#FFB27D"></path>
                        <path d="M34.7966068,22.4760821 C34.7966068,22.4760821 34.9201475,24.0890617 34.9201475,26.8187195 C31.2139275,26.5705688 26.2723009,21.2353286 26.2723009,21.2353286 C28.1254109,20.4908765 29.7314395,20.1186504 31.0903868,20.2427258 L34.7966068,22.4760821 Z" id="路径" fill="#ED975D"></path>
                        <path d="M36.6497168,22.103856 C36.6497168,22.103856 26.3958415,25.0816645 24.6662722,18.6297462 C22.9367029,12.1778278 20.3423489,8.33149188 26.8900042,6.09813553 C33.4376595,3.86477918 35.2907695,5.97406018 36.4026354,7.95926582 C37.5145014,10.0685468 39.3676114,21.1112532 36.6497168,22.103856 Z" id="路径" fill="#FFB27D"></path>
                        <path d="M55.0572759,85.2582107 C55.4278979,88.2360191 55.5514386,90.0971494 55.4278979,90.0971494 C55.3043573,90.2212248 55.0572759,90.4693755 54.8101946,90.4693755 C52.462922,90.7175262 45.6681854,92.8268072 39.7382334,92.9508825 C34.7966068,93.0749579 30.2256022,92.0823551 25.2839755,90.5934508 C24.6662722,90.3453001 23.0602436,89.8489987 23.0602436,89.1045466 C22.9367029,88.3600945 22.9367029,87.2434163 22.8131622,85.7545121 C22.5660809,80.791498 22.1954589,72.354374 20.4658896,62.8005718 C20.0952676,61.0635168 19.8481863,59.2023866 19.7246456,57.4653316 C18.1186169,44.4374196 19.3540236,32.650261 24.0485689,28.059473 C24.4191909,27.6872469 27.3841669,28.6798498 29.9785208,29.6724526 C32.4493341,30.54098 34.7966068,30.4169047 36.8967981,29.6724526 L39.3676114,31.2854322 C42.3325874,33.3947132 45.6681854,36.496597 47.5212953,41.4596111 C49.127324,45.6781731 50.7333526,53.4949203 51.9687593,61.5598183 C52.5864626,65.2820788 53.204166,68.8802641 53.574788,72.4784493 L53.574788,72.6025247 C53.6983286,72.9747507 53.6983286,73.3469768 53.6983286,73.7192028 C53.8218693,74.3395796 53.8218693,74.9599564 53.94541,75.5803331 C54.3160319,79.4266691 54.8101946,82.7767036 55.0572759,85.2582107 Z" id="路径" fill="#2B478B"></path>
                        <path d="M24.6662722,18.0093694 C24.6662722,18.0093694 25.6545975,17.7612187 25.4075162,16.2723145 C25.0368942,14.7834102 24.7898129,12.9222799 26.0252195,13.0463553 C27.2606262,13.294506 27.3841669,14.1630335 27.8783295,13.5426567 C28.3724922,12.9222799 28.0018702,10.5648482 31.5845495,9.94447147 C35.1672288,9.3240947 36.7732574,10.4407729 38.2557454,9.44817006 C39.8617741,8.45556723 39.6146928,5.97406018 39.6146928,5.97406018 C39.6146928,5.97406018 39.2440708,6.966663 38.6263674,7.33888906 C38.6263674,7.33888906 40.9736401,3.24440241 37.3909608,1.01104606 C33.9318221,-1.22231029 30.8433055,0.88697071 28.9901955,1.25919677 C24.9133536,2.00364889 22.3189996,2.4999503 21.3306743,5.47775877 C20.2188083,8.33149188 21.7012962,15.7760131 24.6662722,18.0093694 Z" id="路径" fill="#2B478B"></path>
                        <path d="M55.0572759,85.2582107 C54.5631133,85.382286 45.791726,86.8711902 39.8617741,83.0248543 C33.8082815,78.9303677 26.6429229,55.1078999 26.6429229,55.1078999 C26.6429229,55.1078999 40.3559367,70.3691683 40.6030181,70.9895451 C40.8500994,71.4858465 50.7333526,74.7118057 53.8218693,75.7044085 C54.3160319,79.4266691 54.8101946,82.7767036 55.0572759,85.2582107 Z" id="路径" fill="#233862"></path>
                        <g transform="translate(43.748384, 8.541101)">
                            <g id="矩形">
                                <polygon fill="#ED7D2B" transform="translate(48.858362, 34.539801) rotate(179.184877) translate(-48.858362, -34.539801) " points="14.9484671 0.483193467 82.772433 0.479017909 82.7682574 68.5964087 14.9442915 68.6005843"></polygon>
                                <polygon fill="#F99746" transform="translate(34.395191, 34.679230) rotate(179.184877) translate(-34.395191, -34.679230) " points="0.485295458 0.62262254 68.3092614 0.618446983 68.3050858 68.7358378 0.481119901 68.7400133"></polygon>
                            </g>
                            <path d="M8.96161931,21.9998794 C8.83807864,15.5479611 13.2855426,10.3367963 19.8331979,10.2127209 C26.3808531,10.0886455 30.8283171,15.175735 30.9518578,21.6276534 C31.0753984,27.9554964 26.6279345,33.2907365 20.0802792,33.4148119 C13.5326239,33.6629626 8.96161931,28.5758731 8.96161931,21.9998794 Z M46.394441,10.4608716 L54.0539622,10.3367963 L21.6863079,56.2446768 L14.0267866,56.3687522 L46.394441,10.4608716 Z M24.1571212,21.8758041 C24.1571212,18.7739202 22.4275519,16.1683378 19.8331979,16.1683378 C17.1153032,16.1683378 15.7563559,18.7739202 15.7563559,21.9998794 C15.7563559,25.1017632 17.4859252,27.7073457 20.0802792,27.7073457 C22.7981738,27.5832703 24.1571212,24.8536125 24.1571212,21.8758041 Z M37.0053504,44.8297443 C36.8818097,38.377826 41.3292737,33.1666612 47.876929,33.0425858 C54.4245842,32.9185105 58.8720482,38.0055999 58.9955889,44.4575183 C59.1191295,50.7853613 54.6716656,56.1206015 48.1240103,56.2446768 C41.576355,56.4928275 37.1288911,51.4057381 37.0053504,44.8297443 Z M52.2008522,44.705669 C52.2008522,41.6037852 50.4712829,38.9982028 47.876929,38.9982028 C45.1590343,38.9982028 43.800087,41.6037852 43.800087,44.8297443 C43.800087,47.9316282 45.5296563,50.5372106 48.1240103,50.5372106 C50.9654456,50.4131352 52.3243929,47.6834775 52.2008522,44.705669 Z" id="形状" fill="#FFFFFF"></path>
                        </g>
                        <path d="M77.9122991,79.9229705 C75.5650264,79.9229705 72.7235911,78.9303677 71.7352658,78.4340662 C70.1292371,77.6896141 69.3879931,76.8210867 69.3879931,76.8210867 L69.6350745,75.3321824 L69.8821558,73.4710521 C69.8821558,73.4710521 70.0056965,73.4710521 70.3763185,73.4710521 C70.6233998,73.4710521 71.1175625,73.4710521 71.6117251,73.3469768 C71.6117251,73.3469768 72.3529691,73.5951275 72.9706724,72.9747507 C73.5883758,72.354374 74.7002418,71.9821479 75.5650264,72.2302986 C76.4298111,72.4784493 78.2829211,72.2302986 78.4064617,72.6025247 C78.5300024,73.3469768 75.8121078,73.2229014 75.5650264,73.7192028 C75.3179451,74.0914289 75.5650264,74.463655 75.5650264,74.463655 C75.5650264,74.463655 75.5650264,74.463655 75.5650264,74.463655 C77.1710551,76.0766345 82.6068444,76.6970113 82.359763,77.9377648 C82.2362224,78.4340662 78.9006244,79.9229705 77.9122991,79.9229705 Z" id="路径" fill="#FFB27D"></path>
                        <path d="M22.4425402,45.9263238 C22.4425402,45.9263238 35.0436881,75.0840317 40.6030181,77.8136895 C46.162348,80.5433472 71.7352658,78.4340662 71.7352658,78.4340662 L71.8588065,73.4710521 C71.8588065,73.4710521 49.868568,69.1284148 47.7683767,65.4061542 C45.6681854,61.807969 42.0855061,39.4744054 36.4026354,37.2410491 C30.8433055,35.0076927 22.1954589,37.9855012 22.4425402,45.9263238 Z" id="路径" fill="#2B478B"></path>
                    </g>
                    <g id="编组" transform="translate(476.000000, 213.000000)">
                        <path d="M34.1602587,41.7036431 C33.9133634,41.8266229 33.5430203,42.0725825 33.2961249,42.1955624 C33.1726772,42.1955624 33.0492295,42.3185422 33.0492295,42.3185422 C32.8023341,42.441522 32.5554388,42.5645018 32.4319911,42.6874816 C21.692042,47.9756139 8.60658685,43.9172798 2.80454541,33.3410154 C-2.75060065,23.2566702 0.212143915,10.8357084 9.34727299,4.31777799 C10.0879591,3.82585871 10.8286453,3.33393944 11.6927791,2.84202016 C11.9396745,2.71904034 12.3100176,2.4730807 12.5569129,2.35010088 C12.8038083,2.22712106 13.1741514,2.10414124 13.4210468,1.98116142 C14.2851806,1.61222196 15.1493144,1.24328251 16.136896,0.997322868 C17.4948206,0.62838341 18.8527451,0.382423771 20.2106697,0.136464132 C24.4078912,-0.355455145 28.7285604,0.50540359 32.5554388,2.35010088 C36.6292125,4.31777799 40.0857479,7.51525329 42.3078063,11.6965672 C47.9864,22.2728316 44.406417,35.5546521 34.1602587,41.7036431 Z" id="路径" fill="#FFB93E"></path>
                        <path d="M22.5561759,43.1794009 C15.0258667,43.1794009 8.23624378,39.1210669 4.53281307,32.6031364 C1.94041158,27.8069235 1.32317313,22.2728316 2.80454541,17.1076792 C4.28591769,11.819547 7.74245302,7.51525329 12.5569129,4.93267709 C15.6431052,3.21095962 18.9761928,2.35010088 22.4327282,2.35010088 C29.9630373,2.35010088 36.7526602,6.40843492 40.4560909,12.9263653 C43.0484924,17.7225783 43.6657309,23.2566702 42.1843586,28.4218226 C40.7029863,33.7099548 37.246451,38.0142485 32.4319911,40.5968247 C29.4692465,42.3185422 26.0127112,43.1794009 22.5561759,43.1794009 Z M22.5561759,3.57989907 C19.3465359,3.57989907 16.136896,4.44075781 13.2975991,5.91651564 C8.73003454,8.37611203 5.5203946,12.4344461 4.03902231,17.3536388 C2.55765003,22.2728316 3.17488848,27.437984 5.64384229,31.9882373 C9.10037761,38.1372283 15.5196575,41.9496027 22.5561759,41.9496027 C25.7658158,41.9496027 28.9754557,41.088744 31.8147526,39.6129861 C36.3823172,37.1533898 39.5919571,33.0950557 41.0733294,28.1758629 C42.5547017,23.2566702 41.9374632,18.0915178 39.4685094,13.5412644 C36.0119741,7.39227347 29.5926942,3.57989907 22.5561759,3.57989907 Z" id="形状" fill="#FFA412"></path>
                        <polygon id="路径" fill="#FFA412" points="22.5561759 7.76121293 27.1237404 16.8617196 37.246451 18.3374774 29.8395896 25.4703069 31.5678572 35.4316723 22.5561759 30.7584392 13.5444945 35.4316723 15.2727621 25.4703069 7.86590071 18.3374774 17.9886113 16.8617196"></polygon>
                    </g>
                    <g id="编组" transform="translate(505.000000, 176.000000)">
                        <path d="M18.9760686,23.1216448 C18.8541742,23.2423783 18.6103852,23.3631119 18.4884907,23.3631119 C18.4884907,23.3631119 18.3665963,23.3631119 18.3665963,23.4838455 C18.2447018,23.4838455 18.1228073,23.604579 18.0009128,23.7253126 C12.0280835,26.6229181 4.71441493,24.449714 1.54515855,18.5337693 C-1.50220336,12.9800254 0.0824248333,6.09821224 5.20199283,2.47620532 C5.56767626,2.23473819 6.05525417,1.8725375 6.42093759,1.63107037 C6.54283207,1.5103368 6.78662102,1.5103368 6.9085155,1.38960324 C7.03040998,1.26886967 7.27419893,1.26886967 7.3960934,1.14813611 C7.88367131,0.906668982 8.37124921,0.785935418 8.85882712,0.54446829 C9.59019397,0.303001161 10.3215608,0.182267597 11.1748222,0.0615340332 C13.4908172,-0.179933095 15.9287067,0.303001161 18.0009128,1.26886967 C20.1950134,2.35547175 22.145325,4.04574165 23.4861643,6.46041293 C26.6554206,12.3763576 24.705109,19.741105 18.9760686,23.1216448 Z" id="路径" fill="#FFB93E"></path>
                        <path d="M12.5156614,23.9667797 C8.37124921,23.9667797 4.47062598,21.672842 2.52031436,18.1715687 C1.05758064,15.5154302 0.691897214,12.4970911 1.54515855,9.5994856 C2.39841988,6.70188006 4.3487315,4.28720878 7.03040998,2.83840601 C8.73693264,1.8725375 10.6872443,1.38960324 12.5156614,1.38960324 C16.6600736,1.38960324 20.5606968,3.68354096 22.5110084,7.18481432 C23.9737422,9.84095273 24.3394256,12.8592918 23.4861643,15.7568974 C22.6329029,18.6545029 20.6825913,21.0691742 18.0009128,22.517977 C16.4162846,23.4838455 14.465973,23.9667797 12.5156614,23.9667797 Z M12.5156614,1.99327106 C10.6872443,1.99327106 8.85882712,2.47620532 7.3960934,3.32134026 C4.8363094,4.64940947 3.00789226,6.94334719 2.2765254,9.72021916 C1.42326407,12.3763576 1.7889475,15.2739631 3.25168121,17.809368 C5.08009836,21.1899078 8.73693264,23.3631119 12.6375559,23.3631119 C14.465973,23.3631119 16.2943902,22.8801777 17.8790184,22.0350427 C20.4388024,20.7069735 22.2672195,18.4130358 22.9985864,15.6361638 C23.8518477,12.8592918 23.4861643,10.0824199 22.0234305,7.54701501 C20.0731189,4.16647521 16.4162846,1.99327106 12.5156614,1.99327106 Z" id="形状" fill="#FFA412"></path>
                        <polygon id="路径" fill="#FFA412" points="12.5156614 4.40794234 15.0754454 9.35801847 20.6825913 10.2031534 16.6600736 14.187361 17.6352294 19.741105 12.5156614 17.0849666 7.51798788 19.741105 8.49314369 14.187361 4.3487315 10.2031534 9.9558774 9.35801847"></polygon>
                    </g>
                    <g id="编组" transform="translate(285.000000, 17.000000)">
                        <path d="M18.6319859,17.15294 C18.5049075,17.278841 18.3778292,17.4047421 18.3778292,17.5306431 C18.3778292,17.5306431 18.3778292,17.6565442 18.2507508,17.6565442 C18.1236724,17.7824452 18.1236724,17.7824452 17.996594,17.9083463 C14.0571646,21.8112788 7.7032462,22.0630809 3.50966004,18.4119505 C-0.556847751,14.886721 -1.06516122,8.96937167 1.85764125,4.68873596 C2.11179799,4.31103281 2.36595472,4.05923071 2.62011146,3.68152755 C2.74718983,3.5556265 2.8742682,3.42972545 3.00134657,3.3038244 C3.12842493,3.17792335 3.2555033,3.0520223 3.38258167,2.92612125 C3.76381678,2.5484181 4.01797351,2.296616 4.39920862,2.0448139 C4.90752209,1.66711075 5.54291394,1.28940759 6.05122741,1.03760549 C7.83032457,0.15629814 9.86357846,-0.0955039608 11.769754,0.0303970897 C13.8030079,0.282199191 15.8362618,1.16350654 17.4882806,2.5484181 C21.6818667,6.57725171 22.1901802,12.8723042 18.6319859,17.15294 Z" id="路径" fill="#CDE0FB"></path>
                        <path d="M10.6260487,20.1745652 C8.33863804,20.1745652 6.05122741,19.2932578 4.27213025,17.7824452 C2.36595472,16.1457316 1.22224941,13.7536116 1.09517104,11.2355906 C0.968092671,8.71756957 1.85764125,6.32544961 3.50966004,4.43693386 C5.16167883,2.5484181 7.57616783,1.41530865 10.1177352,1.28940759 C12.6593026,1.16350654 15.0737916,2.0448139 16.9799671,3.68152755 C18.8861426,5.31824121 20.0298479,7.71036117 20.1569263,10.2283822 C20.2840047,12.7464032 19.3944561,15.1385231 17.7424373,17.0270389 C16.0904185,18.9155547 13.6759295,20.0486641 11.1343621,20.1745652 C11.0072838,20.1745652 10.753127,20.1745652 10.6260487,20.1745652 Z M10.6260487,1.7930118 C10.4989703,1.7930118 10.2448136,1.7930118 10.1177352,1.7930118 C7.7032462,1.91891285 5.54291394,2.92612125 3.89089515,4.81463701 C2.23887636,6.57725171 1.47640614,8.84347062 1.60348451,11.2355906 C1.73056288,13.6277105 2.74718983,15.7680284 4.65336536,17.4047421 C6.43246251,19.0414557 8.71987315,19.796862 11.1343621,19.670961 C13.5488511,19.5450599 15.7091834,18.5378515 17.3612022,16.6493358 C19.013221,14.886721 19.7756912,12.6205021 19.6486128,10.2283822 C19.5215345,7.83626222 18.5049075,5.69594436 16.598732,4.05923071 C14.9467132,2.5484181 12.7863809,1.7930118 10.6260487,1.7930118 Z" id="形状" fill="#AFCDFB"></path>
                        <polygon id="路径" fill="#AFCDFB" points="8.33863804 4.05923071 11.6426756 7.33265802 16.3445753 6.45135066 14.184243 10.7319864 16.598732 14.76082 11.8968324 14.1313147 8.59279478 17.6565442 7.83032457 12.9982053 3.50966004 10.9837885 7.7032462 8.84347062"></polygon>
                    </g>
                    <g id="编组" transform="translate(242.000000, 280.000000)">
                        <path d="M32.7991673,30.0777384 C32.6731269,30.3290605 32.4210461,30.4547215 32.2950057,30.7060436 C32.2950057,30.7060436 32.1689653,30.8317046 32.1689653,30.9573656 C32.0429249,31.0830267 31.9168845,31.2086877 31.7908442,31.4600098 C24.8586225,38.4970274 13.6410275,38.8740105 6.20464424,32.339637 C-0.853617808,26.0565855 -1.98798135,15.5010591 3.30571518,7.96139733 C3.68383636,7.33309219 4.18799794,6.70478704 4.69215951,6.20214293 C4.81819991,5.95082087 5.07028069,5.82515984 5.19632109,5.57383778 C5.32236148,5.32251572 5.57444227,5.19685469 5.70048266,5.07119367 C6.33068463,4.56854955 6.83484621,4.06590543 7.46504817,3.56326132 C8.34733093,2.93495617 9.35565408,2.30665103 10.3639772,1.80400691 C13.5149871,0.296074563 17.0441181,-0.332230582 20.5732491,0.170413534 C24.2284205,0.547396621 27.7575516,2.05532897 30.782521,4.69421058 C38.2189042,11.2285841 39.101187,22.5380767 32.7991673,30.0777384 Z" id="路径" fill="#CDE0FB"></path>
                        <path d="M18.5566028,35.4811627 C14.3972698,35.4811627 10.4900176,33.9732303 7.33900778,31.2086877 C3.93591715,28.192823 1.91927085,24.046009 1.66719007,19.647873 C1.41510928,15.124076 2.927594,10.851601 5.95256345,7.45875322 C8.9775329,4.06590543 13.1368659,2.05532897 17.5482797,1.80400691 C22.0857338,1.55268485 26.3711072,3.0606172 29.7741979,6.0764819 C33.1772885,9.09234659 35.1939348,13.2391606 35.4460156,17.6372966 C35.6980964,22.1610936 34.1856116,26.4335686 31.1606422,29.8264164 C28.1356727,33.2192642 23.9763397,35.2298406 19.564926,35.4811627 C19.1868048,35.3555017 18.934724,35.4811627 18.5566028,35.4811627 Z M18.5566028,2.68363411 C18.304522,2.68363411 17.9264008,2.68363411 17.5482797,2.68363411 C13.2629063,2.93495617 9.35565408,4.81987161 6.58276542,7.96139733 C3.80987676,11.1029231 2.29739203,15.249737 2.54947282,19.396551 C2.80155361,23.669026 4.69215951,27.5645179 7.84316936,30.3290605 C10.9941792,33.0936031 15.1535122,34.6015355 19.3128452,34.3502134 C23.5982186,34.0988914 27.5054708,32.2139759 30.2783594,29.0724502 C33.0512481,25.9309245 34.5637328,21.7841105 34.311652,17.6372966 C34.0595712,13.3648216 32.1689653,9.46932968 29.0179555,6.70478704 C26.2450668,4.19156646 22.463855,2.68363411 18.5566028,2.68363411 Z" id="形状" fill="#AFCDFB"></path>
                        <polygon id="路径" fill="#AFCDFB" points="14.3972698 6.83044807 20.4472087 12.7365164 28.7658747 11.1029231 24.9846629 18.6425848 29.1439959 25.9309245 20.8253299 24.7999752 15.0274718 30.9573656 13.6410275 22.6637377 5.95256345 19.1452289 13.3889467 15.249737"></polygon>
                    </g>
                    <path d="M534.37935,318 L0.620649652,318 C0.248259861,318 0,317.833333 0,317.583333 L0,317.416667 C0,317.166667 0.248259861,317 0.620649652,317 L534.37935,317 C534.75174,317 535,317.166667 535,317.416667 L535,317.583333 C535,317.833333 534.62761,318 534.37935,318 Z" id="路径" fill="#2E3552"></path>
                    <g id="编组" transform="translate(321.000000, 184.000000)">
                        <path d="M11.6129032,8.02790759 C11.6129032,8.02790759 9.03225806,9.81188705 6.06451613,9.55703284 C3.87096774,9.30217863 1.80645161,7.39077207 1.67741935,7.26334496 L0,10.1941684 C0,10.1941684 4,12.6152834 7.35483871,11.8507207 C8.38709677,11.5958665 10.0645161,10.5764497 10.8387097,9.81188705 C11.6129032,9.04732443 11.6129032,8.02790759 11.6129032,8.02790759 Z" id="路径" fill="#6BB7BF"></path>
                        <path d="M11.6129032,1.78397946 L16,0 C16,0 15.3548387,8.91989732 7.87096774,11.5958665 C7.87096774,11.7232936 12.6451613,5.6067926 11.6129032,1.78397946 Z" id="路径" fill="#86D1CD"></path>
                    </g>
                    <path d="M361.701359,291 C361.701359,291 363.384622,292.74359 364.955667,292.641026 C364.955667,292.641026 365.180102,294.487179 364.619015,295 C364.619015,295 361.813577,294.487179 361.140272,293.564103 C361.140272,293.666667 360.579184,291.410256 361.701359,291 Z" id="路径" fill="#F99746"></path>
                    <g id="编组" transform="translate(329.000000, 252.000000)" fill="#CDE0FB">
                        <path d="M3.49743684,9.18351735 C3.49743684,9.18351735 1.96046737,7.22436698 1.96046737,4.89787592 C1.96046737,3.18361935 3.37920842,1.22446898 3.49743684,1.22446898 L1.01464,0 C1.01464,0 -0.522329469,3.30606625 0.187041057,5.999898 C0.423497899,6.85702629 1.36932527,8.08149527 1.96046737,8.69372976 C2.78806632,9.18351735 3.49743684,9.18351735 3.49743684,9.18351735 Z" id="路径"></path>
                        <path d="M8.34480211,8.57128286 L10,11.999796 C10,11.999796 2.90629474,12.1222429 0.305269478,6.3672387 C0.423497899,6.3672387 5.50732,9.67330494 8.34480211,8.57128286 Z" id="路径"></path>
                    </g>
                </g>
            </g>
        </g>
    </g>
</svg>