<?xml version="1.0" encoding="UTF-8"?>
<svg width="72px" height="72px" viewBox="0 0 72 72" version="1.1" xmlns="http://www.w3.org/2000/svg" xmlns:xlink="http://www.w3.org/1999/xlink">
    <title>vip_new</title>
    <defs>
        <linearGradient x1="100%" y1="50%" x2="0.437319029%" y2="50%" id="linearGradient-1">
            <stop stop-color="#E4C281" offset="0%"></stop>
            <stop stop-color="#F8EACA" offset="100%"></stop>
        </linearGradient>
        <path d="M18.4639697,4.90898123 L13.3438685,4.90898123 C12.9898862,4.90898123 12.7180784,4.82582152 12.528445,4.65950211 C12.3388117,4.49318269 12.2060683,4.28208498 12.130215,4.02620898 C12.0543616,3.77033298 12.0164349,3.48247247 12.0164349,3.16262744 C12.0164349,2.84278241 12.0417194,2.5421281 12.0922883,2.26066452 C12.1175727,1.97920091 12.1681416,1.6721497 12.243995,1.33951089 C12.3198483,1.00687208 12.4273072,0.725408472 12.5663717,0.495120056 C12.7054362,0.264831639 12.8887485,0.111306028 13.1163085,0.0345432228 C13.3438686,-0.0422195828 13.6219975,0.0217494176 13.9506954,0.226450224 C14.3299621,0.45673864 14.7597978,0.706217752 15.2402024,0.974887558 C15.7206069,1.24355736 16.1883692,1.51222717 16.6434893,1.78089698 C17.0986094,2.04956678 17.5221239,2.29264899 17.9140329,2.5101436 C18.305942,2.72763822 18.6030342,2.90035452 18.8053098,3.02829252 C19.0581543,3.20740572 19.2477877,3.40570962 19.3742099,3.62320423 C19.5006321,3.84069884 19.551201,4.04539965 19.5259166,4.23730665 C19.5006322,4.42921365 19.3994944,4.58913615 19.2225032,4.71707415 C19.0455121,4.84501215 18.7926675,4.90898123 18.4639697,4.90898123 L18.4639697,4.90898123 Z M21.4222503,4.87059985 L26.5044248,4.87059985 C26.8584071,4.87059985 27.1302149,4.78744015 27.3198483,4.62112073 C27.5094817,4.45480131 27.642225,4.2437036 27.7180784,3.9878276 C27.7939317,3.7319516 27.8318584,3.44409109 27.8318584,3.12424606 C27.8318584,2.80440103 27.8192162,2.50374673 27.7939317,2.22228314 C27.7433628,1.94081953 27.6864728,1.64016522 27.6232617,1.32032022 C27.5600506,1.00047522 27.4589128,0.725408511 27.3198483,0.495120094 C27.1807838,0.264831678 26.9974715,0.111306067 26.7699115,0.0345432613 C26.5423514,-0.0422195442 26.2642225,0.00895566377 25.9355246,0.188068885 C25.5562579,0.418357302 25.1264222,0.667836413 24.6460177,0.93650622 C24.1656131,1.20517603 23.6915296,1.47384583 23.2237674,1.74251564 C22.7560051,2.01118545 22.3261694,2.25426765 21.9342604,2.47176227 C21.5423514,2.68925688 21.2579013,2.86197318 21.0809102,2.98991118 C20.8027812,3.16902438 20.6005056,3.36732828 20.4740834,3.58482289 C20.3476611,3.80231751 20.2970922,4.00701831 20.3223767,4.19892531 C20.3476611,4.39083231 20.4487989,4.55075481 20.6257901,4.67869281 C20.8027812,4.80663082 21.068268,4.87059985 21.4222502,4.87059985 L21.4222503,4.87059985 Z M17.9329962,7.40377232 L6.93426046,7.40377232 C6.12515806,7.40377232 5.60050572,7.53810722 5.36030343,7.80677703 C5.12010114,8.07544684 5,8.50403916 5,9.09255399 L5,12.4701173 C5,13.1098074 5.13274336,13.583178 5.39823008,13.8902292 C5.6637168,14.1972804 6.18836915,14.350806 6.97218711,14.350806 L17.9329962,14.350806 L17.9329962,7.40377232 L17.9329962,7.40377232 Z M22.0670038,7.40377232 L32.9140329,7.40377232 C33.7231353,7.40377232 34.273072,7.56369482 34.5638432,7.88353982 C34.8546144,8.20338482 35,8.65756474 35,9.24607958 L35,12.5468801 C35,13.1609825 34.8672566,13.6151624 34.6017699,13.9094198 C34.3362832,14.2036773 33.8116309,14.350806 33.0278129,14.350806 L22.0670038,14.350806 L22.0670038,7.40377232 L22.0670038,7.40377232 Z M17.9329962,16.3850203 L6.28950697,16.3850203 L6.28950697,22.6795701 L6.28950697,25.1743612 L6.28950697,27.5156267 L6.28950697,29.5114596 L6.28950697,30.89319 C6.28950697,32.1981577 6.65613149,33.2088679 7.38938053,33.9253207 C8.12262958,34.6417736 9.26042983,35 10.8027813,35 L17.9329962,35 L17.9329962,16.3850203 L17.9329962,16.3850203 Z M22.0670038,16.3850202 L33.6725664,16.3850202 L33.6725664,30.7780458 C33.6472819,32.0830134 33.2806574,33.1129144 32.5726928,33.8677486 C31.8647282,34.6225828 30.7395702,34.9999999 29.1972187,34.9999999 L22.0670038,34.9999999 L22.0670038,16.3850202 L22.0670038,16.3850202 Z" id="path-2"></path>
    </defs>
    <g id="defi" stroke="none" stroke-width="1" fill="none" fill-rule="evenodd">
        <g id="VIP" transform="translate(-127.000000, -3155.000000)">
            <g id="编组-6备份-5" transform="translate(95.000000, 3111.000000)">
                <g id="vip_new" transform="translate(32.000000, 44.000000)">
                    <circle id="椭圆形" fill-opacity="0.19726904" fill="#FFFFFF" cx="36" cy="36" r="36"></circle>
                    <g id="礼物" transform="translate(16.000000, 16.000000)" fill-rule="nonzero">
                        <rect id="矩形" fill="#000000" opacity="0" x="0" y="0" width="39" height="39"></rect>
                        <g id="形状">
                            <use fill="#000000" xlink:href="#path-2"></use>
                            <use fill="url(#linearGradient-1)" xlink:href="#path-2"></use>
                        </g>
                    </g>
                </g>
            </g>
        </g>
    </g>
</svg>