<?xml version="1.0" encoding="UTF-8"?>
<svg width="72px" height="72px" viewBox="0 0 72 72" version="1.1" xmlns="http://www.w3.org/2000/svg" xmlns:xlink="http://www.w3.org/1999/xlink">
    <title>vip_recharge</title>
    <defs>
        <linearGradient x1="100%" y1="50%" x2="0.437319029%" y2="50%" id="linearGradient-1">
            <stop stop-color="#E4C281" offset="0%"></stop>
            <stop stop-color="#F8EACA" offset="100%"></stop>
        </linearGradient>
    </defs>
    <g id="defi" stroke="none" stroke-width="1" fill="none" fill-rule="evenodd">
        <g id="VIP" transform="translate(-127.000000, -1355.000000)">
            <g id="编组-6" transform="translate(95.000000, 1311.000000)">
                <g id="vip_recharge" transform="translate(32.000000, 44.000000)">
                    <circle id="椭圆形" fill-opacity="0.19726904" fill="#FFFFFF" cx="36" cy="36" r="36"></circle>
                    <path d="M37.9499621,21.436315 L40.7926204,18.2260294 C41.106019,17.8740981 41.1851645,17.3680582 40.9945078,16.9352047 C40.803851,16.5023511 40.3792406,16.2240723 39.9113963,16.2253565 L31.2374983,16.2253565 C30.7704475,16.2257766 30.3472444,16.5042282 30.1569116,16.9363462 C29.9665789,17.3684642 30.0446576,17.8735583 30.3562742,18.2260294 L33.1799814,21.4094346 C26.3284096,22.5625268 21.3028306,28.5635665 21.2957746,35.6003561 L21.2957746,43.7508719 C21.2988956,45.9073521 23.0219368,47.6556271 25.1504193,47.6619674 L45.8298109,47.6619674 C47.960514,47.6587951 49.6870098,45.9095949 49.6901408,43.7508719 L49.6901408,35.6003561 C49.682247,28.6201986 44.7344275,22.6508586 37.9499621,21.436315 Z M37.2582486,18.6253951 L35.5734997,20.522382 L33.890646,18.6253951 L37.2582486,18.6253951 Z M36.4698846,40.9303518 L36.4698846,42.2878111 C36.4658929,42.4515293 36.3358414,42.5832911 36.1742482,42.5873353 L34.8344086,42.5873353 C34.6728154,42.5832911 34.5427639,42.4515293 34.5387721,42.2878111 L34.5387721,41.010993 C33.8890182,40.9785385 33.2430718,40.891194 32.6076596,40.7498693 C32.4526793,40.7379168 32.3324933,40.6078101 32.3309742,40.450345 L32.3309742,39.3732097 C32.3339958,39.219677 32.4561197,39.0959471 32.6076596,39.0928857 L32.6474568,39.0928857 C33.2387297,39.1735269 34.716912,39.252248 35.2683877,39.252248 C36.5949616,39.252248 36.9739827,38.7741612 36.9739827,37.8947887 C36.9739827,37.3187805 36.6972973,37.0173362 35.7118424,36.4182877 L33.7598837,35.239391 C32.3802469,34.4214594 32.0069111,33.5420869 32.0069111,32.4841519 C32.0069111,31.1055723 32.6758834,30.028437 34.5292966,29.7289128 L34.5292966,28.4693749 C34.5383905,28.3057497 34.6726564,28.1781673 34.8344086,28.1794411 L36.1742482,28.1794411 C36.3358414,28.183495 36.4658929,28.3152568 36.4698846,28.478975 L36.4698846,29.677072 C37.1691373,29.7114537 37.8654628,29.7916222 38.5545007,29.9170754 C38.7117945,29.957396 38.829291,30.0572374 38.829291,30.1973994 L38.829291,31.3148553 C38.835727,31.3873223 38.8115768,31.459162 38.7628208,31.5125841 C38.7140648,31.5660062 38.6452625,31.596015 38.5734518,31.5951793 L38.5336546,31.5951793 C37.5481997,31.4953378 36.583591,31.435817 35.6170872,31.435817 C34.5198211,31.4262169 34.0574153,31.8275026 34.0574153,32.4841519 C34.0574153,32.983359 34.3151497,33.2828832 35.2797584,33.828171 L37.0535772,34.8265851 C38.6890532,35.7443582 39.123096,36.7024518 39.123096,37.8986288 C39.1306128,39.1735269 38.4616406,40.5501864 36.4698846,40.9303518 Z" id="形状" fill="url(#linearGradient-1)" fill-rule="nonzero"></path>
                </g>
            </g>
        </g>
    </g>
</svg>