<?xml version="1.0" encoding="UTF-8"?>
<svg width="40px" height="45px" viewBox="0 0 40 45" version="1.1" xmlns="http://www.w3.org/2000/svg" xmlns:xlink="http://www.w3.org/1999/xlink">
    <title>vip_svip</title>
    <defs>
        <linearGradient x1="33.4991326%" y1="-1.28058424%" x2="41.4141969%" y2="86.3070542%" id="linearGradient-1">
            <stop stop-color="#F9FF88" offset="0%"></stop>
            <stop stop-color="#BB8027" offset="100%"></stop>
        </linearGradient>
        <linearGradient x1="66.4018205%" y1="7.93389583%" x2="58.8047489%" y2="79.5822008%" id="linearGradient-2">
            <stop stop-color="#F9FF88" offset="0%"></stop>
            <stop stop-color="#BB8027" offset="100%"></stop>
        </linearGradient>
    </defs>
    <g id="defi" stroke="none" stroke-width="1" fill="none" fill-rule="evenodd">
        <g id="VIP" transform="translate(-95.000000, -4679.000000)" fill-rule="nonzero">
            <g id="编组-14" transform="translate(50.000000, 4318.000000)">
                <g id="编组" transform="translate(45.000000, 361.000000)">
                    <g id="钻石-(1)" transform="translate(0.000000, 12.593284)">
                        <polygon id="路径" fill="#FFFFFF" points="13.1710314 0 27.9399798 0 33.7190083 2.87348411 27.2337895 5.87686567 13.6844858 5.87686567 6.94214876 2.6124752"></polygon>
                        <polygon id="路径" fill="#E1EDFF" points="6.95614478 2.51865672 0 10.9995292 10.8846976 14.9440299 13.7190083 5.8056212"></polygon>
                        <polygon id="路径" fill="#CAE0FF" points="27.104607 5.87686567 13.5670582 5.87686567 10.7438017 14.9440299 30.2479339 14.9440299"></polygon>
                        <polygon id="路径" fill="#E1EDFF" points="33.6184577 2.85447761 27.107438 5.86057894 30.2665527 14.9440299 40 10.8921004"></polygon>
                        <polygon id="路径" fill="#649AE8" points="0 10.9141791 10.8554609 14.8416635 20.3305785 32.4067164"></polygon>
                        <polygon id="路径" fill="#9FBFFF" points="30.2479339 14.9440299 10.7438017 14.9440299 20.2072054 32.4067164"></polygon>
                        <polygon id="路径" fill="#82AEF4" points="30.3417454 14.9482583 20.3305785 32.4067164 40 10.9141791"></polygon>
                        <polygon id="路径" fill="#FFFFFF" points="30.3417454 14.9482583 20.3305785 32.4067164 30.1656173 14.5690258 40 10.9141791"></polygon>
                        <polygon id="路径" fill="#FFFFFF" points="27.107438 5.87686567 30.1157262 14.9440299 30.2944579 14.6691152 30.4132231 14.4550883"></polygon>
                        <polygon id="路径" fill="#FFFFFF" points="10.679253 14.8416635 20.3305785 32.4067164 10.8554609 14.4601156 0 10.9141791"></polygon>
                        <polygon id="路径" fill="#FFFFFF" points="13.553719 5.87686567 10.7088465 14.9440299 10.5315056 14.6691152 10.4132231 14.4550883"></polygon>
                        <polygon id="路径" fill="#CAE0FF" points="0 11.044608 20.288733 31.2965063 40 10.9141791 20.288733 32.4067164"></polygon>
                    </g>
                    <g id="VIP" transform="translate(7.768595, 0.000000)">
                        <path d="M1.48760331,5.20522388 L19.306608,15.4384001 C19.5899611,15.6013031 19.728935,15.935296 19.645317,16.2524125 C19.561699,16.5695291 19.2763826,16.7905323 18.9499397,16.7910448 L4.20116465,16.7910448 C3.4742536,16.7912038 2.86102564,16.2472738 2.77088869,15.5223973 L1.48760331,5.20522388 Z" id="Shape" fill="url(#linearGradient-1)"></path>
                        <path d="M23.1404959,5.20522388 L21.8572613,15.5223973 C21.7671279,16.2472737 21.1539242,16.7912038 20.4270419,16.7910448 L5.67957102,16.7910448 C5.35287331,16.7911879 5.06696546,16.5704036 4.98296649,16.2531116 C4.89896752,15.9358197 5.03790209,15.6014371 5.3214758,15.4384001 L23.1404959,5.20522388 Z" id="Shape" fill="url(#linearGradient-2)"></path>
                        <path d="M12.231405,2.35074627 L20.0992877,14.5600186 C20.3854069,15.0040211 20.4076397,15.5703808 20.157221,16.0358138 C19.9068023,16.5012469 19.4239095,16.7910448 18.8989202,16.7910448 L5.56388972,16.7910448 C5.03890041,16.7910448 4.55600763,16.5012469 4.30558892,16.0358138 C4.05517024,15.5703808 4.07740304,15.0040211 4.36352225,14.5600186 L12.231405,2.35074627 Z" id="Shape" fill="#E8CB32"></path>
                        <path d="M12.231405,2.35074627 L20.0992877,14.5600186 C20.3854069,15.0040211 20.4076397,15.5703808 20.157221,16.0358138 C19.9068023,16.5012469 19.4239095,16.7910448 18.8989202,16.7910448 L12.231405,16.7910448 L12.231405,2.35074627 Z" id="Shape" fill="#F3DC81"></path>
                        <path d="M10.7438017,1.4272388 C10.7438017,2.21548103 11.3728231,2.85447761 12.1487603,2.85447761 C12.9246976,2.85447761 13.553719,2.21548103 13.553719,1.4272388 C13.553719,0.638996579 12.9246976,0 12.1487603,0 C11.3728231,0 10.7438017,0.638996579 10.7438017,1.4272388 Z" id="Shape" fill="#E8CB32"></path>
                        <path d="M21.6528926,4.44962685 C21.6528926,4.95953017 21.9206761,5.43070027 22.3553719,5.68565193 C22.7900676,5.94060359 23.3256348,5.94060359 23.7603306,5.68565193 C24.1950263,5.43070027 24.4628099,4.95953017 24.4628099,4.44962685 C24.4628099,3.66138462 23.8337885,3.02238806 23.0578512,3.02238806 C22.281914,3.02238806 21.6528926,3.66138462 21.6528926,4.44962685 Z" id="Shape" fill="#F8FD86"></path>
                        <path d="M0,4.44962688 C0,5.23786908 0.629021426,5.87686567 1.40495868,5.87686567 C2.18089593,5.87686567 2.80991736,5.23786908 2.80991736,4.44962688 C2.80991736,3.66138465 2.18089593,3.02238806 1.40495868,3.02238806 C0.629021426,3.02238806 0,3.66138465 0,4.44962688 Z" id="Shape" fill="#F8FD86"></path>
                        <path d="M8.41406005,15.1119403 L6.94214876,10.7462687 L8.36733271,10.7462687 L9.11497019,13.6408988 L9.88597134,10.7462687 L11.3111553,10.7462687 L9.81588032,15.1119403 L8.41406005,15.1119403 Z M13.320431,15.1119403 L11.8952471,15.1119403 L11.8952471,10.7462687 L13.320431,10.7462687 L13.320431,15.1119403 Z M15.5166161,12.7392927 L16.1007079,12.7392927 C16.4745285,12.7392927 16.661436,12.5653003 16.661436,12.2173102 C16.661436,11.9167733 16.412226,11.7665071 15.9137985,11.7665071 L15.5166161,11.7665071 L15.5166161,12.7392927 Z M15.5166161,15.1119403 L14.1147958,15.1119403 L14.1147958,10.7462687 L16.1707989,10.7462687 C17.37014,10.7620864 17.9853772,11.2524287 18.0165289,12.2173102 C18.0009531,13.2296449 17.4012915,13.7437134 16.2175262,13.7595311 L15.5166161,13.7595311 L15.5166161,15.1119403 Z" fill="#A97423"></path>
                    </g>
                </g>
            </g>
        </g>
    </g>
</svg>