<?xml version="1.0" encoding="UTF-8"?>
<svg width="251px" height="305px" viewBox="0 0 251 305" version="1.1" xmlns="http://www.w3.org/2000/svg" xmlns:xlink="http://www.w3.org/1999/xlink">
    <title>vip_icon</title>
    <defs>
        <linearGradient x1="33.4991326%" y1="0.307965772%" x2="41.4141969%" y2="85.1823484%" id="linearGradient-1">
            <stop stop-color="#F9FF88" offset="0%"></stop>
            <stop stop-color="#BB8027" offset="100%"></stop>
        </linearGradient>
        <linearGradient x1="66.4018205%" y1="9.23700327%" x2="58.8047489%" y2="78.6658149%" id="linearGradient-2">
            <stop stop-color="#F9FF88" offset="0%"></stop>
            <stop stop-color="#BB8027" offset="100%"></stop>
        </linearGradient>
        <linearGradient x1="50%" y1="0%" x2="50%" y2="100%" id="linearGradient-3">
            <stop stop-color="#FFFFFF" stop-opacity="0" offset="0%"></stop>
            <stop stop-color="#EDDBB3" stop-opacity="0.570196405" offset="100%"></stop>
        </linearGradient>
    </defs>
    <g id="defi" stroke="none" stroke-width="1" fill="none" fill-rule="evenodd">
        <g id="VIP" transform="translate(-250.000000, -693.000000)">
            <g id="vip_icon" transform="translate(250.000000, 693.000000)">
                <g id="编组" transform="translate(4.000000, 0.000000)" fill-rule="nonzero">
                    <g id="钻石-(1)" transform="translate(0.000000, 75.000000)">
                        <polygon id="路径" fill="#FFFFFF" points="79.6847397 0 169.036878 0 204 17.1131942 164.764426 35 82.7911394 35 42 15.5587412"></polygon>
                        <polygon id="路径" fill="#E1EDFF" points="42.0846759 15 0 65.508307 65.8524206 89 83 34.5756996"></polygon>
                        <polygon id="路径" fill="#CAE0FF" points="163.982873 35 82.0807023 35 65 89 183 89"></polygon>
                        <polygon id="路径" fill="#E1EDFF" points="203.391669 17 164 34.9030035 183.112644 89 242 64.8685089"></polygon>
                        <polygon id="路径" fill="#649AE8" points="0 65 65.6755384 88.3903517 123 193"></polygon>
                        <polygon id="路径" fill="#9FBFFF" points="183 89 65 89 122.253593 193"></polygon>
                        <polygon id="路径" fill="#82AEF4" points="183.567559 89.0251825 123 193 242 65"></polygon>
                        <polygon id="路径" fill="#FFFFFF" points="183.567559 89.0251825 123 193 182.501985 86.7666425 242 65"></polygon>
                        <polygon id="路径" fill="#FFFFFF" points="164 35 182.200144 89 183.28147 87.3627307 184 86.0880815"></polygon>
                        <polygon id="路径" fill="#FFFFFF" points="64.6094806 88.3903517 123 193 65.6755384 86.1180218 0 65"></polygon>
                        <polygon id="路径" fill="#FFFFFF" points="82 35 64.7885214 89 63.7156092 87.3627307 63 86.0880815"></polygon>
                        <polygon id="路径" fill="#CAE0FF" points="0 65.7767768 122.746835 186.388082 242 65 122.746835 193"></polygon>
                    </g>
                    <g id="VIP" transform="translate(47.000000, 0.000000)">
                        <path d="M9,31 L116.804978,91.9442497 C118.519265,92.9144271 119.360057,94.9035406 118.854168,96.7921457 C118.348279,98.6807509 116.622114,99.9969478 114.647135,100 L25.4170461,100 C21.0192343,100.000947 17.3092051,96.7615416 16.7638766,92.4444998 L9,31 Z" id="Shape" fill="url(#linearGradient-1)"></path>
                        <path d="M140,31 L132.236431,92.4444996 C131.691124,96.7615414 127.981241,100.000947 123.583604,100 L34.3614047,100 C32.3848836,100.000852 30.655141,98.6859594 30.1469472,96.7963093 C29.6387535,94.9066594 30.4793077,92.9152253 32.1949286,91.9442495 L140,31 Z" id="Shape" fill="url(#linearGradient-2)"></path>
                        <path d="M74,14 L121.60069,86.7129999 C123.331712,89.3572815 123.46622,92.7302681 121.951187,95.5021802 C120.436154,98.2740925 117.514653,100 114.338467,100 L33.6615328,100 C30.4853475,100 27.5638462,98.2740925 26.048813,95.5021802 C24.53378,92.7302681 24.6682884,89.3572815 26.3993096,86.7129999 L74,14 Z" id="Shape" fill="#E8CB32"></path>
                        <path d="M74,14 L121.60069,86.7129999 C123.331712,89.3572815 123.46622,92.7302681 121.951187,95.5021802 C120.436154,98.2740925 117.514653,100 114.338467,100 L74,100 L74,14 Z" id="Shape" fill="#F3DC81"></path>
                        <path d="M65,8.5 C65,13.1944204 68.8055797,17 73.5,17 C78.1944203,17 82,13.1944204 82,8.5 C82,3.80557963 78.1944203,0 73.5,0 C68.8055797,0 65,3.80557963 65,8.5 Z" id="Shape" fill="#E8CB32"></path>
                        <path d="M131,26.5 C131,29.5367574 132.620091,32.3428372 135.25,33.8612159 C137.879909,35.3795947 141.120091,35.3795947 143.75,33.8612159 C146.379909,32.3428372 148,29.5367574 148,26.5 C148,21.8055795 144.19442,18 139.5,18 C134.805579,18 131,21.8055795 131,26.5 Z" id="Shape" fill="#F8FD86"></path>
                        <path d="M0,26.5 C0,31.1944203 3.80557963,35 8.5,35 C13.1944204,35 17,31.1944203 17,26.5 C17,21.8055797 13.1944204,18 8.5,18 C3.80557963,18 0,21.8055797 0,26.5 Z" id="Shape" fill="#F8FD86"></path>
                        <path d="M50.9050633,90 L42,64 L50.6223629,64 L55.1455696,81.2391304 L59.8101266,64 L68.4324895,64 L59.3860759,90 L50.9050633,90 Z M80.5886076,90 L71.9662447,90 L71.9662447,64 L80.5886076,64 L80.5886076,90 Z M93.8755274,75.8695652 L97.4092827,75.8695652 C99.6708973,75.8695652 100.801688,74.8333438 100.801688,72.7608696 C100.801688,70.9710054 99.2939673,70.076087 96.278481,70.076087 L93.8755274,70.076087 L93.8755274,75.8695652 Z M93.8755274,90 L85.3945148,90 L85.3945148,64 L97.8333333,64 C105.089347,64.0942033 108.811532,67.014464 109,72.7608696 C108.905766,78.7898852 105.277814,81.8514489 98.1160338,81.9456522 L93.8755274,81.9456522 L93.8755274,90 Z" fill="#A97423"></path>
                    </g>
                </g>
                <polygon id="路径-16" fill="url(#linearGradient-3)" points="0 134 251 134 161.507373 305 87 305"></polygon>
            </g>
        </g>
    </g>
</svg>