<?xml version="1.0" encoding="UTF-8"?>
<svg width="32px" height="32px" viewBox="0 0 32 32" version="1.1" xmlns="http://www.w3.org/2000/svg" xmlns:xlink="http://www.w3.org/1999/xlink">
    <title>vip_select</title>
    <g id="defi" stroke="none" stroke-width="1" fill="none" fill-rule="evenodd">
        <g id="VIP" transform="translate(-214.000000, -5726.000000)" fill-rule="nonzero">
            <g id="编组-10备份" transform="translate(50.000000, 5116.000000)">
                <g id="编组-16" transform="translate(55.000000, 251.000000)">
                    <g id="编组-15" transform="translate(0.000000, 92.000000)">
                        <g id="vip_select" transform="translate(109.000000, 267.000000)">
                            <rect id="矩形" fill="#000000" opacity="0" x="0" y="0" width="32" height="32"></rect>
                            <path d="M23.6275724,27.1040006 L3.47073769,27.1040006 C1.55446685,27.102639 0.001362533,25.5506201 0,23.6356886 L0,3.4929411 C0.00136255024,1.57800952 1.55446686,0.0259906509 3.47073769,0.0246290529 L21.4475491,0.0246290529 C22.1253364,0.0280402848 22.672988,0.578072376 22.672988,1.25539453 C22.672988,1.93271668 22.1253364,2.48274877 21.4475491,2.48616 L3.47073769,2.48616 C2.91487536,2.48750001 2.46459342,2.93746725 2.46325248,3.4929411 L2.46325248,23.6332511 C2.46461059,24.1887127 2.91488752,24.638661 3.47073769,24.6400009 L23.6251332,24.6400009 C24.1809834,24.6386438 24.6312464,24.1886815 24.6325872,23.6332198 L24.6325872,17.7181581 C24.6325873,17.0384164 25.1840121,16.487377 25.8642291,16.487377 C26.5444461,16.487377 27.095871,17.0384164 27.095871,17.7181581 L27.095871,23.6332198 C27.095871,25.5481648 25.5438547,27.1012937 23.6275724,27.1040006 Z M30.7660918,32 L9.16083871,32 C8.48062168,32 7.92919683,31.4489605 7.92919683,30.7692189 C7.92919683,30.0894773 8.48062168,29.5384378 9.16083871,29.5384378 L29.5344499,29.5384378 L29.5344499,17.5384393 C29.5344499,16.8586977 30.0858748,16.3076582 30.7660918,16.3076582 C31.4463088,16.3076582 31.9977337,16.8586977 31.9977337,17.5384393 L31.9977337,30.7692189 C31.9977337,31.0956424 31.8679718,31.4086963 31.6369941,31.6395126 C31.4060165,31.8703288 31.0927435,32 30.7660918,32 L30.7660918,32 Z M30.7660918,2.02260708e-06 C30.4393313,2.02260708e-06 30.1258363,0.129161585 29.8941075,0.359379002 L14.2179349,16.024627 C13.7363513,16.5058741 13.7363513,17.2861297 14.2179349,17.7673768 C14.6995185,18.2486238 15.4803199,18.2486238 15.9619035,17.7673768 L31.6381074,2.10219128 C31.9912964,1.75015251 32.0971077,1.21998363 31.9060857,0.759482764 C31.7150638,0.298981902 31.2649368,-0.000898510732 30.7660918,2.02260708e-06 L30.7660918,2.02260708e-06 Z M8.19278727,8.70398873 C7.69504709,8.70412582 7.24630662,9.00361694 7.05552027,9.46301933 C6.86473391,9.92242172 6.96940861,10.4514209 7.32080297,10.8036902 L14.2869206,17.7649393 C14.7680387,18.2463593 15.5484254,18.2474501 16.0308892,17.7673768 C16.5116918,17.2867584 16.5116918,16.507683 16.0308892,16.0270645 L9.06233237,9.0633779 C8.83243544,8.8319118 8.51913315,8.70242687 8.19278727,8.70398873 Z" id="形状" fill="#FFFFFF"></path>
                        </g>
                    </g>
                </g>
            </g>
        </g>
    </g>
</svg>