<?xml version="1.0" encoding="UTF-8"?>
<svg width="72px" height="72px" viewBox="0 0 72 72" version="1.1" xmlns="http://www.w3.org/2000/svg" xmlns:xlink="http://www.w3.org/1999/xlink">
    <title>vip_sale</title>
    <defs>
        <linearGradient x1="100%" y1="50%" x2="0.437319029%" y2="50%" id="linearGradient-1">
            <stop stop-color="#E4C281" offset="0%"></stop>
            <stop stop-color="#F8EACA" offset="100%"></stop>
        </linearGradient>
    </defs>
    <g id="defi" stroke="none" stroke-width="1" fill="none" fill-rule="evenodd">
        <g id="VIP" transform="translate(-127.000000, -1715.000000)">
            <g id="编组-6备份" transform="translate(95.000000, 1671.000000)">
                <g id="vip_sale" transform="translate(32.000000, 44.000000)">
                    <circle id="椭圆形" fill-opacity="0.19726904" fill="#FFFFFF" cx="36" cy="36" r="36"></circle>
                    <g id="优惠券" transform="translate(15.000000, 15.000000)" fill-rule="nonzero">
                        <rect id="矩形" fill="#000000" opacity="0" x="0" y="0" width="43" height="43"></rect>
                        <path d="M40.0686567,12.2932436 C40.3815298,12.4608915 40.6143656,12.6868517 40.7671642,12.9784132 C40.9199627,13.2699747 41,13.5615363 41,13.8530978 C41,14.1446593 40.9199627,14.4143538 40.7671642,14.6621811 C40.6143657,14.9100084 40.3960821,15.0922343 40.1123134,15.2015699 C39.7994403,15.3109055 39.5738806,15.4712643 39.4356343,15.6826464 C39.2973881,15.8867395 39.2173507,16.1199887 39.2027985,16.367816 C39.1882462,16.6156433 39.2464552,16.8561816 39.3701492,17.0967198 C39.4938433,17.3299691 39.7048507,17.5340622 39.9813433,17.70171 C40.2651119,17.8693579 40.4688432,18.0880291 40.5925373,18.3650125 C40.7162313,18.641996 40.7744403,18.9189794 40.759888,19.1959629 C40.7453358,19.4729464 40.6725746,19.7280627 40.5488806,19.968601 C40.4251866,20.2018502 40.2287313,20.3330529 39.9813433,20.3622091 C39.7557836,20.4205214 39.5957089,20.537146 39.4938433,20.7193719 C39.3919776,20.9015979 39.3483209,21.0984019 39.3483209,21.3243621 C39.3483209,21.5430332 39.3992537,21.7617044 39.4938433,21.9657975 C39.595709,22.1771796 39.7557836,22.3229604 39.9813433,22.4031398 C40.2069029,22.4833192 40.3815298,22.6509671 40.5125,22.8987944 C40.636194,23.1466218 40.7089552,23.4090271 40.7235074,23.6860106 C40.7380597,23.962994 40.7016791,24.2253994 40.6216417,24.4732267 C40.5343283,24.7210541 40.4106343,24.90328 40.2432835,25.0126156 C39.6757462,25.3479113 39.3992537,25.7196523 39.3992537,26.1351275 C39.3992537,26.5506027 39.6830223,26.9660779 40.2432835,27.3815531 C40.3524253,27.4617325 40.4615671,27.6148023 40.5634328,27.8407625 C40.6652985,28.0594336 40.7089552,28.2853938 40.7089552,28.504065 C40.7089552,28.7227361 40.6507462,28.9195402 40.5416044,29.0871881 C40.4251865,29.254836 40.2287312,29.3350154 39.9522387,29.3350154 L37.6675372,29.3350154 C37.5001864,29.3350154 37.4055969,29.3204373 37.3910447,29.2912811 C37.3764925,29.262125 37.3983208,29.2183907 37.4565298,29.1455004 C37.5147387,29.07261 37.5802238,28.9997196 37.6675372,28.9195402 C37.7548506,28.8393608 37.8203357,28.7373142 37.8785447,28.6279787 C38.0167909,28.2416596 38.0167909,27.9063639 37.8785447,27.6293804 C37.7330223,27.352397 37.5001864,27.1191477 37.1582088,26.9223437 C36.9326492,26.8130081 36.7725745,26.6380712 36.6707089,26.404822 C36.5688432,26.1715727 36.5324626,25.9237454 36.5397387,25.6759181 C36.5542909,25.4280908 36.6052238,25.2021306 36.6852611,25.0126156 C36.7725745,24.8158116 36.8962685,24.6773199 37.0636193,24.5971404 C37.289179,24.516961 37.4565298,24.3638912 37.5729477,24.137931 C37.6820895,23.9192599 37.7402984,23.6787216 37.7402984,23.4308943 C37.7402984,23.183067 37.6966417,22.9498178 37.6166044,22.7457247 C37.529291,22.5343426 37.405597,22.3958509 37.2382462,22.3083824 C37.0126865,22.1990468 36.8380596,22.0313989 36.7070895,21.8127277 C36.5833954,21.5940566 36.5179104,21.3389403 36.5179104,21.0619568 C36.5179104,20.7849734 36.5761193,20.5152789 36.6852611,20.2528736 C36.7944029,19.9904682 36.983582,19.771797 37.2382462,19.6114382 C37.405597,19.5021026 37.5511193,19.3490328 37.6602611,19.1522287 C37.776679,18.9554247 37.834888,18.7513316 37.8494402,18.5253714 C37.8639924,18.3067003 37.8203357,18.0880291 37.7257462,17.883936 C37.6238805,17.6725539 37.4492536,17.504906 37.1945895,17.3664143 C36.9108208,17.2279226 36.7070895,17.0238295 36.5833954,16.7614241 C36.4524253,16.4990187 36.3942163,16.2293243 36.3942163,15.9523409 C36.3942163,15.6753574 36.4597014,15.412952 36.5833954,15.1651247 C36.7070895,14.9172974 36.8889925,14.7204934 37.1145522,14.5820016 C37.594776,14.3341743 37.8567163,13.9915895 37.9003731,13.5615363 C37.9440298,13.131483 37.9076492,12.737875 37.7912312,12.373423 C37.7039178,12.0964396 37.5365671,11.8486123 37.2819029,11.6226521 C37.0272387,11.4039809 36.7070894,11.2873563 36.3069029,11.2873563 L16.0065297,11.2873563 L16.0065297,8 L39.8212686,8 C40.0177238,8 40.1850746,8.07289038 40.3305969,8.20409307 C40.4688432,8.3425848 40.5634328,8.5102327 40.6070895,8.70703674 C40.6507462,8.90384077 40.6361939,9.10064481 40.5634327,9.31202692 C40.4906715,9.51611999 40.3597014,9.69105692 40.1632462,9.82954865 C39.9958954,9.96804037 39.8430969,10.1502663 39.7194029,10.3689375 C39.5957088,10.5876086 39.5229477,10.8208579 39.5083954,11.0541071 C39.4938432,11.2873563 39.5302238,11.5278946 39.6175372,11.7611438 C39.6902985,12.0089711 39.843097,12.183908 40.0686567,12.2932436 Z M5.51436561,10.2596019 C5.51436561,9.70563499 5.73264918,9.19540229 6.16921636,8.7216148 C6.60578354,8.24782732 7.0787313,8.01457807 7.58805967,8.01457807 L13.4235074,8.01457807 L13.4235074,11.3383796 L5.51436561,11.3383796 L5.51436561,10.2596019 Z M9.49440295,34 L7.16604476,34 C6.54757463,34 5.92910445,33.9927109 5.32518655,33.9781329 C4.72126864,33.9635548 4.30652985,33.9562658 4.08097012,33.9562658 C3.31697757,33.9854219 2.78582086,33.8615083 2.47294775,33.5845248 C2.16007461,33.3075413 2.00727611,32.7827306 2.00727611,32.0028034 L2.00727611,26.0185029 C2.00727611,25.7123633 2.05820896,25.4864031 2.15279849,25.3333333 C2.25466418,25.1802635 2.45839552,25.078217 2.76399251,25.0199047 C2.88041043,25.0199047 3.03320893,24.9761704 3.22966415,24.895991 C3.42611938,24.8158116 3.6225746,24.6846089 3.81902982,24.5023829 C4.01548505,24.320157 4.18283582,24.0869077 4.32835819,23.7953462 C4.46660446,23.5037847 4.53936565,23.1539108 4.53936565,22.7384356 C4.53936565,22.0970002 4.36473877,21.6013456 4.00820893,21.2441827 C3.65895522,20.8797308 3.280597,20.6756377 2.88768655,20.6173254 C2.5748134,20.5590131 2.34925372,20.4715447 2.21100745,20.347631 C2.07276119,20.2237173 2,20.0050462 2,19.7061956 L2,15.2963274 C2,14.5455564 2.12369404,14.0134566 2.37835822,13.6927389 C2.6330224,13.3720212 3.19328358,13.2116624 4.06641794,13.2116624 L9.47985077,13.2116624 L9.47985068,34 L9.49440295,34 Z M34.8880596,13.4813569 C35.0117537,13.6635828 35.0845149,13.8603869 35.0990671,14.0863471 C35.1136193,14.3050182 35.0626865,14.5309784 34.9535447,14.7496495 C34.8444029,14.9683207 34.6552238,15.1213905 34.4005597,15.208859 C34.1458955,15.2890384 33.9421641,15.4275301 33.7893656,15.6243341 C33.6365672,15.8211382 33.5419776,16.0325203 33.5128731,16.2657695 C33.4837687,16.4990188 33.5419776,16.732268 33.6802239,16.9509391 C33.8184701,17.1768993 34.0585821,17.3372582 34.4005597,17.4465938 C34.6552239,17.5559293 34.8589552,17.7235772 35.0117537,17.9422484 C35.1645522,18.1609195 35.2518657,18.3941688 35.2664179,18.627418 C35.2809701,18.8606672 35.2227612,19.0866274 35.0990671,19.2907205 C34.9753731,19.5021026 34.7643657,19.6405943 34.4878731,19.7280628 C34.1531716,19.8082422 33.8912313,19.9686011 33.7020522,20.2091393 C33.5201492,20.4423886 33.4182836,20.6902158 33.4037313,20.9380431 C33.3891791,21.1858705 33.4619403,21.4409868 33.6147388,21.6888141 C33.7675373,21.9366414 34.0003731,22.1188674 34.3132462,22.2282029 C34.5970149,22.3375385 34.8080224,22.5051864 34.9462687,22.7238576 C35.0845149,22.9425287 35.1645522,23.183067 35.1791045,23.4308943 C35.1936567,23.6787216 35.1427239,23.9192598 35.0335821,24.137931 C34.9244403,24.3566022 34.7498135,24.5242501 34.5242537,24.6408747 C33.8184701,24.9761705 33.4546642,25.3770676 33.4255597,25.843566 C33.3964552,26.3173535 33.6656717,26.6890945 34.2332089,26.9660779 C34.4878731,27.0754135 34.6916045,27.2503504 34.844403,27.4835997 C34.9972015,27.7168489 35.0845149,27.9719652 35.0990671,28.2343706 C35.1136194,28.496776 35.0626865,28.7300252 34.9535448,28.9414073 C34.844403,29.1455004 34.6552239,29.2912812 34.4078358,29.3787497 C34.0658582,29.4589291 33.811194,29.6119989 33.6220149,29.8379591 C33.4401119,30.0566302 33.3382463,30.2971685 33.323694,30.5449958 C33.3091418,30.7928231 33.381903,31.0406504 33.5347015,31.2957668 C33.6875,31.5435941 33.934888,31.7549762 34.2768656,31.9226241 C34.5024253,32.0319597 34.6625,32.2068966 34.7643656,32.4401458 C34.8662313,32.6733951 34.8953358,32.9066443 34.8735074,33.1253154 C34.844403,33.3439865 34.7643656,33.5480796 34.6406716,33.7303056 C34.5169775,33.9125316 34.3350745,34 34.1095149,34 L11.9901119,34 L11.9901119,13.2116625 L34.3641791,13.2116625 C34.5824627,13.2116625 34.7643656,13.2991309 34.8880596,13.4813569 Z M20.9179104,20.5954584 C20.8742537,18.7367536 19.9720149,17.7891786 18.1966418,17.7527334 C16.384888,17.7964676 15.4753731,18.7440426 15.4753731,20.5954584 L15.4753731,21.3243622 C15.5554104,23.1028876 16.4649253,24.0067283 18.1966418,24.0504625 C19.9283582,24.0140173 20.830597,23.1028876 20.9179104,21.3243622 L20.9179104,20.5954584 Z M25.3708955,17.3299691 C24.9197761,17.2497897 24.5268656,17.5923745 24.1994403,18.3577236 L19.2516791,28.1687693 C19.127985,28.4530417 19.0697761,28.6498458 19.0697761,28.7737594 C19.1934701,29.0580319 19.4408582,29.2402579 19.8119402,29.3204373 C20.1830223,29.3568825 20.5759328,29.0580319 20.9833955,28.4093075 L25.9311567,18.5982618 C26.0548507,18.3139893 26.1130597,18.0953181 26.1130597,17.9349593 C25.9893656,17.6142417 25.7419776,17.4101485 25.3708955,17.3299691 Z M29.7001865,25.5009812 C29.6565298,23.6422764 28.754291,22.6947014 26.9789179,22.6582562 C25.1671642,22.7019905 24.2576493,23.6495654 24.2576493,25.5009812 L24.2576493,26.229885 C24.301306,27.928231 25.2035448,28.7956265 26.9789179,28.8320717 C28.7106343,28.7883375 29.6128731,27.9209419 29.7001865,26.229885 L29.7001865,25.5009812 Z M26.9789179,27.6804037 C26.3604477,27.7241379 26.0694029,27.0972806 26.1130597,25.8071208 C26.0694029,24.5971404 26.3604477,23.9921502 26.9789179,23.9921502 C27.5537313,23.955705 27.8229477,24.5606952 27.779291,25.8071208 C27.8229477,27.1337258 27.5537313,27.7605831 26.9789179,27.6804037 Z M18.1966418,22.7165685 C17.5781716,22.7967479 17.3089552,22.1917578 17.3962686,20.9015979 C17.3162313,19.6114381 17.5854477,18.9845808 18.1966418,19.0283151 C18.7714552,19.0283151 19.0625,19.6551724 19.0625,20.9015979 C19.0625,22.1480235 18.7714552,22.7603028 18.1966418,22.7165685 Z" id="形状" fill="url(#linearGradient-1)"></path>
                    </g>
                </g>
            </g>
        </g>
    </g>
</svg>