<?xml version="1.0" encoding="UTF-8"?>
<svg width="72px" height="72px" viewBox="0 0 72 72" version="1.1" xmlns="http://www.w3.org/2000/svg" xmlns:xlink="http://www.w3.org/1999/xlink">
    <title>vip_hour</title>
    <defs>
        <linearGradient x1="100%" y1="50%" x2="0.437319029%" y2="50%" id="linearGradient-1">
            <stop stop-color="#E4C281" offset="0%"></stop>
            <stop stop-color="#F8EACA" offset="100%"></stop>
        </linearGradient>
        <path d="M18.9452661,7.08031178 C13.9713712,7.08031178 9.94007438,11.0298504 9.94007438,15.9030644 C9.94007438,20.775634 13.9713712,24.7257033 18.9452661,24.7257033 C23.9193124,24.7257033 27.9506092,20.7756719 27.9506092,15.9030644 C27.9506092,11.0298125 23.9193124,7.08031178 18.9452661,7.08031178 L18.9452661,7.08031178 Z M8.54687778,19.2896341 L8.54687778,11.1443622 C8.43290241,11.1443622 8.31987397,11.1490245 8.20824705,11.1579323 C10.0535952,7.14899608 14.1636407,4.3569704 18.9466675,4.3569704 C23.7295049,4.3569704 27.8397777,7.14899608 29.6849744,11.1578943 C29.5733096,11.1489866 29.4604327,11.1443242 29.3463437,11.1443242 L29.3463437,19.2896341 C31.6432375,19.2896341 33.5065399,17.466012 33.5065399,15.2171687 C33.5065399,13.6897383 32.6470466,12.3588846 31.3761964,11.6618069 C29.587817,6.62078631 24.7054736,3 18.9466676,3 C13.1878994,3 8.30585906,6.62044515 6.51729023,11.6613141 C5.24602341,12.3582781 4.38683312,13.6893972 4.38683312,15.2169792 C4.38683312,17.466012 6.24869617,19.2896341 8.54687778,19.2896341 L8.54687778,19.2896341 Z M27.9315944,23.9590694 C25.5784894,26.1106857 22.4192615,27.428121 18.9452661,27.428121 C15.4777857,27.428121 12.3238985,26.1155376 9.97215717,23.9710854 C5.76321178,26.092946 3,29.8695609 3,35 L35,35 C35,29.8600088 32.1850466,26.0787695 27.9315944,23.9590694 L27.9315944,23.9590694 Z" id="path-2"></path>
    </defs>
    <g id="defi" stroke="none" stroke-width="1" fill="none" fill-rule="evenodd">
        <g id="VIP" transform="translate(-127.000000, -2435.000000)">
            <g id="编组-6备份-3" transform="translate(95.000000, 2391.000000)">
                <g id="vip_hour" transform="translate(32.000000, 44.000000)">
                    <circle id="椭圆形" fill-opacity="0.19726904" fill="#FFFFFF" cx="36" cy="36" r="36"></circle>
                    <g id="客服" transform="translate(17.000000, 17.000000)" fill-rule="nonzero">
                        <rect id="矩形" fill="#000000" opacity="0" x="0" y="0" width="38" height="38"></rect>
                        <g id="形状">
                            <use fill="#000000" xlink:href="#path-2"></use>
                            <use fill="url(#linearGradient-1)" xlink:href="#path-2"></use>
                        </g>
                    </g>
                </g>
            </g>
        </g>
    </g>
</svg>