<?xml version="1.0" encoding="UTF-8"?>
<svg width="72px" height="72px" viewBox="0 0 72 72" version="1.1" xmlns="http://www.w3.org/2000/svg" xmlns:xlink="http://www.w3.org/1999/xlink">
    <title>welfare_invitate</title>
    <g id="defi" stroke="none" stroke-width="1" fill="none" fill-rule="evenodd">
        <g id="福利中心" transform="translate(-124.000000, -4322.000000)" fill-rule="nonzero">
            <g id="编组-6备份-4" transform="translate(30.000000, 4231.000000)">
                <g id="编组-3" transform="translate(46.000000, 60.000000)">
                    <g id="welfare_invitate" transform="translate(48.000000, 31.000000)">
                        <rect id="矩形" fill="#000000" opacity="0" x="0" y="0" width="72" height="72"></rect>
                        <path d="M2.2583064,27.7131701 L68.1620891,0.158296834 C68.8771677,-0.140750511 69.699189,-0.00965609304 70.2866219,0.497113312 C70.8740547,1.00388272 71.1264854,1.79970181 70.9390347,2.55392571 L54.5232903,68.4440023 C54.3517785,69.1299859 53.8409685,69.6793969 53.1708392,69.898656 C52.5007098,70.1179152 51.7653084,69.976251 51.2237462,69.5235775 L36.9701254,57.607123 C36.1550531,56.9267562 34.9573571,56.9824957 34.2085504,57.7356439 L26.8972935,65.066474 C26.3113274,65.6509474 25.4328792,65.8251984 24.6693404,65.5084157 C23.9058016,65.191633 23.4065247,64.4457813 23.4030558,63.6167586 L23.4030558,48.1222833 C23.4026282,47.5767455 23.6182669,47.053395 24.0025072,46.6674271 L53.7342689,16.8351641 L18.6330626,43.2539129 C17.8728728,43.8251597 16.8211219,43.7975005 16.0917988,43.1870821 L1.73570776,31.1883742 C1.18636404,30.7280088 0.916186239,30.0134309 1.02297431,29.3033059 C1.12976239,28.5931809 1.59804308,27.9904038 2.2583064,27.7131701 Z" id="路径" fill="#FFFFFF"></path>
                    </g>
                </g>
            </g>
        </g>
    </g>
</svg>